<svg xmlns="http://www.w3.org/2000/svg" width="668.13" height="320.77" viewBox="0 0 668.13 320.77"><defs><style>.a{fill:#fff;}.b{fill:none;stroke:#fff;stroke-miterlimit:10;}</style></defs><path class="a" d="M59.59,232.85q4.11,3,7.64,5.59a45,45,0,0,0,7.24,4.44,40.54,40.54,0,0,0,7.9,2.88A39.18,39.18,0,0,0,92,246.83c1,0,2-.06,3-.16a26.77,26.77,0,0,0,3-.5,6.46,6.46,0,0,0,1.15,2.39,2.76,2.76,0,0,0,2.31,1.07,8.27,8.27,0,0,0,2.46-2.06,6.51,6.51,0,0,1,2.47-1.89q3.62-1.65,7.32-3c2.47-.94,5-1.89,7.48-2.88A43.51,43.51,0,0,1,117.4,242q-3.21,1.72-6.83,3.54c-2.41,1.2-4.63,2.3-6.66,3.28a17,17,0,0,1-3.53,1.49,3.07,3.07,0,0,1-2.31-1.07,9.53,9.53,0,0,1-1.48-2.06,10.44,10.44,0,0,1-2.55.33H91.49a39.64,39.64,0,0,1-11.59-1.73A61.65,61.65,0,0,1,69,241.24l-1.48-1A20.82,20.82,0,0,0,63,237.13,6.51,6.51,0,0,1,59.59,232.85ZM78.83,222a13.24,13.24,0,0,1,2-.5,13,13,0,0,0,2-.49,5.39,5.39,0,0,0-3.46,2.14,23.26,23.26,0,0,1-3,3.45,20.2,20.2,0,0,1-5.34,3.45q-3.47,1.65-10.37,2.31a26.8,26.8,0,0,1,5.68-1.65,21.88,21.88,0,0,0,5.67-1.81,8.76,8.76,0,0,0,3.79-3.29A12.89,12.89,0,0,1,78.83,222ZM60.57,278.74a6.45,6.45,0,0,1,3.87-4.44,16,16,0,0,1,6-1.15,30.14,30.14,0,0,1,5.59.41,17.7,17.7,0,0,1,5.27,2.22l-1,1a15.71,15.71,0,0,0-9-2.8,15.26,15.26,0,0,0-5.26.9,12.4,12.4,0,0,0-4.44,2.88l2,.66a15.08,15.08,0,0,1,2,.82c-.88,0-1.7,0-2.47-.08A15,15,0,0,1,60.57,278.74Zm89.15-136.35a78.91,78.91,0,0,1,13.81,1.32,49.41,49.41,0,0,1,13.74,4.52,30.54,30.54,0,0,1,10.44,8.47q4.11,5.27,4.11,13.32a22.21,22.21,0,0,1-2.88,11.68,26.37,26.37,0,0,1-7.4,8,43.38,43.38,0,0,1-10.11,5.26,95.17,95.17,0,0,1-11.19,3.37,44.08,44.08,0,0,0,1.16,7.07,74.55,74.55,0,0,0,2.54,8.64,87.09,87.09,0,0,0,3.38,8.14,20.78,20.78,0,0,0,3.78,5.76,9.39,9.39,0,0,0,3.12,2.13,16.52,16.52,0,0,1,3.29,1.81c-.55,1.43-1.12,2.83-1.72,4.2s-1.18,2.77-1.73,4.19a32.11,32.11,0,0,0-3.21-2.79,16.49,16.49,0,0,0-3.7-2.14,31.24,31.24,0,0,0,4.2,5.43,18,18,0,0,0,5.67,3.94,21.93,21.93,0,0,0-.49,2.47,17.43,17.43,0,0,0-.17,2.47,21.63,21.63,0,0,0,2.72,10.44,31.1,31.1,0,0,0,7.07,8.8,37.65,37.65,0,0,0,9.62,6.09,26.17,26.17,0,0,0,10.53,2.3,10.28,10.28,0,0,0,5.51-1.15,8.13,8.13,0,0,0,2.55-2.55l1.48-2.55a2.25,2.25,0,0,1,2.13-1.15A3.21,3.21,0,0,1,221,271.5a7.12,7.12,0,0,1,.9,3.46,6.34,6.34,0,0,1-3.21,5.75,12.46,12.46,0,0,1-6.66,2,28,28,0,0,1-11.26-2.55,86.7,86.7,0,0,1-10.45-5.35,41.75,41.75,0,0,1-13.9-14.06,117.13,117.13,0,0,1-9.78-19.82q-4.11-10.69-7.16-21.55t-5.67-19.07a36,36,0,0,0-4.19.24,34.2,34.2,0,0,1-4.2.25c-.66,1.54-1.42,3.12-2.3,4.77s-1.73,3.29-2.55,4.93a36.57,36.57,0,0,0-2.06,5,16.74,16.74,0,0,0-.82,5.18,12.73,12.73,0,0,0,.41,3.21c.27,1,.58,2.05.91,3a44.17,44.17,0,0,1-6,1.23,19.89,19.89,0,0,0-5.83,1.73,84.93,84.93,0,0,0-8.64,4.28c-2.47,1.42-4.91,2.74-7.32,3.94a42.69,42.69,0,0,1-7.81,3,39.77,39.77,0,0,1-10.28,1.15,42.75,42.75,0,0,1-12-1.73,22.78,22.78,0,0,1-10.19-6.17c1.53-.76,3-1.48,4.44-2.14s2.9-1.26,4.44-1.81q2.3,2.31,4,4a21.25,21.25,0,0,0,3.61,2.8,13.33,13.33,0,0,0,4.28,1.64,29.26,29.26,0,0,0,5.84.5,28.66,28.66,0,0,0,14.14-3.38,39.58,39.58,0,0,0,10.7-8.63,65.6,65.6,0,0,0,8.14-11.76q3.52-6.5,6.49-12.75a22,22,0,0,0-10.36,5.92l-2-1a5.74,5.74,0,0,1,2.22-2.88,11,11,0,0,1,3.45-1.56c1.26-.33,2.58-.61,4-.83s2.6-.43,3.7-.65q.83-1.65,3.13-6.09t4.77-9.29q2.46-4.86,4.35-9t1.89-5.51a10,10,0,0,0-.65-3.53,35.66,35.66,0,0,1-1.15-3.54,41.7,41.7,0,0,0,14.06-5.51q6.5-4,13.07-7.81a31,31,0,0,0-11.18-5.84,43.11,43.11,0,0,0-12.5-2.06q-6.26,0-12.34.58a70.38,70.38,0,0,0-11.84,2.14,44.49,44.49,0,0,0-10.94,4.6,35.64,35.64,0,0,0-13.24,13.9,14.32,14.32,0,0,0-1.64,6.74,10.89,10.89,0,0,0,2.14,7.08,16.87,16.87,0,0,0,5.92,4.44,7.25,7.25,0,0,1-4.77,1.81,12.82,12.82,0,0,1-4.11-.66c-1.32-.44-2.63-.83-4-1.15A4.88,4.88,0,0,1,97.58,180c-.11-1.15-.28-2.27-.49-3.37-.11.77-.2,1.51-.25,2.22s-.08,1.4-.08,2.06q0,3.45,1.15,5a7,7,0,0,0,2.79,2.31l3.38,1.48a6.16,6.16,0,0,1,2.87,2.71,10,10,0,0,0,4.77,4.36,15.61,15.61,0,0,0,6.42,1.4,14.22,14.22,0,0,0,5.18-1,15.19,15.19,0,0,0,4.6-2.8,15.54,15.54,0,0,0,3.38-4.19,10.6,10.6,0,0,0,1.31-5.18,7.55,7.55,0,0,0-1.89-5,6.09,6.09,0,0,0-4.85-2.22,6,6,0,0,0-4,1.48q-1.73,1.49-3.54,2.8a8.23,8.23,0,0,0-.24-2,7.9,7.9,0,0,1-.25-2,29.33,29.33,0,0,1,4.61-3.86,10.73,10.73,0,0,1,5.92-1.4c2.85,0,5,.88,6.41,2.63a10.14,10.14,0,0,1,2.14,6.58,14.71,14.71,0,0,1-2.22,8,20.68,20.68,0,0,1-5.76,6,29.26,29.26,0,0,1-16,5.1q-10.69,0-15.22-6.09t-4.52-16a20.62,20.62,0,0,1,3-10.28,45.26,45.26,0,0,1,7.4-9.62,59.73,59.73,0,0,1,9.62-7.82,43.37,43.37,0,0,1,9.62-4.85A72.52,72.52,0,0,1,136,143.38,97.91,97.91,0,0,1,149.72,142.39ZM93.8,263a97.09,97.09,0,0,1,9.7.49,30.86,30.86,0,0,1-4.36.33H94.78c-.65,0-1.7.06-3.12.17a34,34,0,0,0-4.2.57,13.1,13.1,0,0,0-3.61,1.24,2.51,2.51,0,0,0-1.57,2.3,12.25,12.25,0,0,1,.5,1.31c.22.66.43,1,.66,1a1.89,1.89,0,0,0,1.48-.82,4,4,0,0,1,1.31-1.15l1,1a4,4,0,0,1-.82,1.32l-1.16,1.15c-1-.33-1.92-.68-2.79-1.07a2.94,2.94,0,0,1-1.65-2.38,4.55,4.55,0,0,1,1.81-3.05,10,10,0,0,1,3.46-1.56,24.49,24.49,0,0,1,4.11-.66C91.6,263,92.81,263,93.8,263Zm-12,12.34a16.89,16.89,0,0,0,3.7-2.14,32.19,32.19,0,0,0,3.21-2.8,3.59,3.59,0,0,1-2.3,3.87,9,9,0,0,1-2.22.57A15.34,15.34,0,0,0,81.79,275.29ZM149.22,128.9a9.24,9.24,0,0,1,2.14.33l-1,2.47c-.23-.55-.44-1-.66-1.48a3.25,3.25,0,0,1-.33-1.48l-5.92,3a5.61,5.61,0,0,0,1.07,3.54,4,4,0,0,0,3.37,1.39l-.49,1.48a7.83,7.83,0,0,1-3.71-2.63q-1.4-1.8-2.71-3.78c-.55.22-1.26.52-2.14.9s-1.31.91-1.31,1.57a3,3,0,0,0,.57,1.89,18.5,18.5,0,0,0,1.4,1.56,13.18,13.18,0,0,0-2-.49,12,12,0,0,1-2-.5,8,8,0,0,1-4.52,3c-1.81.43-3.59.93-5.35,1.48a62.44,62.44,0,0,0-20.47,10.36A50.11,50.11,0,0,0,91.17,169.2a23.61,23.61,0,0,0-2.55,11.1c0,3.9.08,7.76.08,11.6a2.93,2.93,0,0,1-2,3,13.27,13.27,0,0,0-3.45,1.89,8.52,8.52,0,0,1,1.23,2.47,8.81,8.81,0,0,0,1.24,2.47l4.93-3.46a12.34,12.34,0,0,1,.58,3.29c0,1.21.9,1.92,2.55,2.14a2.08,2.08,0,0,0,1.64-1.48,4.45,4.45,0,0,1,1.15-2,33.13,33.13,0,0,0,6.66,4,18.93,18.93,0,0,0,7.65,1.4,15.79,15.79,0,0,0,5.59-.82c1.43-.55,3.18-1.26,5.27-2.14a4.39,4.39,0,0,1,.49,2,41.07,41.07,0,0,0-4.36,3.2,5.81,5.81,0,0,0-2,4.69,2.82,2.82,0,0,0-.17,1.15,5,5,0,0,0,.91,2.72,2.72,2.72,0,0,0,2.38,1.39,8.91,8.91,0,0,0,1.65-.33,10,10,0,0,0,1.64-.49,10.65,10.65,0,0,1-.41-2.22c-.06-.71-.08-1.45-.08-2.22a7,7,0,0,0,2.63,1.15,2.21,2.21,0,0,1,1.81,1.81,42.38,42.38,0,0,1-12.26,14,28.86,28.86,0,0,1-17.51,5.59,15.85,15.85,0,0,1-9-2.46c-2.46-1.65-3.7-4.39-3.7-8.23v-3a4.51,4.51,0,0,1,1.07,3.13,13.34,13.34,0,0,0,.91,4.27,8.11,8.11,0,0,0,3.37,3.79q2.55,1.63,8.63,1.64a21.57,21.57,0,0,0,8.31-1.73,35.24,35.24,0,0,0,7.81-4.44,37,37,0,0,0,6.5-6.25,27.3,27.3,0,0,0,4.36-7.32A34.45,34.45,0,0,1,120,220a47.62,47.62,0,0,1-6.42,5.1,38.05,38.05,0,0,1-7.15,3.78,18.81,18.81,0,0,1-7,1.48,11.85,11.85,0,0,1-7.24-2.3A7.67,7.67,0,0,1,89,221.5V220a7.56,7.56,0,0,1,.16-1.48,7.28,7.28,0,0,1,3-2.88,8.27,8.27,0,0,1,3.95-1.07,4.49,4.49,0,0,1,2.71.91c.83.6,1.67,1.29,2.55,2.05a22.62,22.62,0,0,0,2.72,2.06,6.08,6.08,0,0,0,3.37.91,3.86,3.86,0,0,0,2.55-.66c.49-.44,1.12-1,1.89-1.81-.55-.22-1.15-.44-1.81-.66a5.58,5.58,0,0,1-1.64-.82,9.5,9.5,0,0,1,1.72-.5,8.37,8.37,0,0,0,1.73-.49,9.5,9.5,0,0,0,.25,2.22,10.2,10.2,0,0,1,.24,2.22,19.67,19.67,0,0,1-4.69,1.07A18.75,18.75,0,0,1,103,221a14.66,14.66,0,0,1-2.22,3.45,4.46,4.46,0,0,1-3.54,1.65,1.91,1.91,0,0,1-.57-.08,1.72,1.72,0,0,0-.58-.09c-.66.22-1.32-.19-2-1.23a5.12,5.12,0,0,1-1-2.38,2.63,2.63,0,0,1,1.07-2.06c.71-.6,1.34-1.18,1.89-1.73A8.4,8.4,0,0,1,98,220.35c.49.66,1,1.37,1.56,2.14A21,21,0,0,0,97.17,221a11,11,0,0,0-2.55-1V224a8.29,8.29,0,0,1,1.56.82,9.51,9.51,0,0,1,1.4,1.15,14.53,14.53,0,0,1,2.71-2.14,3.3,3.3,0,0,0,1.4-3.12A4.39,4.39,0,0,0,99.8,217a6.9,6.9,0,0,0-4.19-1.4,5.42,5.42,0,0,0-4,1.81,5.82,5.82,0,0,0-1.73,4.11,6.73,6.73,0,0,0,3.45,6.17,13.7,13.7,0,0,0,7.08,2.06,15.05,15.05,0,0,0,9.86-3.38,63.08,63.08,0,0,0,7.57-7.31c-.44-.55-1.13-1.35-2.06-2.39a4.38,4.38,0,0,1-1.39-2.55,7.85,7.85,0,0,1,2.22-5.51c1.48-1.59,2.87-3,4.19-4.36a18.37,18.37,0,0,1-5.59,2.06,30.46,30.46,0,0,1-5.76.57,12.72,12.72,0,0,1-6.49-1.48c-1.71-1-3.65-2-5.84-3.12a10.69,10.69,0,0,0-1.57,1.15,2.31,2.31,0,0,1-1.56.66,2.86,2.86,0,0,1-1.31-.33c-1.1-.33-2.25-.63-3.46-.91a15.55,15.55,0,0,1-3.37-1.15,7.1,7.1,0,0,1-2.55-2,5.24,5.24,0,0,1-1-3.37A6.79,6.79,0,0,1,85,194.78a3.3,3.3,0,0,0,2.22-1.9,7.24,7.24,0,0,0,.33-2.55c0-1.15,0-2.35-.09-3.61s-.13-2.5-.24-3.7-.17-2.2-.17-3a25.61,25.61,0,0,1,3.46-12.83A50.91,50.91,0,0,1,99.14,156a70.51,70.51,0,0,1,23.11-15,31.56,31.56,0,0,1,6.83-1.73,9.63,9.63,0,0,0,6-3.7,20.68,20.68,0,0,1,6.41-4.69A17.39,17.39,0,0,1,149.22,128.9ZM112.88,256c1.2.22,2.41.38,3.61.5s1.81,1,1.81,2.63a10.63,10.63,0,0,1-1.31,5.18,6.06,6.06,0,0,1-4.11,3,5.65,5.65,0,0,1-1.73-1.15c-.28-.33-.55-.63-.82-.91a3,3,0,0,0-1.24-.65,9.76,9.76,0,0,0-2.63-.25c0,1.09,0,2.16-.08,3.21a22.8,22.8,0,0,1-.41,3.2c-.11-.55-.19-1-.25-1.39a9.44,9.44,0,0,1-.08-1.4,12.92,12.92,0,0,1,1.07-5.26,11.44,11.44,0,0,1,3.21-4.28,8.43,8.43,0,0,0-1.24,2.47,8.6,8.6,0,0,1-1.23,2.46h5.43a6,6,0,0,0-.42,1.73c0,.6-.08,1.18-.08,1.73a11.07,11.07,0,0,0,3.46-2.72,6,6,0,0,0,1.48-4,4,4,0,0,0-.5-2.13,2.11,2.11,0,0,0-2-.83,8.25,8.25,0,0,0-2,.25c-.66.16-1.32.35-2,.58a2.79,2.79,0,0,1,.91-1.07A9.34,9.34,0,0,0,112.88,256ZM130,152.42h1.15a75.65,75.65,0,0,0-7.73,3.21,35.4,35.4,0,0,0-7.15,4.52A22.3,22.3,0,0,0,111,166.4a16.4,16.4,0,0,0-2,8.23,4.38,4.38,0,0,0,1,3,2.55,2.55,0,0,1,1.23,1,2.49,2.49,0,0,0,1.23,1q1.49-2.3,2.88-4.69a16.27,16.27,0,0,1,3.54-4.19,4.94,4.94,0,0,1-.17-1.48,7.2,7.2,0,0,1,1.65-4.44c.87.22,1.7.44,2.46.66a8.94,8.94,0,0,0,2.47.33A33.63,33.63,0,0,1,128,163a5.23,5.23,0,0,1,3.62-1.32,3.61,3.61,0,0,1,.74.09,4.07,4.07,0,0,0,.74.08,5.27,5.27,0,0,1,.82,1.89,18,18,0,0,1,.24,1.89c.06.66.14,1.35.25,2.06a3.76,3.76,0,0,0,1.15,2.05q1.32,1.49,3.13,3.95a7.87,7.87,0,0,1,1.81,4.44v1q-1.81-2.62-3.21-4.28a21.23,21.23,0,0,1-2.3-3.21,13.56,13.56,0,0,1-1.4-3.45,22.26,22.26,0,0,1-.49-5.34,9,9,0,0,0-2-.33,3.18,3.18,0,0,0-3,1.81,2.6,2.6,0,0,0-1.23,2.55,16.93,16.93,0,0,1,.25,2.87A8.49,8.49,0,0,0,124,167a14.47,14.47,0,0,0-4.2-1.23c0,.87,0,1.78.09,2.71a14.17,14.17,0,0,0,.41,2.71,10.68,10.68,0,0,0-4.11,4,24.31,24.31,0,0,0-2.31,5.35,15.23,15.23,0,0,1-3.78-1.4,3.31,3.31,0,0,1-2.14-3,19.74,19.74,0,0,1,1.89-8.14,30.28,30.28,0,0,1,4.94-7.65,26.67,26.67,0,0,1,7-5.68A16.54,16.54,0,0,1,130,152.42Zm-8.72,116.45a15.63,15.63,0,0,1-4.11,3.7,9.67,9.67,0,0,1-5.26,1.56,6.93,6.93,0,0,1-3.45-.82,25.86,25.86,0,0,0,4-.25,11.62,11.62,0,0,0,2.88-.82,19.14,19.14,0,0,0,2.63-1.4C118.85,270.29,120,269.64,121.26,268.87Zm2-86.84a12.12,12.12,0,0,1,2.55,1.64,3.92,3.92,0,0,1,.9,3,6.41,6.41,0,0,1-3.21,5.68,11.89,11.89,0,0,1-6.49,2.05,15.07,15.07,0,0,1-5.18-1,4,4,0,0,1-2.72-4.11,3.4,3.4,0,0,1,.74-2.22,3,3,0,0,1,2.06-1.07,16.34,16.34,0,0,1-1.15,1.64,2.83,2.83,0,0,0-.66,1.81,2.41,2.41,0,0,0,.82,1.89,7,7,0,0,0,2.06,1.24,15.15,15.15,0,0,0,2.47.74,11,11,0,0,0,2,.24,7.16,7.16,0,0,0,5.76-2.3,11,11,0,0,0,2.46-5.76,5.22,5.22,0,0,0-1.06-1.81C124.14,183.13,123.67,182.58,123.24,182Zm-10.36-.49a26.45,26.45,0,0,1,2.46,2.13,13.11,13.11,0,0,0,2,1.65,5.19,5.19,0,0,0,2.3.82,8.4,8.4,0,0,0,3.62-.66l-1.4,1.4a2.22,2.22,0,0,1-1.56.74,6.46,6.46,0,0,1-4.61-1.89A10.82,10.82,0,0,1,112.88,181.54Zm5.42,81.9a6.76,6.76,0,0,1,1.73.25,6.76,6.76,0,0,0,1.73.25,6.33,6.33,0,0,1-1.73.41c-.6,0-1.18.08-1.73.08Zm4,3.46c.33.22.49.43.49.65,0,.55-.32.83-1,.83a.29.29,0,0,1-.33-.33.79.79,0,0,1,.25-.58Zm1-28.13a13.18,13.18,0,0,1,6.33-2.88,43.92,43.92,0,0,1,7-.57,35.55,35.55,0,0,0-6.74,1.31C127.62,237.29,125.43,238,123.24,238.77Zm13.32-1.48c-.55,1.76-1.34,4-2.39,6.66s-2.19,5.43-3.45,8.23-2.55,5.45-3.86,8a34.3,34.3,0,0,1-3.62,5.76c1.09-2.3,2.14-4.72,3.12-7.24s2-5,3-7.56,2.06-5,3.21-7.32A36.76,36.76,0,0,1,136.56,237.29Zm16.61,10.53a6.18,6.18,0,0,1,6.09,6.08,6.86,6.86,0,0,1-3.13,5.84,24.37,24.37,0,0,1-7.48,3.46,48.68,48.68,0,0,1-8.8,1.64q-4.44.41-7.07.41a20.78,20.78,0,0,1-5.59-.82c1.31-.11,2.65-.16,4-.16h4a51.09,51.09,0,0,0,6.09-.42,40.1,40.1,0,0,0,6.74-1.39,25.76,25.76,0,0,0,6-2.64,11.58,11.58,0,0,0,4.19-4.27,9.51,9.51,0,0,0-.58-3.37,22,22,0,0,0-1.39-3.05,5.77,5.77,0,0,0-3.13-.82,6.94,6.94,0,0,0-3.7,1.07,4.32,4.32,0,0,0-2.05,3.21,2.23,2.23,0,0,0,1.56,1.56,7.59,7.59,0,0,0,2.38.41,1.51,1.51,0,0,0,.41-.9,7,7,0,0,0,.09-1.07h-2l.5-2a4,4,0,0,0,1.8,1,1.42,1.42,0,0,1,1.16,1.48,1.93,1.93,0,0,1-.58,1.4,1.91,1.91,0,0,1-1.4.57,3.07,3.07,0,0,1-1.64.33,4.83,4.83,0,0,1-2.06-.41,15.53,15.53,0,0,1-1.72-.9,10.75,10.75,0,0,1,2.13-4.85C149,248.28,150.65,247.82,153.17,247.82Zm-21.54-95.4c.54-.21,1-.43,1.48-.65a3.22,3.22,0,0,1,1.48-.33,8.89,8.89,0,0,0-1.24,2.38c-.27.82-.52,1.68-.74,2.55a12.89,12.89,0,0,1-.49-2A14.3,14.3,0,0,0,131.63,152.42Zm29.6-3.12a26.1,26.1,0,0,1,7.4,3.12,33.59,33.59,0,0,1-7.56,5.18,22.62,22.62,0,0,1-5.76,1.81c-1.76.28-3.4.5-4.93.66a13,13,0,0,0-4.94,1.73,30.63,30.63,0,0,0,1.07,4.69,16.35,16.35,0,0,1,.74,4.85,22.82,22.82,0,0,1-1.31,6.25,81.13,81.13,0,0,1-3.29,8.47,59.49,59.49,0,0,1-4.28,7.89c-1.54,2.36-3,3.81-4.28,4.36.33-.76.85-2.08,1.57-3.95s1.5-3.8,2.38-5.83,1.73-3.9,2.55-5.6a20.44,20.44,0,0,1,1.89-3.37,17.84,17.84,0,0,1-1.23,4.44,17.67,17.67,0,0,0-1.24,4.44q1.81-4.11,3.79-8.22a20,20,0,0,0,2-8.72,21.65,21.65,0,0,0-.41-4.19,20.12,20.12,0,0,1-.41-4,4.38,4.38,0,0,1,1.48-3.45q3.28-.66,5.75-1.07a39.82,39.82,0,0,0,4.69-1.07,28,28,0,0,0,4.53-1.81,33.14,33.14,0,0,0,5.26-3.46,16.06,16.06,0,0,0-7.81-2.63q-4.36-.33-8.47-.33-4.29,0-6.34,1.4a10.43,10.43,0,0,0-3.12,3.13,21.9,21.9,0,0,0-1.65,3.12,2.06,2.06,0,0,1-2.05,1.4,5.59,5.59,0,0,1-2.14-.41c-.66-.27-1.32-.52-2-.74H138a34.3,34.3,0,0,1,2.8-4.77,10.53,10.53,0,0,1,2.87-2.8,8.88,8.88,0,0,1,3.87-1.23,53.89,53.89,0,0,1,5.76-.25A32.31,32.31,0,0,1,161.23,149.3Zm-9.37,55.92q3.45,13.32,7.4,26.15A267.64,267.64,0,0,0,168.63,257a39.29,39.29,0,0,0,2.47,4.77l2.63,4.27a32.87,32.87,0,0,1,2.3,4.45,22.68,22.68,0,0,1,1.48,5.26,2.59,2.59,0,0,0,1.48,2,6.2,6.2,0,0,0,2.47.5,7.46,7.46,0,0,1,.33-2.22c.22-.72.44-1.46.66-2.23a31,31,0,0,0,7.56,6.09,50.5,50.5,0,0,0,6.75,3c2.19.77,4.44,1.53,6.74,2.3a32,32,0,0,1,7.57,4,3.47,3.47,0,0,0,1.81-.49l1.64-1a3.62,3.62,0,0,1-1.15,1.48,2.83,2.83,0,0,1-1.81.66l-1.48-.66a51.81,51.81,0,0,0-6.74-2.8c-2.31-.76-4.58-1.53-6.83-2.3a50.51,50.51,0,0,1-6.58-2.79,24,24,0,0,1-6-4.44,11.34,11.34,0,0,0-1.89,1.56,3,3,0,0,1-2.22.9c-1.76,0-2.72-.6-2.88-1.81s-.31-2.41-.41-3.62a12,12,0,0,0-1.4-3.7,29.93,29.93,0,0,0-2.06-3.2A64.43,64.43,0,0,1,166.74,256a119.55,119.55,0,0,1-4.52-11.43q-2-5.84-3.62-11.76T154.82,221A29,29,0,0,1,153,214.1a35.37,35.37,0,0,0-1.65-6.91h-1.48c-.22.55-.68,1.59-1.4,3.13s-1.45,3.15-2.22,4.85-1.42,3.26-2,4.69a11.3,11.3,0,0,0-.82,2.63,3.55,3.55,0,0,0,1.07,2.47c.71.76,1.34,1.42,1.89,2a45.1,45.1,0,0,0-1.4,4.69,29.54,29.54,0,0,1-1.56,4.68,2.54,2.54,0,0,1-2.55,1.73,14,14,0,0,0-3.37.25v-2.47c.65.44,1.28.82,1.89,1.15a10.08,10.08,0,0,0,2.05.83,10.09,10.09,0,0,0,1.73-3.54,5.52,5.52,0,0,0-.25-3.87,12.64,12.64,0,0,0,3-2.46c-.88-.88-1.76-1.81-2.64-2.8A5.24,5.24,0,0,1,142,221.5a10.2,10.2,0,0,1,.57-2.46c.39-1.21.83-2.53,1.32-3.95s1-2.74,1.48-4,.85-2,1.07-2.47a4.39,4.39,0,0,1,2.38-2A22.61,22.61,0,0,0,151.86,205.22Zm-5.92-5.43a111.37,111.37,0,0,0,12.91-2.46,30.16,30.16,0,0,0,11.76-5.93,10.43,10.43,0,0,0,2.87-3.78,20.08,20.08,0,0,1,2.55-4.11,31.49,31.49,0,0,1,5.68-2.8,11.17,11.17,0,0,0,3.86-2.13,7.46,7.46,0,0,0,2.14-3.62,28.72,28.72,0,0,0,.66-7.24l-2-1a8.93,8.93,0,0,0-.09,3.21,21,21,0,0,1,.25,3.37l-.16,1.81a13.55,13.55,0,0,0-6,1.32,12.8,12.8,0,0,1-5.67,1.31,9.46,9.46,0,0,1-3.62-.82,2.85,2.85,0,0,1-2-2.8,4.33,4.33,0,0,1,.24-1.48,4,4,0,0,0,.25-1.48,26.6,26.6,0,0,1,2.63.83,7.89,7.89,0,0,0,2.8.49,5,5,0,0,0,3.29-1.23,10.42,10.42,0,0,0,2.46-3,18.48,18.48,0,0,0,1.57-3.86,13.56,13.56,0,0,0,.57-3.54,9,9,0,0,0-1.31-4.77q-1.32-2.13-2.64-4.11c-2.08,1.54-4.19,3-6.33,4.28a19.36,19.36,0,0,0-5.51,5.1A110.22,110.22,0,0,0,155.72,180Q150.71,190.26,145.94,199.79Zm1,10.36a1.35,1.35,0,0,0-.49.83c0,.11.16.33.49.65a5.76,5.76,0,0,1,.33-.57,1,1,0,0,0,.17-.58C147.42,210.26,147.25,210.15,146.92,210.15Zm0,0c.33,0,.5.11.5.33a1,1,0,0,1-.17.58,5.76,5.76,0,0,0-.33.57c-.33-.32-.49-.54-.49-.65A1.35,1.35,0,0,1,146.92,210.15Zm2-77.46a15.07,15.07,0,0,0,5.67,3.29c2.47.88,5.21,1.75,8.22,2.63s6.17,1.84,9.46,2.88a59.36,59.36,0,0,1,9.38,3.86,29.5,29.5,0,0,1,7.81,5.84,20.75,20.75,0,0,1,4.85,8.64,31.1,31.1,0,0,1-3.7-5.27,13.5,13.5,0,0,0-4.19-4.6,61,61,0,0,0-26.16-10.86,40.11,40.11,0,0,1-6.74-1.73A6.69,6.69,0,0,1,148.9,132.69Zm28.61,28.62a2.66,2.66,0,0,1,.33,1.48q0,3.45-2.05,4.19a32.62,32.62,0,0,1-4.53,1.23,10.54,10.54,0,0,0-4.52,2.14q-2.06,1.65-2.06,7.24l2.47,1.56a27.5,27.5,0,0,0,2.47,1.4,20.61,20.61,0,0,1-1.73,5.51,8.8,8.8,0,0,1-2.71,3.21,10.91,10.91,0,0,1-4,1.64q-2.39.5-5.84,1c.77-2.31,1.83-5.1,3.21-8.39a68.8,68.8,0,0,1,4.93-9.62,44.39,44.39,0,0,1,6.42-8.23A15,15,0,0,1,177.51,161.31ZM163.7,178.58q-1.48,2.79-2.8,5.75a40.38,40.38,0,0,0-2.14,6.09,34.79,34.79,0,0,0,4.69-1.24,5.48,5.48,0,0,0,2.39-1.56,7.54,7.54,0,0,0,1.31-2.55c.33-1,.82-2.38,1.48-4a11.67,11.67,0,0,1-2.55-1A22.48,22.48,0,0,1,163.7,178.58Zm-3,3a4.8,4.8,0,0,1-.33.57,1,1,0,0,0-.17.58c0,.22.17.33.5.33a5,5,0,0,1,.33-.58,1.07,1.07,0,0,0,.16-.58C161.23,181.65,161.07,181.54,160.74,181.54Zm0,0c.33,0,.49.11.49.32a1.07,1.07,0,0,1-.16.58,5,5,0,0,0-.33.58c-.33,0-.5-.11-.5-.33a1,1,0,0,1,.17-.58A4.8,4.8,0,0,0,160.74,181.54Zm26.64,10.85a21.47,21.47,0,0,1-8.71,7.32,65.58,65.58,0,0,1-11,4,49.45,49.45,0,0,0,1.48,9.21,35.32,35.32,0,0,0,3.45,8.55c1.2,1,2.47,2,3.78,3a7.45,7.45,0,0,0,4.61,1.48,2.84,2.84,0,0,1,2.63,1.4,5.58,5.58,0,0,1,.82,2.88,6.34,6.34,0,0,1-.74,2.8,3.19,3.19,0,0,1-2.22,1.81l-1.48,1a6.55,6.55,0,0,0,.74,3.37,8.68,8.68,0,0,0,1.65,2.06,23.05,23.05,0,0,1,1.64,1.64,2.88,2.88,0,0,1,.74,2,7.4,7.4,0,0,1-1.4,3.53,8.43,8.43,0,0,0-1.4,4.53,14.53,14.53,0,0,0,2.14,7.64,22.6,22.6,0,0,0,5.51,6.17,27,27,0,0,0,7.4,4.11,22.55,22.55,0,0,0,7.82,1.48,11,11,0,0,0,3.53-.65,2.57,2.57,0,0,0,1.89-2.63,6.23,6.23,0,0,0-.33-2,6.71,6.71,0,0,1-.32-2.14,3.3,3.3,0,0,1,.74-2.3,4.44,4.44,0,0,1,1.89-1.23,11.2,11.2,0,0,1,2.46-.58q1.32-.17,2.31-.33v1a27,27,0,0,1-3.05.49,6.61,6.61,0,0,0-2.87,1,3.16,3.16,0,0,0-.5,1.64,5.55,5.55,0,0,0,.25,1.65,5.83,5.83,0,0,1,.25,1.64,12.6,12.6,0,0,1,2-.49,12.6,12.6,0,0,0,2-.49c-1.42,1.53-3,3.07-4.6,4.6a8.17,8.17,0,0,1-5.76,2.3,21.88,21.88,0,0,1-8.55-1.8,28.34,28.34,0,0,1-7.73-4.86,26.24,26.24,0,0,1-5.68-7.07,17.32,17.32,0,0,1-2.22-8.47,6.87,6.87,0,0,1,1.57-3.54l2.38-3.37a20.58,20.58,0,0,0-5.43-3.94v-5.43a10.45,10.45,0,0,1,2.22-1.24,9.54,9.54,0,0,0,2.22-1.23,4,4,0,0,1-.65-2.8,1.83,1.83,0,0,0-1.32-2.13c-2.19-.77-4-1.46-5.26-2.06a11.37,11.37,0,0,1-4.11-3.86,22.19,22.19,0,0,1-2.72-5.19,35.37,35.37,0,0,1-1.4-5.09c-.32-1.7-.68-3.4-1.06-5.1a35.17,35.17,0,0,0-1.73-5.35,4.78,4.78,0,0,0,3.29,1.15,12.77,12.77,0,0,0,5-1.07,26.87,26.87,0,0,0,4.94-2.71q2.39-1.63,4.69-3.29C184.64,194.26,186.07,193.27,187.38,192.39ZM171.1,167.23h1a4.3,4.3,0,0,0,3.2-1.24,4.09,4.09,0,0,0,1.24-3v-.66a11.13,11.13,0,0,0-3,2.14A30,30,0,0,0,171.1,167.23ZM199.22,248a10.14,10.14,0,0,1,7.32,3,9.91,9.91,0,0,1,3.05,7.4,6.25,6.25,0,0,1-3.05,5.68,11.56,11.56,0,0,1-6.16,1.89,14.54,14.54,0,0,1-6.58-1.4,15.42,15.42,0,0,1-4.86-3.78,19.33,19.33,0,0,1-3.29-5.51,29.2,29.2,0,0,1-1.72-6.58,41,41,0,0,1,2.71,5.43,28.86,28.86,0,0,0,3,5.43,16.38,16.38,0,0,0,4.11,4.11,11,11,0,0,0,11.93-.25,6.53,6.53,0,0,0,2.63-5.67,8.17,8.17,0,0,0-8.55-8.56,5.45,5.45,0,0,0-1.89.33,3.51,3.51,0,0,0-1.57,1.15,2.36,2.36,0,0,0-1.31,2.31c0,2.74.66,4.57,2,5.51a14.33,14.33,0,0,0,5.76,2.05v-3.94a3.36,3.36,0,0,0-1.89-1,12.4,12.4,0,0,1-2.06-.5l.49-1a6.17,6.17,0,0,1,5.43,5.43c-.88.32-1.73.65-2.55,1a6.77,6.77,0,0,1-2.55.5,4.34,4.34,0,0,1-4.19-2.39,10.49,10.49,0,0,1-1.23-4.85,7.7,7.7,0,0,1,1-4.28C195.77,248.48,197.14,248,199.22,248Zm-11.84-55.59a16.35,16.35,0,0,1,1.4-1.81c.49-.55,1-1.09,1.56-1.64a6.42,6.42,0,0,1-1.07,2.14A3.53,3.53,0,0,1,187.38,192.39Zm7.4-32.07a23,23,0,0,1,1.73,5.26,20,20,0,0,0,1.15,4.11,7,7,0,0,0,2.47,3.05,13.85,13.85,0,0,0,5.51,1.89c-.55,2-.93,3.37-1.15,4.19a3.93,3.93,0,0,1-.91,1.81,3.47,3.47,0,0,1-1.89.82c-.88.17-2.19.53-3.95,1.07a12.62,12.62,0,0,0-.24,3.21,13.11,13.11,0,0,1-.25,3.21,6.59,6.59,0,0,1-2.3,1.48l-2.63,1c-.22-.54-.44-1.12-.66-1.72a5.49,5.49,0,0,1-.33-1.89,5.1,5.1,0,0,1,.49-2.31,8.94,8.94,0,0,0,.33,2.47c.22.77.44,1.59.66,2.47a19.53,19.53,0,0,0,2.38-1.24c1.05-.6,1.57-1.17,1.57-1.72a12.19,12.19,0,0,0-.83-4.44,20.42,20.42,0,0,1-1.15-4.44l2.55,1.56a12.38,12.38,0,0,1,2.39,1.89,7.23,7.23,0,0,0,3-2.47,21.8,21.8,0,0,0,2-3.45,25.2,25.2,0,0,0-3.78-2,11.14,11.14,0,0,1-3.62-2.46,40.88,40.88,0,0,1-1.56-5.68C195.3,164.08,195,162.18,194.78,160.32Zm28.13,105.1a19.72,19.72,0,0,1,2.22.16c.93.11,1.89.25,2.88.41s1.91.36,2.79.58a5.63,5.63,0,0,1,2,.82,31.12,31.12,0,0,0-3.87,6.58,33.57,33.57,0,0,1-3.21,5.92,16.62,16.62,0,0,1-4.52,4.44,16.81,16.81,0,0,1-7.65,2.3v-1.48a7.74,7.74,0,0,0,1.81.17,8.65,8.65,0,0,0,6.09-2,18.18,18.18,0,0,0,3.62-4.68q1.47-2.71,2.87-5.51a10.14,10.14,0,0,1,3.87-4.28c-.55-.55-1.07-1.1-1.56-1.64a2.45,2.45,0,0,0-1.89-.83c-.55.55-1.07,1.1-1.57,1.65a15.17,15.17,0,0,0-1.39,1.81l-1.48-3.95-1.16,1.15a3.82,3.82,0,0,1-1.31.82,6.14,6.14,0,0,0,.49-2.46ZM218,262a7.55,7.55,0,0,1,2.47,5.43c-.44-.88-.9-1.76-1.4-2.63A10.33,10.33,0,0,1,218,262Z" transform="translate(-13.02 -49.15)"/><path class="a" d="M219.78,231.21q-3.28,5.76-5.92,11.51t-5.43,11.68a41.86,41.86,0,0,1-7.61,11.43A51.27,51.27,0,0,1,190,274.71a58,58,0,0,1-12.79,5.84,44.53,44.53,0,0,1-13.48,2.14A40.17,40.17,0,0,1,152.35,281a31.34,31.34,0,0,0,3.45-3.29,9.61,9.61,0,0,1,3.95-2.63,45.77,45.77,0,0,0,7.07,2.06,37.07,37.07,0,0,0,7.4.74,24.13,24.13,0,0,0,10.53-2.14,25.25,25.25,0,0,0,7.69-5.68A35.86,35.86,0,0,0,198,262q2.34-4.6,4.48-9.54.83-2.13,2.14-4.85t2.71-5.67c.93-2,1.87-3.89,2.8-5.76s1.73-3.56,2.38-5.1v-.33q-4.44,3-8.95,5.92a99,99,0,0,0-8.7,6.42,10.69,10.69,0,0,1-2.74-7.57,21.26,21.26,0,0,1,2-8.14q2-4.68,4.61-9.87c1.72-3.45,3.47-6.91,5.22-10.36a42.32,42.32,0,0,0,3.62-9.46,13.56,13.56,0,0,0-3,.33l-3,.66a30.53,30.53,0,0,1,8.31-5.18q4.51-1.89,9-4.19a46.47,46.47,0,0,1-4,9.78q-3.12,6.16-6.49,12.67t-6.09,12.08q-2.72,5.59-2.71,8.06a18.86,18.86,0,0,0,.49,4.28,64.25,64.25,0,0,0,7-3.37,36,36,0,0,0,6.33-4.52l1.48-3c-.55-.77-1-1.49-1.48-2.14a7.33,7.33,0,0,1-1-2.31,9.33,9.33,0,0,1,2.47.33c.77.22,1.59.44,2.47.66,1-1.64,2.08-3.54,3.29-5.67s2.41-4.36,3.62-6.66,2.3-4.58,3.29-6.83a38.33,38.33,0,0,0,2.13-6,13.34,13.34,0,0,0-3.94,1.23,19.15,19.15,0,0,0-3.46,2.22l-.49-1.48q4.44-3,9.21-5.67a44.76,44.76,0,0,1,10-4.2Z" transform="translate(-13.02 -49.15)"/><path class="a" d="M274.22,187.46a13.79,13.79,0,0,1,3,5.67,55.58,55.58,0,0,0,2,6.17c2.64-2.19,5.29-4.44,8-6.74a20.88,20.88,0,0,1,9.29-4.61,65.78,65.78,0,0,1-5.92,5.26,17.83,17.83,0,0,0-4.93,6.09q-1,2-3.37,6.66t-4.94,9.87q-2.55,5.17-4.44,9.7t-1.89,6a8.06,8.06,0,0,0,1.32,4.27l7.89-4.44a10.08,10.08,0,0,1-2.71,3.78,25.37,25.37,0,0,1-3.7,2.64,27.84,27.84,0,0,1-4.2,2,27.28,27.28,0,0,0-4.19,2,18,18,0,0,1-1.24-6.08,48.39,48.39,0,0,1,.25-6.25c-.33.22-1.07.65-2.22,1.31s-2.55,1.4-4.19,2.22-3.4,1.73-5.27,2.72-3.59,1.89-5.18,2.71-2.93,1.51-4,2.06a11.22,11.22,0,0,1-1.81.82,3.75,3.75,0,0,1-2.22-1.73A13.57,13.57,0,0,1,238,236.3a31,31,0,0,1-.9-3.53,15.84,15.84,0,0,1-.33-2.88,26.71,26.71,0,0,1,3.78-14.23,48.7,48.7,0,0,1,9.38-11.1,91.24,91.24,0,0,1,12.17-9Q268.62,191.41,274.22,187.46Zm-31.09,37.66a17.32,17.32,0,0,0,1,5.92,11,11,0,0,0,3.3,4.77A55.33,55.33,0,0,0,256.7,232a26.14,26.14,0,0,0,6.28-4.69A31.44,31.44,0,0,0,267.7,221q2.07-3.62,4.55-8.88a12.89,12.89,0,0,1-5.49,3.12q-3.31,1-6.47,2a24,24,0,0,0-5.55,2.46,6.38,6.38,0,0,0-2.89,4.77,4.35,4.35,0,0,0,1.48-1,4.38,4.38,0,0,1,1.48-1l1.49,1a16.15,16.15,0,0,0-1.65,1.39,3.18,3.18,0,0,1-1.81,1.07,2.06,2.06,0,0,1-1.4-.49c-.38-.33-.74-.66-1.07-1v-.66a5.58,5.58,0,0,1,2.72-5q2.72-1.72,5.2-3.21a12.66,12.66,0,0,1-2.15-3.37,9.43,9.43,0,0,1-.83-3.87,6.49,6.49,0,0,1,2.46-4.85,7.61,7.61,0,0,1,5.1-2.22,4.84,4.84,0,0,1,3,1.15,3.44,3.44,0,0,1,1.48,2.8,2.29,2.29,0,0,1,.17,1,6.17,6.17,0,0,1-4.61,4.6,1.73,1.73,0,0,1-1.56-1.15c-.39-.77-.69-1.42-.91-2a4.4,4.4,0,0,1,2-.5,6.19,6.19,0,0,0,.49,2.47,5.83,5.83,0,0,0,2.63-5.1l-.16-1.31a17,17,0,0,1-3.95.24,2.68,2.68,0,0,0-3,1.73A5.78,5.78,0,0,0,257,209.5a5.09,5.09,0,0,0,1.56,4.11,6.56,6.56,0,0,0,4.36,1.31,9.27,9.27,0,0,0,4.85-1.23,9.88,9.88,0,0,0,3.29-3.13,13.4,13.4,0,0,0,1.81-4.35,21.36,21.36,0,0,0,.58-4.94,14,14,0,0,0-.67-4.36,7.35,7.35,0,0,0-2.48-3.53l-.82-.5a66.23,66.23,0,0,0-9.18,5.43,50.82,50.82,0,0,0-8.52,7.49,39.62,39.62,0,0,0-6.2,9A22.9,22.9,0,0,0,243.13,225.12Z" transform="translate(-13.02 -49.15)"/><path class="a" d="M309.58,202.26A63.93,63.93,0,0,1,322.82,195q7-2.79,14.39-5.1c-.44.66-1.26,2.12-2.47,4.36s-2.63,4.88-4.27,7.9-3.35,6.25-5.1,9.7-3.37,6.66-4.85,9.62-2.69,5.49-3.62,7.57a15.83,15.83,0,0,0-1.4,3.78,9,9,0,0,0,.74,3c.49,1.27,1.23,1.9,2.22,1.9a6.54,6.54,0,0,0,4.36-1.81,37.74,37.74,0,0,1,4-3.13,9.88,9.88,0,0,1-2.71,3.62,28.41,28.41,0,0,1-4.28,3A45.18,45.18,0,0,1,315,242q-2.47,1.07-4.44,1.73a18.62,18.62,0,0,1-2.14-8.39,21.36,21.36,0,0,1,2.3-8.64q2.29-5,5.26-10.28c2-3.5,3.84-7,5.6-10.44a32.78,32.78,0,0,0,3.29-9.13,20.79,20.79,0,0,0-12.67,5.59,31.63,31.63,0,0,0-7.56,11.68,13.09,13.09,0,0,0,3,1.23,14,14,0,0,1,3,1.24c-.55.55-1.15,1.12-1.81,1.72a3.11,3.11,0,0,1-2.14.91,2.71,2.71,0,0,1-2.22-1.15,23.08,23.08,0,0,0-1.73-2q-.66,1.16-1.89,3.21c-.82,1.37-1.62,2.8-2.38,4.28s-1.43,2.9-2,4.27a9.45,9.45,0,0,0-.82,3.21,5.67,5.67,0,0,0,1.15,3.29q-3.62,2.14-7.07,4.36a66.8,66.8,0,0,1-7.24,4q4.77-10.86,10.53-21.14a188.34,188.34,0,0,0,10.2-21.29l-2-1.48c-1.31.87-2.58,1.78-3.78,2.71a15,15,0,0,1-4.11,2.22,13.73,13.73,0,0,1,3.78-4.19,63.62,63.62,0,0,1,5.67-4,44.83,44.83,0,0,1,6.17-3.21,43.4,43.4,0,0,1,5.59-2,41,41,0,0,1-2.13,6.08Q311.06,199.47,309.58,202.26Z" transform="translate(-13.02 -49.15)"/><path class="a" d="M404.81,245.68a30.32,30.32,0,0,1,8.55-1.15,31,31,0,0,1,8.72,1.15c-2.42,1-4.83,2.08-7.24,3.29a49.27,49.27,0,0,0-6.83,4.11,35.92,35.92,0,0,0-5.83,5.26,26,26,0,0,0-4.28,6.58q-6.25.33-12.34.17c-4.05-.11-8.17-.17-12.33-.17a10.67,10.67,0,0,0-4,.91,19,19,0,0,0-4.2,2.38,15.78,15.78,0,0,0-3.29,3.29,6.4,6.4,0,0,0-1.31,3.79,7,7,0,0,0,.74,3.12,5.24,5.24,0,0,0,2.22,2.3l4.44-1.48a6.79,6.79,0,0,1-1.07,1.73,2.19,2.19,0,0,1-1.73.9,4.75,4.75,0,0,1-4.27-2.3,8.68,8.68,0,0,1-1.48-4.77,7.45,7.45,0,0,1,3.62-6.82,23.62,23.62,0,0,1,8.55-3.05,55.71,55.71,0,0,1,10-.74q5.1.09,8.06.09h3.95a24,24,0,0,0,4-.33,22.14,22.14,0,0,1,3.86-5.92,32.51,32.51,0,0,1,5.26-4.69q2.88-2.06,6-4t6.08-3.7Zm3.94-45.39,1,.49a32.87,32.87,0,0,1-2.05,8.3,67.5,67.5,0,0,1-4.77,10.45,44.25,44.25,0,0,1-6.5,8.88c-2.41,2.52-4.83,3.78-7.24,3.78a4.85,4.85,0,0,1-2.55-.74,9.74,9.74,0,0,0-2.55-1.07,4.69,4.69,0,0,0-1.89,2.22c-.38.94-.74,1.84-1.07,2.72a13.75,13.75,0,0,0-8,2.55,11.78,11.78,0,0,0-4.86,6.82,72.79,72.79,0,0,0,9.21.41q4.61-.07,9.21-.08c2,0,4,0,5.93.08a39.85,39.85,0,0,1,5.75.58,12,12,0,0,1-1.72,1.15,7.5,7.5,0,0,0-1.73,1.32l-1-2.47c-1.53.11-3,.16-4.44.16h-4.44c-3,0-5.92,0-8.88-.08s-5.92-.08-8.88-.08a19.11,19.11,0,0,1,1.89-4.93,9.67,9.67,0,0,1,2.47-2.88,13.23,13.23,0,0,1,3.29-1.81c1.25-.49,2.82-1.07,4.68-1.73.55-.76,1.32-1.75,2.31-3a4,4,0,0,1,3-1.81,4.22,4.22,0,0,1,2.46.82,4.17,4.17,0,0,0,2.47.83q3,0,6.33-3.87a49.14,49.14,0,0,0,6.17-9.05A81,81,0,0,0,407,208Q408.92,202.92,408.75,200.29Zm40-55.27q11.5-.33,22.95-.24t22.94-.74l1.48,4.44a4.36,4.36,0,0,0,2.22-1.32A23.38,23.38,0,0,0,500,145c1.75-.22,3.5-.38,5.26-.49s3.56-.17,5.43-.17,3.7.06,5.51.17,3.64.27,5.51.49a23.33,23.33,0,0,1-5.84,1.56,33.91,33.91,0,0,0-6,1.4,48.22,48.22,0,0,0-11.35,5.76A110,110,0,0,0,476.76,173a54.79,54.79,0,0,0-7.31,10.53,38.84,38.84,0,0,1,6.25,6.74,26,26,0,0,1,3.61,8.56q.49,2.13,1,5a34.45,34.45,0,0,0,1.4,5.51,18,18,0,0,0,2.38,4.69,6.31,6.31,0,0,0,4.11,2.55,12.86,12.86,0,0,1-3.45,3.45,7.92,7.92,0,0,1-4.6,1.48,4.58,4.58,0,0,1-2.88-.82,24.53,24.53,0,0,1-2.39-2.14,7.5,7.5,0,0,0,1.32-1.73,12,12,0,0,1,1.15-1.72,10.63,10.63,0,0,0-3,1.56,3.63,3.63,0,0,0-1.15,3,4.09,4.09,0,0,0,1.56,3.38,10.69,10.69,0,0,1,2.55,2.87,75.51,75.51,0,0,1-9,6.17q-5.36,3.21-11.27,6t-11.76,5.18c-3.89,1.59-7.38,2.88-10.44,3.87s-6.12,2.08-9.13,3.29a59.86,59.86,0,0,0-8.64,4.28,48.25,48.25,0,0,0-7.65,5.67,34.39,34.39,0,0,0-6.16,7.48c3.94.33,7.84.5,11.67.5h22q5.26,0,10.28-.41c3.35-.28,6.77-.42,10.28-.42,1.87,0,3.76.06,5.68.17a48.46,48.46,0,0,1,5.67.66,19.92,19.92,0,0,1-6.58.9,30.75,30.75,0,0,0-6.74.58,11,11,0,0,0-4.61,1.81,15.79,15.79,0,0,1-4.27,2.13,16.2,16.2,0,0,1-4.2-2.22,9.15,9.15,0,0,0-4.19-1.72,50.37,50.37,0,0,0-7.15-.5h-7.16q1.15,2,2.47,4.12a8.67,8.67,0,0,1,1.31,4.6,10.49,10.49,0,0,1-1.48,5.35,18.42,18.42,0,0,1-3.7,4.52,17.3,17.3,0,0,1-5,3.12,14.23,14.23,0,0,1-5.43,1.16,13.79,13.79,0,0,1-5-1,16.16,16.16,0,0,1-4.52-2.63,13.22,13.22,0,0,1-3.21-3.95,10.33,10.33,0,0,1-1.23-4.93,19.6,19.6,0,0,1,.66-5.1c.43-1.65.93-3.24,1.48-4.77q-6.25,0-12.67-.08t-12.83-.09a13.38,13.38,0,0,0-2.05.17,12.38,12.38,0,0,0-2.06.49,8.84,8.84,0,0,1,.49,1.73,9,9,0,0,0,.5,1.72,6.51,6.51,0,0,1-2-.32c-.65-.23-1.31-.44-2-.66a19.82,19.82,0,0,0,1.48-2.55c.33-.72,1.15-1.18,2.47-1.4a84.42,84.42,0,0,1,10.52-.66h15.05a32,32,0,0,0,4.53-.33,31.22,31.22,0,0,1,9.21-11.34,51.75,51.75,0,0,1,11.76-6.42q6.33-2.46,12.91-4.44a58.05,58.05,0,0,0,12.5-5.43c-.66.11-1.32.2-2,.25s-1.37.08-2.13.08a17.85,17.85,0,0,1-11-3.45q-4.61-3.45-4.61-10.36a20.13,20.13,0,0,1,2.72-10.28,43.11,43.11,0,0,1,6.66-8.72,100.05,100.05,0,0,1,8.38-7.65,84.43,84.43,0,0,0,7.9-7.24v.66a8.46,8.46,0,0,1-2,5.43,18.13,18.13,0,0,0-3,5.26,20.64,20.64,0,0,0,2.64,2,16.59,16.59,0,0,1,2.3,1.72,7.72,7.72,0,0,1,1.64,2.22,7.33,7.33,0,0,1,.66,3.29,10.54,10.54,0,0,1-.9,4.11,16.08,16.08,0,0,1-2.39,3.95,14.68,14.68,0,0,1-3.37,3,7.21,7.21,0,0,1-4,1.24,5.91,5.91,0,0,1-3.95-1.4,4.62,4.62,0,0,1-1.64-3.7,7.43,7.43,0,0,1,1.48-4,4.42,4.42,0,0,1,3.78-2.22,2.34,2.34,0,0,1,2.06,1.15,4.28,4.28,0,0,1,.74,2.3c0,1.65-.69,2.58-2.06,2.8a24.44,24.44,0,0,1-3.86.33,6.93,6.93,0,0,0,2,3,5,5,0,0,0,1.48.16,5.85,5.85,0,0,0,3.37-1.06,9.61,9.61,0,0,0,2.63-2.72,15.71,15.71,0,0,0,1.73-3.54,10.67,10.67,0,0,0,.66-3.53,6,6,0,0,0-2-4.61,4.32,4.32,0,0,0-2.13-1.81,7.68,7.68,0,0,0-2.63-.49,13.43,13.43,0,0,0-7.16,2,19,19,0,0,0-5.43,5,23,23,0,0,0-3.37,6.74,24.49,24.49,0,0,0-1.15,7.32,9.39,9.39,0,0,0,1.15,4.69,12.32,12.32,0,0,0,3,3.54,14.11,14.11,0,0,0,8.88,3.12,20.1,20.1,0,0,0,11.6-3.94,43.66,43.66,0,0,0,10-9.79,54.13,54.13,0,0,0,7-12.42,32.51,32.51,0,0,0,2.63-12,19.56,19.56,0,0,0-1.72-8.22,23.59,23.59,0,0,0-4.86-6.91,43,43,0,0,1-2.3,4.61,9.73,9.73,0,0,0-1.31,4.93,7.15,7.15,0,0,0,.41,2.47,7.4,7.4,0,0,1,.41,2.47,2.82,2.82,0,0,1-.08.65,2.56,2.56,0,0,0-.09.66h-3.94l-.17-1.81a15.59,15.59,0,0,1,2.14-8,43.29,43.29,0,0,0,3.45-7.49,25.72,25.72,0,0,0-14.31-4.27A23.44,23.44,0,0,0,444,181a30.25,30.25,0,0,0-7.15,4,26.29,26.29,0,0,0-4.52,4.69,85.93,85.93,0,0,0-5.18,7.32q-2.64,4.11-5.19,8.88t-4.52,9.21a80.48,80.48,0,0,0-3.21,8.39,22.69,22.69,0,0,0-1.23,6.41,9.76,9.76,0,0,0,.25,2.63,3,3,0,0,0,.74,1.32,6.76,6.76,0,0,0,1.31,1,9.65,9.65,0,0,1,1.81,1.47,8.41,8.41,0,0,0,2.22-1,8.94,8.94,0,0,1,2.22-1,6.76,6.76,0,0,0,.25,1.73,6.76,6.76,0,0,1,.25,1.73,12.21,12.21,0,0,1,3.78.65,6,6,0,0,1,3.12,2.31q-6.41.5-12.66.49c-1.54,0-3,0-4.52-.08a44.82,44.82,0,0,1-4.53-.41,7,7,0,0,1-.16-1.65,13.08,13.08,0,0,0-.16-2,3.85,3.85,0,0,0-.66-1.65,1.76,1.76,0,0,0-1.48-.65,2.46,2.46,0,0,0-1.81.65,5,5,0,0,0-1.07,1.65c-.28.66-.52,1.31-.74,2a5.78,5.78,0,0,1-.82,1.65q-2.31.17-4.53.24c-1.48.06-3,.09-4.52.09H388c-1.37,0-2.74-.06-4.11-.17a21,21,0,0,1-3.87-.66,6.07,6.07,0,0,1-2.79-1.48l3.7-.66a22.47,22.47,0,0,1,3.7-.32q.5-1,.9-2a11.23,11.23,0,0,1,1.07-2,8,8,0,0,0,2.22,1.31,6.77,6.77,0,0,0,2.55.5q3.94,0,8-4a45.31,45.31,0,0,0,7.23-9.37,68.37,68.37,0,0,0,5.27-11,27.8,27.8,0,0,0,2.05-9.05,7.31,7.31,0,0,0-1.72-4.85c-1.16-1.37-2.28-2.72-3.38-4a15.86,15.86,0,0,1,3.21-2.22,7.91,7.91,0,0,1,3.7-.91,5.74,5.74,0,0,1,3.7,1.24,4.24,4.24,0,0,1,1.57,3.53,12.09,12.09,0,0,1-.25,2.47c-.17.77-.36,1.54-.58,2.3a8.93,8.93,0,0,0,2.31-6.08A10.53,10.53,0,0,0,420.6,188a26.16,26.16,0,0,0,5.51-5.51,58.63,58.63,0,0,0,5.26-8.14,56,56,0,0,0,3.86-8.88,24.91,24.91,0,0,0,1.48-7.73,7.4,7.4,0,0,0-1.56-4.86,5.76,5.76,0,0,0-4.69-1.89,4.12,4.12,0,0,0-3.2,1.65,4.11,4.11,0,0,1-3.21,1.64,2.41,2.41,0,0,1-1.89-.65,3.22,3.22,0,0,1-.74-1.65,12.45,12.45,0,0,1-.17-2.06,9.73,9.73,0,0,0-.16-1.89l-6.41-3a23.81,23.81,0,0,1,3.94-.33h3.95q5.6,0,11.1.33a93.42,93.42,0,0,0,11.1,0l-1.48,4.44a7.52,7.52,0,0,0,3.95,1,6.52,6.52,0,0,0,1-2.71A21.76,21.76,0,0,1,448.72,145ZM403.33,246.67c0,2.63-.61,4.11-1.81,4.44a20.41,20.41,0,0,1-5.1.49,3.05,3.05,0,0,1-.74-1.23,3.13,3.13,0,0,0-.74-1.24c1,.33,1.94.69,2.88,1.07a15.89,15.89,0,0,0,3,.91,10,10,0,0,0,1.23-2.22A10,10,0,0,1,403.33,246.67Zm-3.62,32.23a10.75,10.75,0,0,0,3.78,8.64,13.53,13.53,0,0,0,9.05,3.21,14.31,14.31,0,0,0,4.93-.91,15.51,15.51,0,0,0,4.44-2.47,12.43,12.43,0,0,0,3.21-3.78,9.85,9.85,0,0,0,1.23-4.85,9.56,9.56,0,0,0-2.14-5.92,6.68,6.68,0,0,0-5.59-2.8,8.89,8.89,0,0,0-6,2.39,7.31,7.31,0,0,0-2.71,5.67,9.14,9.14,0,0,0,.32,2.14h3.95c.22-.88.38-1.73.5-2.55a5.11,5.11,0,0,1,1-2.38,4,4,0,0,1,1.32-.17,11,11,0,0,1,1.4.08,7.9,7.9,0,0,0,1.23.09,12.71,12.71,0,0,1-3,5.92,10,10,0,0,1-3.78.82,3.51,3.51,0,0,1-3.05-1.24,7.27,7.27,0,0,1-1.23-3,26.51,26.51,0,0,1-.41-3.7,16.8,16.8,0,0,0-.41-3.21,4.71,4.71,0,0,0-3.46-1.31,2.77,2.77,0,0,0-2.22,1.07,7.47,7.47,0,0,0-1.39,2.55,17.78,17.78,0,0,0-.74,3.12A18.07,18.07,0,0,0,399.71,278.9Zm12.5-92.1,1.48.16a12.68,12.68,0,0,0-6.09,2.47,6.61,6.61,0,0,0-3,5.59,4.82,4.82,0,0,0,.91,2.8c.6.88,1.17,1.7,1.72,2.47a11.82,11.82,0,0,1-2.38-2,3.91,3.91,0,0,1-1.07-2.79,8.91,8.91,0,0,1,2.3-6.17A7.81,7.81,0,0,1,412.21,186.8Zm111.35-35.69a103.36,103.36,0,0,0-14.31,4.27,62.93,62.93,0,0,0-13.16,6.91l1.48,4c-.44.44-.88.9-1.32,1.4a10.11,10.11,0,0,0-1.15,1.56l-5.43-1.48q-3.78,3.28-7.15,6.83a34.09,34.09,0,0,0-5.67,8,13.63,13.63,0,0,0,1.89,3.7c.82,1.15,1.61,2.31,2.38,3.46a29.93,29.93,0,0,1,2.06,3.62,11.3,11.3,0,0,1,1.07,4,79.64,79.64,0,0,1-4.28-7.24,43.32,43.32,0,0,0-4.6-7.07,59.28,59.28,0,0,1,6.82-9q3.87-4.19,8-8.3a5,5,0,0,1,1.48,1.31c.55.66,1,1,1.48,1a2.53,2.53,0,0,0,1-.33,2.49,2.49,0,0,0,2-1l-1.48-4.44L505.55,156a45.91,45.91,0,0,1,11.76-4.6c.87-.22,2-.52,3.37-.91a26.4,26.4,0,0,0,4-1.48,11.48,11.48,0,0,0,3.37-2.3,4.42,4.42,0,0,0,1.4-3.21,4.2,4.2,0,0,0-.82-2.46,2.68,2.68,0,0,0-2.31-1.16,2.42,2.42,0,0,0-2.22,1.24c-.49.82-1,1.62-1.4,2.38a11.14,11.14,0,0,1-1.31-2.38,4.57,4.57,0,0,0-1.65-2.06,2.8,2.8,0,0,0-1.31,1.07,10.06,10.06,0,0,1-1.15,1.4q-9.37.33-18.75.41t-18.75.08c-1.1,0-2.17,0-3.21-.08a21.7,21.7,0,0,1-3.21-.41l1.32-2.3a5,5,0,0,0,.66-2.47,4.69,4.69,0,0,0-1.65-3.62,5.28,5.28,0,0,0-3.62-1.48,5,5,0,0,0-2.79.66,3.53,3.53,0,0,0-1.4,1.73,9.76,9.76,0,0,0-.58,2.38L465,139.1l-3-4.44a4.86,4.86,0,0,0-1.81.33l-1.64.66c.77,1.86,1.42,3.67,2,5.43a135.18,135.18,0,0,1-18.25,1.06q-9.21-.07-18.26-.08-3.12,0-6.5-.16a38.62,38.62,0,0,1-6.33-.82,12,12,0,0,1-.16,2,11.09,11.09,0,0,0-.17,1.81,5.17,5.17,0,0,0,2.06,4.36,32.73,32.73,0,0,0,4.19,2.71,9.85,9.85,0,0,0-.16,2.14,9.58,9.58,0,0,0,2.14,6.25,22.67,22.67,0,0,0-1.65-2.14,6,6,0,0,1-1.31-2.3,9.25,9.25,0,0,0-1.57-3.21,33.82,33.82,0,0,0-2.22-2.63,19.36,19.36,0,0,1-2-2.47,5,5,0,0,1-.82-2.88,5.6,5.6,0,0,1,.49-2.38c.33-.71.71-1.45,1.15-2.22a71.76,71.76,0,0,0,11.84,1h17.77q8.88,0,17.76-.5c-.22-.87-.44-1.78-.66-2.71a11.82,11.82,0,0,1-.33-2.72,5.76,5.76,0,0,1,3.29-1.15,7.26,7.26,0,0,1,1.57.17,10.25,10.25,0,0,1,1.56.49c1-1,1.89-1.86,2.71-2.63a5,5,0,0,1,3.54-1.15,5.89,5.89,0,0,1,3.62.9,5,5,0,0,1,1.64,2.31,8,8,0,0,1,.41,3.12c-.06,1.15-.08,2.28-.08,3.37q6.25,0,12.33.08t12.34.09q3.12,0,6.17-.17a57.72,57.72,0,0,1,6.17,0,6.81,6.81,0,0,0,3.61-.9,6.24,6.24,0,0,1,3.29-.91c1.21,0,2.69.08,4.44.25s3.24.36,4.45.58a4,4,0,0,1,1.56,3.12,26.51,26.51,0,0,0,.41,3.78Zm-93.1,9.7a56.37,56.37,0,0,1-2.13,5.84q-1.65,4-3.79,8.31a49.66,49.66,0,0,1-4.52,7.48q-2.38,3.21-4.19,3.21l-2.14-.17c1-.54,2-1,3-1.48a6.07,6.07,0,0,0,2.47-2A56.84,56.84,0,0,0,425,171.67Q427.5,166.08,430.46,160.81Zm54.28,37.5a30.35,30.35,0,0,1,2.72,5.51,34.9,34.9,0,0,0,2,4.61,15.47,15.47,0,0,0,2.88,3.86,16.14,16.14,0,0,0,5.75,3.29c-.22,1.1-.38,2-.49,2.63a4.71,4.71,0,0,1-1.48,2.31,29.86,29.86,0,0,1-2.8,2.46,19.41,19.41,0,0,0-2.63,2.47,10.33,10.33,0,0,0-1.81,3,3.13,3.13,0,0,1-2.63,2l-1,.17a4.67,4.67,0,0,1-2.13-.5,9.28,9.28,0,0,1-1.81-1.15q-2.48,2.15-5,4.44a31.92,31.92,0,0,1-5.35,3.95A87.34,87.34,0,0,1,460,242.8c-3.78,1.59-7.6,3.07-11.43,4.44s-7.71,2.72-11.6,4-7.7,2.74-11.43,4.28a48.5,48.5,0,0,0-5.84,3.29,9.32,9.32,0,0,0-4,5.1,14.82,14.82,0,0,1,3.21.33l3.21.65a4.82,4.82,0,0,1-3,1,11.82,11.82,0,0,1-2.72-.33l-2.71-.66a13.25,13.25,0,0,1,5.92-7,61,61,0,0,1,8.39-4.35q10.68-4.29,21.3-7.9a117.69,117.69,0,0,0,20.64-9.38,49.49,49.49,0,0,0,6.17-4.35,66.16,66.16,0,0,1,6.16-4.53c.33.44.69.94,1.07,1.48a1.69,1.69,0,0,0,1.4.83,7.13,7.13,0,0,0,2.06-.5,9.81,9.81,0,0,0,1.89-.82,10.89,10.89,0,0,1-.41-2.22q-.09-1.06-.09-2.22a15,15,0,0,0,4.61-1.48,11.33,11.33,0,0,0,3.78-3,5.4,5.4,0,0,0,.33-1.32,2.54,2.54,0,0,0-.74-1.89,8.28,8.28,0,0,0-1.73-1.31,22,22,0,0,0-2.05-1.07,4.64,4.64,0,0,1-1.73-1.32,24.21,24.21,0,0,1-3.7-6.82A50.08,50.08,0,0,1,484.74,198.31Zm-46.38,3.95a35,35,0,0,0-2.63,3.21q-1.82,2.39-3.87,4.93T428,214.92a7.91,7.91,0,0,1-2.47,2.14,6.3,6.3,0,0,1-.82.33.65.65,0,0,0-.5.66v.57q0,.09.33.42a6.55,6.55,0,0,1,1.16,4.19c-.12,1.48-.17,3-.17,4.52a11.41,11.41,0,0,0,.91,4.69,15,15,0,0,0,2.38,3.78,20.51,20.51,0,0,0,3.37,3.13q1.89,1.4,3.7,2.88A14.34,14.34,0,0,1,431,244c-1.76.28-3.57.52-5.43.74a25,25,0,0,1,4.19-1.23,27.47,27.47,0,0,0,4.2-1.23c-1.21-1.21-2.41-2.39-3.62-3.54s-2.47-2.27-3.78-3.37l-2,.49a11,11,0,0,1,.09-1.48,5.84,5.84,0,0,1,.41-1.48,3.3,3.3,0,0,0-1.57-.25,12.85,12.85,0,0,1-1.56.09,4.61,4.61,0,0,1-2.63-.58,3.42,3.42,0,0,1-1.23-1.56,7,7,0,0,1-.5-2.22,11.17,11.17,0,0,0-.41-2.39,6.44,6.44,0,0,1,.74,1.81,9.42,9.42,0,0,0,.66,1.81,4.39,4.39,0,0,0,1.07,1.4,2.93,2.93,0,0,0,2,.58c.55,0,1.13,0,1.73-.09s1.18-.08,1.73-.08q-.33-3.62-.58-7.24a28.05,28.05,0,0,0-1.4-7.07,14.8,14.8,0,0,0,4.61-3.37c1.09-1.26,2.11-2.55,3-3.86s2-2.64,3-4A16.18,16.18,0,0,1,438.36,202.26Zm-10.86,6.91a40.41,40.41,0,0,0-9.86,16.28,18.75,18.75,0,0,1,2.79-9.54A16,16,0,0,1,427.5,209.17Zm-6.9-48.36a8.14,8.14,0,0,0,2.46-1.07,7.11,7.11,0,0,0,2-1.89c0,.55,0,1.13-.08,1.73a6.35,6.35,0,0,1-.42,1.73,8.38,8.38,0,0,1-2-.25A7.88,7.88,0,0,0,420.6,160.81Zm32.89,98.36a4.7,4.7,0,0,1,2.14.49,15.55,15.55,0,0,0,2,.82,7,7,0,0,0-.41,2.72,4.07,4.07,0,0,1-1.07,2.71,14.88,14.88,0,0,1,.09-1.64c.05-.55.08-1.1.08-1.65a5.73,5.73,0,0,0-.08-.82,4.82,4.82,0,0,1-.09-.82,1.77,1.77,0,0,0-1.64-.83,5.9,5.9,0,0,0-1.65.25,15.29,15.29,0,0,0-1.64.58v3.45q-8.24.49-16.61.49c-2,0-4,0-6-.08s-4-.19-6-.41a66.72,66.72,0,0,1,10.44-.49c3.46.1,6.94.16,10.45.16h3c1,0,2.11-.06,3.21-.16.33-1,.71-2,1.15-3.13A2.55,2.55,0,0,1,453.49,259.17ZM427,156.86l3,.5.49,2a5.71,5.71,0,0,0-1.72-1.23A5.79,5.79,0,0,1,427,156.86Zm25.82,28.29a23,23,0,0,1,4.69.5,13.88,13.88,0,0,1,4.52,1.81l-2.46,1.48a4.37,4.37,0,0,0-3.21-2.47,26.45,26.45,0,0,0-4.2-.33,22.81,22.81,0,0,0-6.74,1.07,29.29,29.29,0,0,0-6.66,3,33.86,33.86,0,0,0-5.84,4.53,17.75,17.75,0,0,0-3.95,5.51,4.89,4.89,0,0,0-.24,2.71,18.23,18.23,0,0,1,.24,2.71,4.11,4.11,0,0,1-1.48,3.46l-.16-4.61a13.17,13.17,0,0,1,2.55-7.73,24,24,0,0,1,6.41-6.17,35.88,35.88,0,0,1,8.31-4A26.32,26.32,0,0,1,452.83,185.15Zm-19.4-.65a77.78,77.78,0,0,1,9-4.44,24.89,24.89,0,0,1,9.78-2,23.06,23.06,0,0,1,8.23,1.32q3.45,1.32,7.56,3.12,1.65-2.62,4.61-6.66t5.92-8.3a79.49,79.49,0,0,0,5.1-8.39,16,16,0,0,0,2.14-7.07,4.34,4.34,0,0,0-1-3,6.49,6.49,0,0,0-2.47-1.64,11.61,11.61,0,0,0-3.2-.74c-1.15-.11-2.22-.17-3.21-.17H467a18.83,18.83,0,0,0-12,4,43.83,43.83,0,0,0-9.05,9.87,82.23,82.23,0,0,0-6.9,12.42Q436.05,179.41,433.43,184.5Zm35,10.85a9.94,9.94,0,0,1,1.31,5.26,30.84,30.84,0,0,1-2,10.45,44,44,0,0,1-5.59,10.61,34.34,34.34,0,0,1-8.23,8.22,17,17,0,0,1-9.95,3.29,8.7,8.7,0,0,1-6.58-2.39,9.18,9.18,0,0,1-2.3-6.66,12.18,12.18,0,0,1,1.07-4.93,14.81,14.81,0,0,1,3-4.44,17.77,17.77,0,0,1,4.28-3.29,9.87,9.87,0,0,1,4.85-1.32,1.7,1.7,0,0,1,1.81,1.48,22.79,22.79,0,0,0,.66,2.47,10.16,10.16,0,0,0-1.16-1.81l-1.31-1.64a9.58,9.58,0,0,0-4.36,1.56,19.61,19.61,0,0,0-4,3.37,18.62,18.62,0,0,0-3,4.28,9.88,9.88,0,0,0-1.15,4.44,7.47,7.47,0,0,0,2.47,5.84,8.52,8.52,0,0,0,5.92,2.22,14,14,0,0,0,6.9-1.73,18.12,18.12,0,0,0,5.35-4.44,20.46,20.46,0,0,0,3.45-6.17,20.22,20.22,0,0,0,1.24-6.91,5.77,5.77,0,0,0-.83-3.12,20.36,20.36,0,0,0-1.81-2.47,24,24,0,0,1-1.8-2.38,5.07,5.07,0,0,1-.83-2.88,2,2,0,0,1,.17-.74,2,2,0,0,0,.16-.74,10.15,10.15,0,0,0,2.63,3.53,6.11,6.11,0,0,0,4.12,1.4,5.5,5.5,0,0,0,3.61-1,5.45,5.45,0,0,0,1.65-2.55,9.76,9.76,0,0,0,.41-3.37C468.48,197.6,468.46,196.45,468.46,195.35Zm-30.1,6.91c1.42-1.21,2.8-2.41,4.11-3.62a32.37,32.37,0,0,1,4.28-3.29,16.09,16.09,0,0,1-3.7,4A24.85,24.85,0,0,1,438.36,202.26Zm1-10.86a5.25,5.25,0,0,1,2-1.23,8.1,8.1,0,0,1,2.55-.41,5.61,5.61,0,0,1,.82.08,5.51,5.51,0,0,0,1,.08,3.74,3.74,0,0,1,1,2.31,16.26,16.26,0,0,0,.49,2.63c-.55-.77-1-1.48-1.48-2.14a7.28,7.28,0,0,1-1-2.3,15.45,15.45,0,0,1-2.55.57,2.07,2.07,0,0,0-1.89,1.4,2.43,2.43,0,0,0-.66,2.14,18.88,18.88,0,0,1,.17,2.3,20.08,20.08,0,0,0-.74-1.89,4.83,4.83,0,0,1-.41-2.06Zm1.48,4.94c.54-.33,1.09-.69,1.64-1.07a7.49,7.49,0,0,1,1.81-.91,13.46,13.46,0,0,1-1.56,1.32A3.19,3.19,0,0,1,440.83,196.34Zm31.74-45.23c1,0,1.95,0,2.88.08s1.89.14,2.88.25q-8.24.66-13,1.39a20.49,20.49,0,0,0-8,2.8,19.49,19.49,0,0,0-5.84,6.25q-2.64,4.2-6.75,11.76c2,0,4-.08,5.93-.25s3.94-.24,5.92-.24a14.53,14.53,0,0,1,4.6.82,27.24,27.24,0,0,0,4.77,1.15q3.12-3.78,6.33-7.73t6-8.06a5.8,5.8,0,0,0,1.07-3.62q-.09-2-.09-3.78l2,1.48a16.64,16.64,0,0,1-2.14,5.51,70.23,70.23,0,0,1-4.19,6.5c-1.6,2.19-3.21,4.27-4.86,6.25L466,176.6q-2.81-1-5.67-1.89a19.49,19.49,0,0,0-5.84-.9,26.6,26.6,0,0,0-5.84.65c-1.92.44-3.87.83-5.84,1.15q2.47-5.75,4.93-10.28a32.66,32.66,0,0,1,5.76-7.73,21.79,21.79,0,0,1,7.81-4.85A33.47,33.47,0,0,1,472.57,151.11Zm-15,40.79c.66,0,.88.33.66,1l-.66,1a.75.75,0,0,1-.49-.82Zm9.87,65.62v-1a3.82,3.82,0,0,1,1.81-3.46,7.2,7.2,0,0,1,4-1.15,8.42,8.42,0,0,1,4.52,1.4,4.48,4.48,0,0,1,2.22,4,6.23,6.23,0,0,1-1.07,3.86,7,7,0,0,1-2.71,2.14,11.07,11.07,0,0,1-3.62.91c-1.32.1-2.58.16-3.78.16a73.08,73.08,0,0,1-8.72-.49,37.68,37.68,0,0,1,5-.33c1.7,0,3.37-.06,5-.17a21.35,21.35,0,0,0,4.86-.9,11.58,11.58,0,0,0,4.35-2.55,22.75,22.75,0,0,0-1.56-5.18c-.6-1.26-2.28-1.89-5-1.89a6.17,6.17,0,0,0-2.79.74,2.47,2.47,0,0,0-1.48,2.38,1.8,1.8,0,0,0,1.48,1.89,8.83,8.83,0,0,1,2.47,1.07v-3a2.75,2.75,0,0,0,1.06,1.32,8.91,8.91,0,0,1,1.4,1.15,9.5,9.5,0,0,0-2.22.25,10.07,10.07,0,0,1-2.22.24A3.32,3.32,0,0,1,467.47,257.52Zm-6.91-50.33a18.29,18.29,0,0,0,.91,3.13,9.09,9.09,0,0,1,.57,3.29,13.92,13.92,0,0,1-.57,4,29.66,29.66,0,0,0-.91,3.86,23.42,23.42,0,0,0,4.69-7.73c1-2.85,1.95-5.7,2.71-8.55a17.86,17.86,0,0,1-3.7,1.23C463,206.73,461.77,207,460.56,207.19Zm5.43-67.1a9.25,9.25,0,0,0,3.46-2v2.47a12.25,12.25,0,0,1-1.81-.08A15.68,15.68,0,0,1,466,140.09Z" transform="translate(-13.02 -49.15)"/><path class="a" d="M531.29,186.47c.65,1.54,1.31,3.12,2,4.77a13.58,13.58,0,0,1,1,5.1,18.36,18.36,0,0,1-6.66,15,29.45,29.45,0,0,1-6.17,3.94c-2.2,1-4.25,2-6.17,2.88a23.74,23.74,0,0,0-4.77,2.8,4.61,4.61,0,0,0-1.89,3.78v2.14a19.24,19.24,0,0,0,1.89-1.07,7.88,7.88,0,0,1,2.06-.9,6.21,6.21,0,0,1-.33,2l-.66,2a11.65,11.65,0,0,0-3.21-1.23q-2.22-.57-2.22-2.22a6.09,6.09,0,0,1,2.22-4.85q2.22-1.89,4.2-3.54a17.06,17.06,0,0,0-1.65-2.88,5.39,5.39,0,0,1-1-3.2,8.46,8.46,0,0,1,2.3-5.51,6.07,6.07,0,0,1,8.39-1.73,2.88,2.88,0,0,1,1.81,2.47,5.91,5.91,0,0,1-1.16,3.45,3.61,3.61,0,0,1-3.12,1.65,1.72,1.72,0,0,1-.58-.09,1.91,1.91,0,0,0-.57-.08l-1.48-3a10.65,10.65,0,0,0,2.22.41c.71.06,1.45.08,2.22.08v-4.93a9.23,9.23,0,0,0-6,1.81q-2.22,1.81-2.22,5.92,0,4.44,4.77,4.44a8,8,0,0,0,5-1.73,15.19,15.19,0,0,0,3.7-4.19,22.22,22.22,0,0,0,2.3-5.35,19.44,19.44,0,0,0,.83-5.34,10.22,10.22,0,0,0-.33-2.22,12.52,12.52,0,0,0-1-2.72,10.33,10.33,0,0,0-1.56-2.3,2.59,2.59,0,0,0-1.89-1,2.71,2.71,0,0,0-1.15.32,28.22,28.22,0,0,0-8,5.18,36.64,36.64,0,0,0-6.42,7.73,41.86,41.86,0,0,0-4.27,9.13,29.81,29.81,0,0,0-1.57,9.38,16.39,16.39,0,0,0,5.93,13,67.48,67.48,0,0,1,7.89-3.95,18.41,18.41,0,0,1-7.32,5.68,93.84,93.84,0,0,0-8.47,4.19q-1.32-2.62-2.88-6.58a18.9,18.9,0,0,1-1.56-6.74,35.09,35.09,0,0,1,3-14.39,45,45,0,0,1,7.9-12.09A52.25,52.25,0,0,1,518,192.56,58.07,58.07,0,0,1,531.29,186.47Z" transform="translate(-13.02 -49.15)"/><path class="a" d="M596.25,147.33a10.55,10.55,0,0,1,7.08,2.38,8.5,8.5,0,0,1,2.79,6.83,7.61,7.61,0,0,1-2,4.85,18.86,18.86,0,0,1-3.95,3.7,11.71,11.71,0,0,1-4.6,1.89c-1.87.39-3.87.74-6,1.07s-4.27.68-6.41,1.07a20.1,20.1,0,0,0-5.76,1.89,11.55,11.55,0,0,0-4.19,3.62,10.53,10.53,0,0,0-1.65,6.25,13.05,13.05,0,0,1,2-.5,12.06,12.06,0,0,0,2-.49,8.37,8.37,0,0,0-.49,1.73,8.76,8.76,0,0,1-.5,1.72c-.88-.21-1.72-.46-2.55-.74a8.85,8.85,0,0,1-2.38-1.23,16.3,16.3,0,0,1,2.14-6.33A13.73,13.73,0,0,1,576,170.6a23.44,23.44,0,0,1,5.76-2.72,32.37,32.37,0,0,1,6.58-1.31q-.66-1.14-1.56-2.43a4.49,4.49,0,0,1-.91-2.6,3.81,3.81,0,0,1,.91-2.43,10.12,10.12,0,0,1,2.22-2,14,14,0,0,1,2.79-1.46,7.68,7.68,0,0,1,2.63-.56,5,5,0,0,1,2.64.81,2.68,2.68,0,0,1,1.31,2.43l-.16,1a6.48,6.48,0,0,1-2.39,1.95,13.69,13.69,0,0,1-3,1l-.49-1a5.6,5.6,0,0,0,2-1,5.76,5.76,0,0,1,2-1c-.22-.43-.49-1-.82-1.78s-.77-1.14-1.31-1.14a5.37,5.37,0,0,0-2,.49,15.42,15.42,0,0,0-2.3,1.21,7.12,7.12,0,0,0-1.89,1.71,3,3,0,0,0-.74,1.78c0,1.84.49,3.08,1.48,3.73a7.05,7.05,0,0,0,3.94,1,10.22,10.22,0,0,0,4.2-.91,15,15,0,0,0,3.78-2.38,12.39,12.39,0,0,0,2.8-3.45,8.88,8.88,0,0,0,1.07-4.28,5.31,5.31,0,0,0-3.21-5.26,15.32,15.32,0,0,0-6.5-1.48,20.79,20.79,0,0,0-9.7,2.38,32.75,32.75,0,0,0-12.75,11.68c-1.26,2-2.49,4.19-3.7,6.5-.66,1.2-1.86,3.48-3.62,6.82s-3.78,7.18-6.08,11.51-4.72,9-7.24,13.9-4.85,9.52-7,13.74-3.89,7.89-5.26,11-2.06,5.12-2.06,6a10.91,10.91,0,0,0,1.65,5.59,11.88,11.88,0,0,0,5.1-1.81,40.94,40.94,0,0,1,4.77-2.63,14,14,0,0,1-3.79,3.7A37.71,37.71,0,0,1,541,239.1q-2.15,1-4.36,1.89a21.89,21.89,0,0,0-4.52,2.55,12.16,12.16,0,0,1-2.63-7.56,15.68,15.68,0,0,1,.9-5.1,52.94,52.94,0,0,1,2.14-5.27q1.23-2.62,2.63-5a42.41,42.41,0,0,0,2.39-4.69q5.43-11.35,11.26-22.45T560.23,171a42.88,42.88,0,0,1,6.25-9.21,44.91,44.91,0,0,1,18.75-12.58A33.29,33.29,0,0,1,596.25,147.33Z" transform="translate(-13.02 -49.15)"/><path class="a" d="M632.44,147.33a10.52,10.52,0,0,1,7.07,2.38,8.5,8.5,0,0,1,2.79,6.83,7.56,7.56,0,0,1-2,4.85,18.86,18.86,0,0,1-4,3.7,11.71,11.71,0,0,1-4.6,1.89c-1.87.39-3.87.74-6,1.07s-4.27.68-6.41,1.07A20.1,20.1,0,0,0,613.6,171a11.55,11.55,0,0,0-4.19,3.62,10.53,10.53,0,0,0-1.65,6.25,13.05,13.05,0,0,1,2-.5,11.82,11.82,0,0,0,2-.49,9,9,0,0,0-.49,1.73,8.76,8.76,0,0,1-.5,1.72c-.87-.21-1.72-.46-2.54-.74a8.76,8.76,0,0,1-2.39-1.23,16.3,16.3,0,0,1,2.14-6.33,13.66,13.66,0,0,1,4.28-4.44,23.2,23.2,0,0,1,5.75-2.72,32.37,32.37,0,0,1,6.58-1.31q-.66-1.14-1.56-2.43a4.49,4.49,0,0,1-.91-2.6,3.81,3.81,0,0,1,.91-2.43,10.12,10.12,0,0,1,2.22-2,14,14,0,0,1,2.79-1.46,7.69,7.69,0,0,1,2.64-.56,5,5,0,0,1,2.63.81,2.68,2.68,0,0,1,1.31,2.43l-.16,1a6.48,6.48,0,0,1-2.39,1.95,13.52,13.52,0,0,1-3,1l-.49-1a5.6,5.6,0,0,0,2-1,5.72,5.72,0,0,1,2-1c-.23-.43-.5-1-.83-1.78s-.77-1.14-1.31-1.14a5.37,5.37,0,0,0-2,.49,15.92,15.92,0,0,0-2.3,1.21,7.12,7.12,0,0,0-1.89,1.71,3.06,3.06,0,0,0-.74,1.78c0,1.84.49,3.08,1.48,3.73a7.09,7.09,0,0,0,4,1,10.21,10.21,0,0,0,4.19-.91,15,15,0,0,0,3.78-2.38,12,12,0,0,0,2.8-3.45,8.88,8.88,0,0,0,1.07-4.28,5.31,5.31,0,0,0-3.21-5.26,15.31,15.31,0,0,0-6.49-1.48,20.8,20.8,0,0,0-9.71,2.38,32.35,32.35,0,0,0-8.06,5.84,33,33,0,0,0-4.69,5.84c-1.26,2-2.49,4.19-3.7,6.5-.65,1.2-1.86,3.48-3.61,6.82s-3.79,7.18-6.09,11.51-4.72,9-7.24,13.9-4.85,9.52-7,13.74-3.89,7.89-5.26,11-2.06,5.12-2.06,6a10.91,10.91,0,0,0,1.65,5.59,11.88,11.88,0,0,0,5.1-1.81,40.94,40.94,0,0,1,4.77-2.63,14,14,0,0,1-3.79,3.7,36.81,36.81,0,0,1-4.11,2.22c-1.42.66-2.88,1.29-4.36,1.89a22.15,22.15,0,0,0-4.52,2.55,12.22,12.22,0,0,1-2.63-7.56,15.68,15.68,0,0,1,.9-5.1,55.46,55.46,0,0,1,2.14-5.27q1.23-2.62,2.63-5a42.41,42.41,0,0,0,2.39-4.69q5.43-11.35,11.26-22.45T596.42,171a42.17,42.17,0,0,1,6.25-9.21,44.74,44.74,0,0,1,18.75-12.58A33.25,33.25,0,0,1,632.44,147.33Z" transform="translate(-13.02 -49.15)"/><rect class="b" x="0.5" y="0.5" width="667.13" height="319.77" rx="23.14"/></svg>