<svg xmlns="http://www.w3.org/2000/svg" viewBox="0 0 1088.5 1350.46"><defs><style>.a{fill:#fefefe;}.b{fill:#bdbde5;}.c{fill:#58595b;}.d{fill:#754c29;}.e{fill:#594a42;}.f{fill:#a391bf;}.g{fill:#807596;}.h{fill:#e93a47;}.i{fill:#cc2b3e;}.j{fill:#170235;}.k{fill:#16d3c5;}.l{fill:#f7e3a8;}.m{fill:#4a90ff;}.n{fill:#2ecb72;}.o{fill:#efef29;}.p{fill:#fff;}.q{fill:#231f20;}</style></defs><path class="a" d="M1248.41,1345.89c21.56,3.36,42.83-10.66,54.61-29s16.06-40.4,20.09-61.84c18.73-99.48,54.31-194.83,74.61-293.87,4.81-23.46,4.7-50.12-10.48-68.64-10.14-12.38-25.54-19.21-40.87-23.81S1287,854,1287,854c-55.86,48.09-99.5,108.92-125.61,177.85a446.32,446.32,0,0,0-24.69,217.47c4.61,33.72,15.13,69.93,43.27,89.07C1200.76,1352.52,1226,1357.24,1248.41,1345.89Z" transform="translate(-466.33 -366.16)"/><path class="b" d="M1335.14,990.58c4.8-23.46,4.69-50.12-10.48-68.64-10.15-12.38-25.55-19.22-40.88-23.81-7.3-2.19-21.11-5.63-33.57-8.63a436.87,436.87,0,0,0-88.78,142.37,446.32,446.32,0,0,0-24.69,217.47c4.61,33.72,15.13,69.93,43.27,89.07,17.54,11.93,38.31,17.15,57.84,11.62q1.37-1.85,2.59-3.75c11.79-18.35,16-40.39,20.09-61.83C1279.25,1185,1314.84,1089.62,1335.14,990.58Z" transform="translate(-466.33 -366.16)"/><path class="a" d="M1088.82,1255.73c-106.65-14.47-211.26-52-304.84-105.2-40.67,17.15-82.79,35.32-112,68.43-23,26.07-36.11,59.65-42.64,93.78s-4.32,71-4.43,105.71c9.4,9,22.62,12.59,35.39,15,42.5,8,87.64,9.32,129.32-2.23,1.16-21.36,5-49,6.12-70.34,28.29-12.58,56.3-27.12,82.26-44-31.8,53.08-35.85,122.56-2,174.35-1.43,1.54,3.37,7.29,1.94,8.84a398.24,398.24,0,0,0,120.37-2.35c10.35-1.79,21.64-4.63,27.67-13.23,6.3-9,4.72-21.12,2.42-31.85-3.14-14.65-6.68-31.5,2.46-43.37,3.09-4,7.34-7,11.52-9.82l69-47.4C1076.86,1327,1087.62,1254.47,1088.82,1255.73Z" transform="translate(-466.33 -366.16)"/><path class="b" d="M1024.26,1377.07c-9.72,5.58-20.17,11-26.47,20.22-9.7,14.27-6.85,33.29-3.48,50.21s6.53,35.81-2.73,50.36c13.1-.92,28-2.78,35.6-13.48,6.19-8.66,5.46-20.4,3.3-30.82s-5.49-21-3.63-31.5c2.53-14.19,14.09-25.07,26.37-32.61s26-12.91,37.19-21.94c6.34-5.09,12.11-12.06,12.22-20.19.08-6.21-5.1-18.84-11.82-20.78-7.66-2.22-15.11,11.08-20.16,16A229.31,229.31,0,0,1,1024.26,1377.07Z" transform="translate(-466.33 -366.16)"/><path class="b" d="M754,1386.41c-4.6,17.63-6.66,38.46-21.79,48.62l57-3.62c-1.54-25.05-2.08-53.12,14.86-71.64,8.5-9.29,20.29-14.75,31.76-20l54.47-24.8c-2.77,1.24-21.42-20.69-29.64-20.7-11.32,0-24.34,5-34.56,9.49a130.77,130.77,0,0,0-55,45.52A118.7,118.7,0,0,0,754,1386.41Z" transform="translate(-466.33 -366.16)"/><path class="a" d="M1253.39,885.37s86.66,81.2,131.2,159.85c15.87,28,34.72,56.51,33.8,88.7-1.13,39.5-20.42,74.94-66.43,100.22-34.64,19-93.39,29.11-93.39,29.11-11.36-23-23-48-34.34-71-2.48-5-5-10.36-4.64-16,.85-12.42,14.65-19,26.17-23.7s24.75-13.66,22.66-25.93c-.82-4.83-4-8.87-7.07-12.69l-33.41-41.56a184.33,184.33,0,0,0-29,91.82c-41.42,18.73-81.11,49.63-106.72,87.19-108.51-1-219.3-36.92-309-98,4-54.18,16.94-102.72,36.27-153.5-45.12-16.39-105.26-55.34-138.66-89.8,68.47-15.46,136.53-34.08,206.62-37.77,40.94-2.15,82-.25,122.92,1.65C1091.08,877.83,1172.65,881.63,1253.39,885.37Z" transform="translate(-466.33 -366.16)"/><path class="b" d="M1260.83,1065a98.59,98.59,0,0,1,32.49,55.16l-21.4,14.79c1.86-1.28-13.64-28-15.27-30.64a201.15,201.15,0,0,0-20.64-28,217.91,217.91,0,0,0-25.16-24c-2.75-2.26-8.07-6.54-2.74-9.6,3.39-1.94,13.3,1.94,16.84,3A98.31,98.31,0,0,1,1260.83,1065Z" transform="translate(-466.33 -366.16)"/><path class="b" d="M1355.7,1191.72c30.48-23.32,53-61,47.51-99,14.94,24.11,15.25,55.7,4.07,81.78s-32.76,46.83-57.6,60.53-52.84,20.84-80.93,24.79c-3.79.54-7.77,1-11.33-.41-7.8-3.07-2.29-27.51-8.94-21.83-2.27,1.93,27.14-7.18,35.87-10.21C1309.53,1218.68,1334.4,1208,1355.7,1191.72Z" transform="translate(-466.33 -366.16)"/><path class="b" d="M1162.66,1143.91c-1.37,9-2.38,18.54-7.84,25.81-4.65,6.2-11.88,9.81-18.59,13.7a165.22,165.22,0,0,0-64.12,67.77c5.61,3.92,13.59,2.42,19.21-1.49s9.51-9.74,13.7-15.15a135.69,135.69,0,0,1,45.33-37.55c11.8-6,24.86-10.59,33.92-20.26,8.07-8.61,11.93-20.23,15.57-31.45q10-30.91,20.05-61.82c1.5-4.64,3-9.41,2.73-14.28-.51-8.27-9.32-19.34-18.58-18.24-9.09,1.08-14.38,15.57-18.1,22.6A223,223,0,0,0,1162.66,1143.91Z" transform="translate(-466.33 -366.16)"/><path class="b" d="M799.76,919.39c28.1-.41,55.88-5.65,83.5-10.88l41.9-7.93c5.22-1,11-2.35,13.91-6.81,3.87-6-.08-14.51-6.29-18s-13.75-3.33-20.87-3A1018,1018,0,0,0,800.75,884q-27.62,4.34-55,10.18c-3.74.8-21.07,2.36-21.2,6.75-.15,5.06,11.79,8.72,15.17,9.92C758.82,917.61,779.67,919.67,799.76,919.39Z" transform="translate(-466.33 -366.16)"/><path class="b" d="M1093.88,1022.31c-13.74,8.65-30.79,10.77-46.93,9s-31.66-7-47-12.27L874.45,976.15c10.51-2.79,20.15-6.22,30.67-9l114,39.72C1043.07,1015.2,1093.88,1022.31,1093.88,1022.31Z" transform="translate(-466.33 -366.16)"/><path class="b" d="M1058.7,1028.3,1022.24,1171c14.44-4.26,29.9-9.19,39-21.21,6-8,8.36-18.06,10.56-27.81q8-35.31,15.91-70.61c1.6-7.1,8-20.1.39-25C1085,1024.32,1059.19,1026.36,1058.7,1028.3Z" transform="translate(-466.33 -366.16)"/><path class="c" d="M615.44,915.43s-106-47.15-118.23-55.22-30.33-247.32-15-267.58c5.88-7.75,24.15-9.27,32.68-11.09,22.64-4.83,45.63-8.1,68.55-11.26,28.06-3.87,56.19-7.22,84.34-10.35,13.4-1.49,27.25-4.1,40.73-4.37,10.06-.21,7.63-.5,14.39,4.58,6,4.5,8.92,10.07,16.57,13,8.9,3.45,18.62,4,28.15,4.52-4.83-9.22.53-21.22,9.22-27s19.64-6.67,30.06-6.75,21.1.5,31-2.81L820.36,692.77" transform="translate(-466.33 -366.16)"/><path class="d" d="M925.65,867.08s-233,32.38-310.21,48.35c0,0-11.71-148.4-8.51-255.92l178.18-23.24" transform="translate(-466.33 -366.16)"/><path class="e" d="M812.48,826.77C742.75,837.52,679.34,785,676.81,714.46c-.75-20.78-1.3-42.47-1.51-63.87l-68.37,8.92c-3.2,107.52,8.51,255.92,8.51,255.92,77.2-16,310.21-48.35,310.21-48.35l-32-52.49C868.09,818.34,840,822.53,812.48,826.77Z" transform="translate(-466.33 -366.16)"/><path class="f" d="M673.26,834.08c-3,3.4-6.08,6.94-7.4,11.27s-.34,9.71,3.45,12.18,8.83,1.27,12.27-1.48,5.56-6.77,7.59-10.68" transform="translate(-466.33 -366.16)"/><path class="f" d="M664.77,723.11c-3.2-2-6.46-4.14-8.74-7.17s-3.4-7.23-1.82-10.67c1.82-4,6.76-5.8,11.12-5.25s8.22,3,11.82,5.49" transform="translate(-466.33 -366.16)"/><path class="f" d="M763,700.93c1-4.41,8.56-10.46,13.08-10.59a10.64,10.64,0,0,1,10.21,7.41c1.28,4.34-3.07,11.43-6.94,13.77" transform="translate(-466.33 -366.16)"/><path class="f" d="M781.1,820c4.4,1.82,8.79,4.26,11.37,8.27s2.7,9.9-.82,13.1c-2.7,2.45-6.85,2.74-10.34,1.66s-6.48-3.32-9.39-5.52" transform="translate(-466.33 -366.16)"/><ellipse class="f" cx="723.26" cy="772.63" rx="81.24" ry="72.54" transform="translate(-630.65 982.9) rotate(-79.89)"/><ellipse class="g" cx="723.26" cy="772.63" rx="58.6" ry="52.33" transform="translate(-630.64 982.9) rotate(-79.89)"/><path class="h" d="M1211,1304a57.75,57.75,0,0,0-5.81.41,55.45,55.45,0,0,0-9.46-24.56l61.23-7.64c-5.75-35-49.25-105.27-50.19-106.82,0,0-62.76,31.31-84.94,51.08-68.72,61.21-40.52,146.22,39.92,160.56,75.06,13.38,95.3-35.68,80.48-58.38C1235.68,1308.63,1223,1303.85,1211,1304Z" transform="translate(-466.33 -366.16)"/><path class="i" d="M1248.48,1237.62q5.68,16.76,11.38,33.51L1200.18,1283c-2.65-3.16-16.35-15.67-15.54-19.51.76-3.56,17.43-6.19,20.85-7.32q11.28-3.72,22.18-8.43C1230.06,1246.67,1248.48,1239.77,1248.48,1237.62Z" transform="translate(-466.33 -366.16)"/><path class="i" d="M1164.06,1267.06a21.42,21.42,0,0,0-14.28,11.49c-3.3,6.94-2.56,15.27.25,22.42s7.51,13.39,12.15,19.52a44.79,44.79,0,0,1,29.32-15.27c3.41-.33,7.3-.48,9.49-3.11,2.61-3.16,1.19-7.95-.84-11.51C1193.73,1279.33,1178.14,1263.77,1164.06,1267.06Z" transform="translate(-466.33 -366.16)"/><path class="h" d="M945.58,1361.53c16.9,16.89,22.79,45.17,10.6,65.72-8.77,14.8-25.25,23.79-42.13,27.14-11.75,2.33-38,6.06-48.86-.44-8.86-5.31-10.65-24.24-11.61-33.6-2.32-22.42,2.58-60.91,22.19-76C894,1330.36,931.88,1347.84,945.58,1361.53Z" transform="translate(-466.33 -366.16)"/><path class="i" d="M900.39,1363.32c-6-5.39-16.83-11.42-28.54-15.42-16.33,16.9-20.43,51.62-18.27,72.45.71,6.91,1.88,19,6,27,3.57-.46,6.77-1,9.29-1.41,16.88-3,33.35-11,42.13-24.16C923.18,1403.53,917.29,1378.36,900.39,1363.32Z" transform="translate(-466.33 -366.16)"/><path class="h" d="M728.21,1255.64c11.64,16.43,16.37,37.94,11.19,57.4s-20.68,36.19-40.13,41.41c-12.19,3.27-24.92,2-36.89-1.53-11.38-3.35-27-8.59-36.2-16.31-7.23-6-1.84-19.73-.41-27.83,2.33-13.15,5.4-26.23,10.46-38.61,6.69-16.37,21.47-41.58,40.22-46.44,8.44-2.19,20.4,5.25,27.36,9.47A81.73,81.73,0,0,1,728.21,1255.64Z" transform="translate(-466.33 -366.16)"/><path class="i" d="M682.58,1255c-5-6.34-14.63-14.13-25.49-20.07-19,13.87-28.94,47.37-30.37,68.27-.47,6.93-1.39,19.07,1.3,27.67,3.59.15,6.82.2,9.39.2,17.14-.06,34.74-5.13,45.64-16.62C698.18,1298.47,696.67,1272.66,682.58,1255Z" transform="translate(-466.33 -366.16)"/><path class="h" d="M834.84,884.7a249.74,249.74,0,0,0-56.79,92.22c-16-5.43-30.18-14.28-40.8-27.45a136.93,136.93,0,0,1,39.88-58.42C796.79,889.34,815.18,886.41,834.84,884.7Z" transform="translate(-466.33 -366.16)"/><path class="i" d="M755.05,915.24a193,193,0,0,0,44.71,4.15c2.38,0,4.76-.12,7.14-.22a248,248,0,0,1,27.94-34.47c-19.66,1.71-38.05,4.64-57.71,6.35A136.3,136.3,0,0,0,755.05,915.24Z" transform="translate(-466.33 -366.16)"/><path class="h" d="M1382.46,1049.27a183.16,183.16,0,0,0-117.28,56.87c-9.47-10.63-19-21.48-28.5-32.1.37.07.41-.68.77-.61a177.84,177.84,0,0,1,118.75-71.14c12.22,13.21,21.13,29.4,27.69,46.15C1384,1048,1382.36,1049.74,1382.46,1049.27Z" transform="translate(-466.33 -366.16)"/><path class="i" d="M1260.83,1065a95,95,0,0,0-10.2-7.56,170.45,170.45,0,0,0-13.18,16c-.36-.07-.4.68-.77.61,9.48,10.62,19,21.47,28.5,32.1a176.3,176.3,0,0,1,16.81-15.76A98,98,0,0,0,1260.83,1065Z" transform="translate(-466.33 -366.16)"/><path class="h" d="M1275.41,910.88c-65.17,4.55-145.44,47-176.61,112.81-18.14-8.53-35.51-12.84-55.49-14.39,11.62-30.28,35.22-62.41,71.27-82,41.75-22.65,94.28-18.76,134.53-44C1258.44,892,1266.08,902.23,1275.41,910.88Z" transform="translate(-466.33 -366.16)"/><path class="h" d="M986.32,912.6c0,25.81-16.23,52.23-26.56,70.24a207.55,207.55,0,0,1-51.18-15.56c15.31-23.12,26.91-54.63,31.45-82C955.36,893.81,971,904.08,986.32,912.6Z" transform="translate(-466.33 -366.16)"/><path class="j" d="M1246.32,892.45c4.06,3.8,8,7.72,12,11.64q15.24,15.17,29.81,31c13.22,14.33,26.05,29,38.33,44.15q5.05,6.22,10,12.55c.37.47.74.94,1.1,1.42-1.79-2.31-.32-.43.09.11l2.55,3.34q2.44,3.24,4.86,6.51c6.36,8.61,12.5,17.39,18.33,26.37s11.17,18.24,16.51,27.53c5.89,10.21,11.86,20.39,17,31,1.27,2.62,2.47,5.28,3.63,8l-.39-.91c.11.31.25.6.37.9.29.69.56,1.38.84,2.08.5,1.29,1,2.59,1.45,3.9a108.46,108.46,0,0,1,4.54,16.51c.26,1.35.41,2.72.68,4.06,0,.07-.27-2.22-.15-1.09,0,.32.07.63.11,1,.09.84.18,1.68.25,2.53a83.41,83.41,0,0,1,.25,8.66c-.05,2.22-.17,4.45-.35,6.67-.09,1.06-.18,2.11-.29,3.15-.06.49-.11,1-.17,1.45l-.09.72c-.16,1.39.17-1.07.17-1.21-.21,4.22-1.45,8.67-2.51,12.75a104.75,104.75,0,0,1-4,12.35l-.54,1.35c-.63,1.54,1-2.27.15-.39-.46,1-.93,2.07-1.42,3.1q-1.42,3-3,5.87a106.85,106.85,0,0,1-7.18,11.15L1388,1192c-1,1.36,1.38-1.74.31-.4-.76.94-1.52,1.89-2.3,2.81-1.53,1.82-3.13,3.6-4.77,5.32a129.24,129.24,0,0,1-10.9,10.16c-1,.8-1.93,1.58-2.9,2.35-1.4,1.12,1.62-1.22.18-.14-.54.42-1.09.83-1.64,1.24-2.18,1.61-4.39,3.16-6.65,4.65a164,164,0,0,1-14.16,8.43,118.16,118.16,0,0,1-12.36,5.85c-.16.06,2.18-.91,1.18-.5l-.73.3-1.7.7-3.21,1.26c-2.24.87-4.5,1.7-6.76,2.51-8.89,3.15-17.93,5.88-27,8.34-12.12,3.26-24.38,6.1-36.72,8.38l-1.94.34c-2.33.41-4.83,2.64-6,4.6a10.23,10.23,0,0,0-1,7.71c1.81,5.57,6.76,7.93,12.3,7,9.2-1.58,18.33-3.63,27.4-5.84,18.84-4.59,37.43-10.23,55.26-17.92,19.31-8.34,37.63-20.47,52.08-35.84a118,118,0,0,0,28.35-50.38,128,128,0,0,0,4-28,102.31,102.31,0,0,0-5.52-35.83c-3.93-11.77-9.41-23-15.36-33.87-5.58-10.19-11.4-20.27-17.29-30.28a526.23,526.23,0,0,0-37.4-54.39c-12.88-16.67-26.42-32.81-40.47-48.5q-16.32-18.21-33.48-35.63c-5.78-5.87-11.62-11.68-17.59-17.34l-.79-.76c-3.82-3.58-10.41-4.06-14.14,0-3.57,3.89-4.08,10.32,0,14.15Z" transform="translate(-466.33 -366.16)"/><path class="j" d="M847,913.94Q830,950.78,816.22,989q-11.29,31.46-20.19,63.72-6.91,25.17-12.23,50.74c-2.33,11.34-4.41,22.74-6.1,34.19-.82,5.54-1.77,11.13-2.18,16.72,0,.06,0,.12,0,.18-.23,2.41,1.27,5.42,2.93,7.07a10,10,0,0,0,14.14,0,11.27,11.27,0,0,0,2.93-7.07c.16-1.74.37-3.47.59-5.21.14-1.1.28-2.19.43-3.28l-.36,2.65c.92-6.87,2-13.72,3.21-20.55q2.76-15.63,6.23-31.14,4.49-20.13,10-40,6.67-24.12,14.71-47.82,9.15-27,20-53.32c1-2.34,1.94-4.67,2.92-7l-1,2.39q5.79-13.72,12-27.25a10.79,10.79,0,0,0,1-7.7,10,10,0,0,0-12.3-7c-2.34.76-4.9,2.27-6,4.6Z" transform="translate(-466.33 -366.16)"/><path class="j" d="M1169.76,1331.32a67.09,67.09,0,0,1,5.82-5.09l-2,1.57a71.93,71.93,0,0,1,15.89-9.19l-2.39,1a78.46,78.46,0,0,1,19.65-5.38l-2.66.35a51.68,51.68,0,0,1,13.61-.15l-2.66-.35a42.64,42.64,0,0,1,10.34,2.78l-2.39-1a35.33,35.33,0,0,1,7.87,4.56l-2-1.57a30.94,30.94,0,0,1,5.12,5.11l-1.57-2a27.27,27.27,0,0,1,3.48,6c-.34-.8-.67-1.6-1-2.39a30,30,0,0,1,2,7.56c-.11-.89-.23-1.78-.35-2.66a34.86,34.86,0,0,1,0,9.07l.36-2.66a38.09,38.09,0,0,1-2.68,9.66l1-2.39a42,42,0,0,1-5.38,9.14l1.56-2a47,47,0,0,1-8.24,8.19l2-1.57a55.66,55.66,0,0,1-12.16,7l2.39-1a74.22,74.22,0,0,1-18.75,5l2.66-.36a115.58,115.58,0,0,1-30.53-.33l2.66.36a124,124,0,0,1-31.73-8.34l2.39,1a99.06,99.06,0,0,1-21.72-12.58l2,1.56a87.16,87.16,0,0,1-15.66-15.58l1.56,2a81.13,81.13,0,0,1-10.47-17.93c.33.8.67,1.59,1,2.39a79.18,79.18,0,0,1-5.41-19.91l.36,2.65a81.65,81.65,0,0,1,0-21.47l-.36,2.66a91.35,91.35,0,0,1,6.41-23.17l-1,2.39a110,110,0,0,1,14.21-24c-.53.67-1,1.35-1.57,2a129,129,0,0,1,22.8-23l-2,1.57c11.94-9.21,25-16.94,38.12-24.42q17-9.75,34.52-18.72,3.48-1.8,7-3.56l-13.68-3.58c3.33,5.49,6.63,11,9.84,16.57,6.89,11.94,13.51,24,19.68,36.38,3.81,7.61,7.45,15.32,10.76,23.17-.33-.8-.67-1.6-1-2.39,4.16,9.86,8.14,20.1,9.9,30.7l9.64-12.66-20.75,2.59-32.91,4.1-7.57,1c-2.75.34-5,.89-7.07,2.93a10,10,0,0,0,0,14.14c1.81,1.66,4.51,3.25,7.07,2.93l20.75-2.59,32.91-4.11,7.57-.94a10,10,0,0,0,5-1.36,7.56,7.56,0,0,0,2.8-2.58c2.08-2.69,2.34-5.45,1.79-8.72-1.35-8.18-4.11-16.11-7.1-23.82-3.88-10-8.31-19.74-13-29.34-7.74-15.73-16.23-31.09-25.13-46.18-1.95-3.31-3.94-6.59-5.93-9.87a10.27,10.27,0,0,0-6-4.59,11,11,0,0,0-7.7,1c-9.73,4.86-19.33,10-28.85,15.2-16.61,9.11-33.33,18.51-48.56,29.82a138.89,138.89,0,0,0-23.24,21.56,122.29,122.29,0,0,0-18.56,28.46,111.83,111.83,0,0,0-5.9,15.72,103.62,103.62,0,0,0-3,15.93,88.69,88.69,0,0,0,1.43,28.65,90.17,90.17,0,0,0,28.25,48.11c16.19,14.43,36.59,23.31,57.9,26.83,22,3.63,45.38,3.62,65.65-6.71,13.47-6.87,24.59-19.16,28.42-34,3.77-14.6.29-31.34-11.76-41.21a47.29,47.29,0,0,0-19.53-9.71,55.06,55.06,0,0,0-17.45-1.15,88.28,88.28,0,0,0-34.56,10.62,76.92,76.92,0,0,0-16.33,12.25c-3.73,3.68-4,10.51,0,14.14a10.17,10.17,0,0,0,14.14,0Z" transform="translate(-466.33 -366.16)"/><path class="j" d="M1179.78,1278.57a36.43,36.43,0,0,1,4,2.62l-2-1.56a33.39,33.39,0,0,1,5.88,5.88l-1.57-2a39.19,39.19,0,0,1,4.93,8.62c-.33-.8-.67-1.59-1-2.39a71,71,0,0,1,4.4,17.57c.31,2.3,2.7,4.87,4.59,6a10,10,0,0,0,13.69-3.59c.33-.79.67-1.59,1-2.39a10,10,0,0,0,0-5.31,71.9,71.9,0,0,0-6.63-22.64,43.27,43.27,0,0,0-17.15-18,10.43,10.43,0,0,0-7.71-1,10.21,10.21,0,0,0-6,4.6c-2.5,4.74-1.27,10.92,3.59,13.68Z" transform="translate(-466.33 -366.16)"/><path class="j" d="M1221.16,1178.17q5.88-5.24,12.12-10.05l-2,1.56a292,292,0,0,1,54.39-32.84q4.9-2.31,9.91-4.42l-2.39,1c2.18-.92,4.37-1.83,6.59-2.65a10.72,10.72,0,0,0,6-4.59,10.22,10.22,0,0,0,1-7.71,10.09,10.09,0,0,0-4.59-6c-2.27-1.2-5.2-1.93-7.71-1-6.79,2.48-13.43,5.48-20,8.58a301.79,301.79,0,0,0-40.34,23,262.28,262.28,0,0,0-27.12,21,10,10,0,0,0,14.14,14.15Z" transform="translate(-466.33 -366.16)"/><path class="j" d="M1193.45,1058.21a177.2,177.2,0,0,1,21.67,14.31l-2-1.57a166.31,166.31,0,0,1,29.62,29.48l-1.57-2a153.14,153.14,0,0,1,19.8,33.76c-.34-.79-.68-1.59-1-2.38q1.13,2.68,2.16,5.41a10.8,10.8,0,0,0,4.59,6,10,10,0,0,0,13.69-3.59c1.19-2.25,1.94-5.22,1-7.7a160.08,160.08,0,0,0-22.37-40.81,180.49,180.49,0,0,0-15.85-18.3,190.72,190.72,0,0,0-18.55-16,177.64,177.64,0,0,0-21.06-13.83,10.42,10.42,0,0,0-7.71-1,10.24,10.24,0,0,0-6,4.59c-2.49,4.73-1.28,11,3.59,13.69Z" transform="translate(-466.33 -366.16)"/><path class="j" d="M1217.56,1064.88a283.59,283.59,0,0,0-19,41.69,255.31,255.31,0,0,0-9.94,38.08c-1.53,8.15-2.81,16.35-4,24.55-.41,2.77-.47,5.19,1,7.71a10,10,0,0,0,13.69,3.58c2-1.31,4.23-3.47,4.59-6,2.92-20,6.35-40,12.79-59.27,1.78-5.32,3.78-10.56,6-15.72-.34.79-.67,1.59-1,2.39a295.71,295.71,0,0,1,13.18-27,10.44,10.44,0,0,0,1-7.7,10.18,10.18,0,0,0-4.6-6c-4.68-2.48-11-1.31-13.68,3.59Z" transform="translate(-466.33 -366.16)"/><path class="j" d="M1149.94,1279.06c.39.37.76.75,1.11,1.15l.5.57c.14.17.52.9.19.23s.07.1.19.26l.57.82c.32.47.62,1,.92,1.43.65,1.07,1.25,2.17,1.81,3.28.27.55.53,1.1.78,1.66a9.19,9.19,0,0,1,.38.85c-.42-1.23,0,0,.06.17a47.58,47.58,0,0,1,2.21,7.11c.13.61.25,1.22.36,1.84,0,.2.09,1.16.06.32s0,.1,0,.29a21.16,21.16,0,0,1,.11,3.28,5,5,0,0,0,5,5,5.1,5.1,0,0,0,5-5c.23-5.36-1.26-10.9-3.26-15.84-2.12-5.24-4.81-10.52-8.93-14.49a5,5,0,0,0-7.08,7.07Z" transform="translate(-466.33 -366.16)"/><path class="j" d="M780.46,1163.21c17.43,10.24,35.16,20,53.23,29q27.85,14,56.78,25.62,28.5,11.49,58,20.31,30.59,9.11,62,15.19c23,4.46,46.14,7.74,69.41,10q4.41.42,8.84.81c2.42.21,5.41-1.27,7.07-2.93a10,10,0,0,0,0-14.14,11.24,11.24,0,0,0-7.07-2.93q-17.68-1.53-35.29-3.88l2.65.36a685.5,685.5,0,0,1-70.9-13.3A651,651,0,0,1,920.4,1208q-17.62-6.32-34.87-13.6l2.39,1a791.24,791.24,0,0,1-76.38-37.43q-10.56-5.88-21-12c-4.51-2.65-11.16-1.18-13.68,3.58a10.2,10.2,0,0,0,3.59,13.69Z" transform="translate(-466.33 -366.16)"/><path class="j" d="M1313.47,1252.39c-3,16-6.11,32.16-12.46,47.24l1-2.39a89.51,89.51,0,0,1-11.2,19.65l1.56-2a71.56,71.56,0,0,1-12.66,12.66l2-1.56a61.93,61.93,0,0,1-13.24,7.82l2.39-1a51,51,0,0,1-12.68,3.57l2.65-.36a44.42,44.42,0,0,1-11.69,0l2.66.35-.76-.11c-2.76-.41-5.2-.46-7.71,1a10.17,10.17,0,0,0-4.59,6,10.05,10.05,0,0,0,1,7.7c1.31,2,3.46,4.22,6,4.6a53.26,53.26,0,0,0,14.37.54,59.1,59.1,0,0,0,14-3.17,74.52,74.52,0,0,0,24.25-15c14.27-13.07,22.54-31.25,27.7-49.6,2.83-10.06,4.78-20.33,6.72-30.6a10.74,10.74,0,0,0-1-7.7,10,10,0,0,0-13.68-3.59c-2.09,1.34-4.12,3.44-4.6,6Z" transform="translate(-466.33 -366.16)"/><path class="j" d="M923,857.44l-6.28.88q-8.76,1.21-17.51,2.46l-26.4,3.76q-16.59,2.38-33.19,4.8-19,2.76-38,5.58-20.16,3-40.3,6Q741,884,720.7,887.22q-19.38,3-38.74,6.2-17.44,2.87-34.87,5.91c-9.52,1.68-19,3.4-28.5,5.28l-5.81,1.18,12.66,9.64c-.41-5.2-.78-10.39-1.14-15.59q-1.44-20.57-2.63-41.13-1.7-29-2.93-57.94c-.93-22.15-1.65-44.32-2-66.49s-.48-44.59,0-66.88q.09-3.95.2-7.89l-10,10,17.69-2.31,42.64-5.56,51.44-6.71,44.57-5.81,21.55-2.81.29,0c2.76-.36,5-.88,7.07-2.93a10,10,0,0,0,0-14.14c-1.81-1.66-4.52-3.26-7.07-2.93l-17.69,2.31-42.64,5.56-51.44,6.71-44.57,5.81-21.54,2.81-.3,0c-2.63.34-5.16.85-7.07,2.93a10.64,10.64,0,0,0-2.93,7.07c-.65,22.09-.67,44.21-.36,66.31.31,22.41,1,44.81,1.85,67.2q1.19,29.73,2.88,59.42Q602.55,874.21,604,896c.44,6.41.85,12.82,1.39,19.22a2.28,2.28,0,0,1,0,.26,10.13,10.13,0,0,0,12.66,9.64c8.86-1.83,17.75-3.49,26.66-5.09q16.74-3,33.54-5.79,19-3.15,38-6.15,20.18-3.19,40.35-6.27,20.37-3.12,40.76-6.15,19.3-2.88,38.63-5.7,17.26-2.52,34.53-5l28.27-4,19.91-2.81c3.07-.43,6.16-.78,9.21-1.29l.4-.06c2.3-.32,4.87-2.7,6-4.59a10.23,10.23,0,0,0,1-7.71,10.09,10.09,0,0,0-4.59-6l-2.39-1a10,10,0,0,0-5.32,0Z" transform="translate(-466.33 -366.16)"/><path class="j" d="M775.35,559q23.68-2.19,47.4-4.26l4.08-.36a10.65,10.65,0,0,0,7.07-2.93,10,10,0,0,0,0-14.14c-1.86-1.7-4.46-3.16-7.07-2.93q-18.32,1.6-36.64,3.26L775.35,539a10.74,10.74,0,0,0-7.07,2.92,10,10,0,0,0,0,14.15c1.85,1.7,4.46,3.17,7.07,2.93Z" transform="translate(-466.33 -366.16)"/><path class="j" d="M620.49,906.79q-20.1-8.94-40.13-18c-21.49-9.74-43-19.46-64.21-29.85-3.29-1.62-6.58-3.25-9.81-5-1.08-.58-2.15-1.16-3.2-1.79-.32-.19-.63-.42-1-.6,2.54,1.41,2.4,2,1.51,1.05,2.65,2.8,1.3,1.81.58.37-.09-.17-.15-.34-.23-.51-.42-.87,1.3,3.25.73,1.74-.17-.45-.34-.91-.5-1.37a72,72,0,0,1-1.92-6.94c-1.68-7.21-2.85-14.53-3.94-21.85-.33-2.28-.65-4.55-1-6.83l-.12-.85c.51,3.7.33,2.48.22,1.65l-.21-1.59c-.16-1.28-.33-2.56-.49-3.84q-1-7.89-1.85-15.79c-2.64-24.16-4.59-48.39-6.07-72.65-1.46-23.91-2.5-47.87-2.59-71.83,0-9.79.08-19.59.59-29.36.2-3.86.46-7.7.85-11.54q.12-1.25.27-2.49l.15-1.19c0-.19.05-.39.07-.58.16-1.31-.46,3.33-.23,1.71.21-1.45.43-2.9.71-4.35a43.29,43.29,0,0,1,1.76-6.59c.5-1.42-1.32,2.89-.73,1.71.09-.18.16-.36.25-.54s.35-.62.53-.93c.88-1.58-2.21,2.32-.89,1.15.15-.13.3-.28.44-.42,1.19-1.2-2.45,1.73-1.32,1a26.82,26.82,0,0,1,3.14-1.76l.95-.43c.76-.35-3.16,1.3-1.18.51.82-.33,1.66-.64,2.5-.93,4.12-1.45,8.35-2.59,12.59-3.63,12.11-3,24.41-5.22,36.71-7.29,15.94-2.68,31.94-5,48-7.16L593,579c-3.29.45-1.26.17-.55.08l3.18-.43c2.31-.3,4.62-.61,6.94-.9q6.78-.88,13.56-1.73,13.83-1.72,27.66-3.33,27.24-3.2,54.52-6,12.52-1.32,25-2.59c2.72-.28,5.08-.93,7.07-2.93a10.15,10.15,0,0,0,2.93-7.07c-.22-5-4.42-10.57-10-10q-26.86,2.72-53.71,5.68-27.74,3.07-55.43,6.52c-18.15,2.28-36.28,4.69-54.37,7.4-14.46,2.16-28.92,4.49-43.26,7.37-9.62,1.92-19.4,3.91-28.63,7.29a39.66,39.66,0,0,0-9.52,4.48,19.65,19.65,0,0,0-7.16,9.61c-2.24,5.67-2.8,12.16-3.43,18.15-.9,8.46-1.23,17-1.4,25.47-.23,10.83-.15,21.67.08,32.51.26,12.2.73,24.39,1.33,36.58q.94,19.14,2.33,38.26,1.35,18.52,3.11,37c1.05,10.95,2.22,21.88,3.6,32.8,1.22,9.56,2.51,19.12,4.23,28.61a106,106,0,0,0,4,16.69,23,23,0,0,0,4.41,8.21c1.69,1.86,4.09,3.09,6.28,4.28,7.71,4.16,15.67,7.87,23.59,11.62q16.71,7.9,33.53,15.55,16.49,7.54,33,15,10.73,4.83,21.46,9.63l3,1.34c2.53,1.13,4.91,1.78,7.7,1a10.24,10.24,0,0,0,6-4.59c2.3-4.36,1.51-11.42-3.59-13.69Z" transform="translate(-466.33 -366.16)"/><path class="j" d="M478.2,610.15c1.58.49,3.12,1.17,4.64,1.81l-2.39-1c7.19,3,14.27,6.33,21.36,9.6Q517,627.6,532.19,634.8q15.88,7.51,31.73,15.1,12.87,6.17,25.74,12.35c4,1.93,8,3.9,12.06,5.81l.17.08a10.69,10.69,0,0,0,7.7,1,10,10,0,0,0,7-12.3c-.77-2.37-2.28-4.86-4.6-6l-11.57-5.58q-14-6.74-28-13.45-17.36-8.3-34.77-16.53c-10.59-5-21.19-10-31.83-14.85-7-3.21-14-6.59-21.25-9.25-.33-.13-.66-.24-1-.35-5-1.56-11.14,1.85-12.31,7a10.22,10.22,0,0,0,7,12.3Z" transform="translate(-466.33 -366.16)"/><path class="k" d="M875.1,480.29c-91.58-.5-138.18,15.15-144.89,19.83S723,560.21,723,560.21l44.92,14.2,8.46-53a532.11,532.11,0,0,1,65.28-7.79c4.39-.28,14.67,1.11,18.35-1.57,3.49-2.54,5.89-11.08,7.86-14.91q4.45-8.66,8.89-17.31" transform="translate(-466.33 -366.16)"/><path class="j" d="M875.1,470.29a642.39,642.39,0,0,0-73.39,3.5A387.47,387.47,0,0,0,752,482.07c-8.51,2.09-17.35,4.44-25.18,8.47a15.88,15.88,0,0,0-4.19,3,21.66,21.66,0,0,0-4.67,9.19c-1.95,7-2.59,14.38-3.24,21.56-1.06,11.71-1.53,23.49-1.69,35.24,0,.22,0,.44,0,.66a10.23,10.23,0,0,0,7.35,9.64l15.19,4.81,24.12,7.62,5.6,1.77a10.14,10.14,0,0,0,7.71-1c2-1.32,4.19-3.46,4.59-6q1.43-8.92,2.86-17.86,2.28-14.25,4.55-28.51c.35-2.2.71-4.39,1.06-6.59l-7,7c7.52-1.42,15.07-2.61,22.66-3.63l-2.66.35c19.12-2.56,38.4-4.19,57.68-4.93,1.32,0,2.64-.1,4-.13a10.4,10.4,0,0,0,7.07-2.93,10.18,10.18,0,0,0,2.93-7.07c-.24-5.31-4.4-10.13-10-10-5.8.14-11.59.45-17.38.81-13.6.84-27.18,2.06-40.69,3.78-9.67,1.24-19.31,2.65-28.89,4.47-3.06.58-6.48,3.85-7,7l-2.85,17.87-4.56,28.51-1,6.59,12.3-7-15.2-4.8-24.11-7.62-5.61-1.77,7.34,9.64c.11-10.69.55-21.39,1.38-32.05.33-4.22.73-8.45,1.29-12.65l-.36,2.65c.59-4.29,1.17-8.84,2.87-12.87l-1,2.39a8.53,8.53,0,0,1,1-1.82c-.52.67-1,1.35-1.57,2a4.11,4.11,0,0,1,.58-.6l-2,1.56a19.54,19.54,0,0,1,4.36-2.24l-2.39,1a116.47,116.47,0,0,1,14.35-4.75c7.81-2.14,15.75-3.83,23.72-5.26,5.88-1.06,11.79-2,17.71-2.77l-2.66.36a575.45,575.45,0,0,1,62.91-4.7q11-.27,22-.2c5.23,0,10.24-4.62,10-10a10.18,10.18,0,0,0-10-10Z" transform="translate(-466.33 -366.16)"/><path class="j" d="M725.54,515.09c12.49,2.25,24.47,6.64,36.13,11.56l-2.38-1c4.08,1.73,8.13,3.53,12.18,5.35,2.52,1.13,4.93,1.77,7.7,1a10,10,0,0,0,7-12.3c-.76-2.32-2.27-4.93-4.6-6-16.31-7.34-33-14.72-50.7-17.92a10.77,10.77,0,0,0-7.71,1,10,10,0,0,0-3.59,13.68c1.34,2.08,3.45,4.14,6,4.6Z" transform="translate(-466.33 -366.16)"/><path class="h" d="M559,574.48c6.24-25.86,29.84-48.23,47-54.53,62.3-22.86,101.15,25,89.13,44.89-10.81,17.9-59.48,21.1-90.68,1.64Z" transform="translate(-466.33 -366.16)"/><path class="j" d="M568.61,577.14A67.3,67.3,0,0,1,572,567.06c-.34.79-.67,1.59-1,2.39a84,84,0,0,1,10.86-18.35l-1.56,2a94.44,94.44,0,0,1,16.61-16.7l-2,1.56a65.84,65.84,0,0,1,14.48-8.72l-2.39,1a91.82,91.82,0,0,1,22.87-6l-2.66.35a81.21,81.21,0,0,1,21.07-.07l-2.66-.35A70.27,70.27,0,0,1,663.37,529L661,528a63.3,63.3,0,0,1,13.79,8l-2-1.56a54.2,54.2,0,0,1,9.77,9.67l-1.56-2a42.24,42.24,0,0,1,5.43,9.15c-.34-.8-.67-1.6-1-2.39a29.11,29.11,0,0,1,2.08,7.41c-.12-.88-.23-1.77-.35-2.65a20.89,20.89,0,0,1,0,5.3l.36-2.66a15.84,15.84,0,0,1-1.09,4.06c.34-.79.68-1.59,1-2.39a15.82,15.82,0,0,1-2.07,3.5l1.56-2a22.49,22.49,0,0,1-4,3.89l2-1.57a35.73,35.73,0,0,1-7.82,4.43l2.39-1a63.83,63.83,0,0,1-15.91,4.12l2.65-.36a98.76,98.76,0,0,1-26.16-.15l2.65.36a98.36,98.36,0,0,1-24.7-6.65l2.39,1a78.53,78.53,0,0,1-9.78-4.93c-.35-.21-.69-.43-1-.63a11,11,0,0,0-7.86-1.1l-.12,0-.84.14-9.3,1.64-28.11,5-7.1,1.25c-2.33.41-4.82,2.62-6,4.59a10.23,10.23,0,0,0-1,7.71,10.09,10.09,0,0,0,4.59,6,11.29,11.29,0,0,0,7.71,1l15.37-2.7,24.49-4.31,5.61-1-7.71-1A96.83,96.83,0,0,0,634.66,588a110.38,110.38,0,0,0,37.64,0c9.73-1.75,20-5.49,27.09-12.61a26.38,26.38,0,0,0,7.74-21.64,41.39,41.39,0,0,0-1.21-6.74,49.84,49.84,0,0,0-9.39-17.23,64.69,64.69,0,0,0-20.31-16.62c-21.46-11.42-47-11.59-69.74-4a71.16,71.16,0,0,0-16.1,7.52,100.07,100.07,0,0,0-38.29,46.43,66.17,66.17,0,0,0-2.76,8.67,10.51,10.51,0,0,0,1,7.71,10.23,10.23,0,0,0,6,4.59C561.47,585.3,567.28,582.57,568.61,577.14Z" transform="translate(-466.33 -366.16)"/><path class="j" d="M673.73,917.27c15.39,15.85,32.91,29.68,50.93,42.4a457.42,457.42,0,0,0,58.45,35.27,316.66,316.66,0,0,0,33.69,14.7c2.32.85,5.64.2,7.7-1A10,10,0,0,0,828.09,995a11.16,11.16,0,0,0-6-4.59q-5.86-2.15-11.62-4.58l2.39,1a363,363,0,0,1-36.66-18.17q-19.07-10.71-37.09-23.17-10-6.9-19.66-14.33l2,1.56a314.66,314.66,0,0,1-33.62-29.55c-3.65-3.77-10.52-3.94-14.14,0a10.18,10.18,0,0,0,0,14.14Z" transform="translate(-466.33 -366.16)"/><path class="j" d="M789.85,784a92.86,92.86,0,0,1-3.12,12.42q-1,2.94-2.12,5.79c-.09.23-.19.45-.28.67-.26.65.37-.84.09-.2-.2.44-.38.87-.58,1.31-.44,1-.89,1.94-1.37,2.9a86.51,86.51,0,0,1-6.09,10.45c-.52.76-1,1.51-1.6,2.26-.27.37-.54.74-.82,1.1-.14.18-.28.36-.41.55.78-1.1.09-.12-.07.07-1.2,1.51-2.46,3-3.76,4.4a78.85,78.85,0,0,1-8.29,7.85l-1,.84c-.16.12-.35.3-.53.41,1-.57.48-.37.23-.18-.8.59-1.6,1.19-2.41,1.75q-2.3,1.61-4.7,3c-1.59.94-3.22,1.83-4.88,2.65-.83.41-1.66.8-2.5,1.18l-.6.26-.15.07h0l.3-.12-.45.18L744,844a69.57,69.57,0,0,1-10.67,3.27q-1.35.3-2.7.54l-1.28.21-.64.09c-.93.15.84-.09.2,0-1.84.21-3.67.4-5.51.48a78.49,78.49,0,0,1-11.37-.5c.11,0,1.21.18.33,0l-.66-.1-1.33-.22q-1.49-.27-3-.6c-1.83-.41-3.65-.91-5.44-1.48-.84-.27-1.67-.55-2.49-.85-.42-.15-.83-.3-1.23-.46s-1.4-.36-1.52-.61c.09.19.94.41.29.12l-.6-.26-1.18-.55c-.88-.41-1.76-.84-2.62-1.3a71.43,71.43,0,0,1-9.29-5.9c-.88-.65.68.55.11.1l-.5-.41-1-.81c-.75-.62-1.49-1.26-2.21-1.91-1.37-1.24-2.69-2.52-4-3.86s-2.5-2.73-3.67-4.17l-.82-1c-.33-.41-.69-.43.08.1a3.14,3.14,0,0,1-.4-.52c-.56-.75-1.1-1.51-1.64-2.27a79.1,79.1,0,0,1-5.82-9.89c-.4-.81-.79-1.62-1.16-2.44l-.55-1.23c-.08-.2-.19-.42-.26-.62.46,1.3.08.18,0-.06-.72-1.79-1.39-3.61-2-5.45A84.8,84.8,0,0,1,656.6,790c-.16-.93-.31-1.85-.45-2.78,0-.1-.14-1.25,0-.39s0,0,0-.21c-.07-.53-.13-1.06-.18-1.58q-.31-3-.42-6.07a89.72,89.72,0,0,1,.44-12.59c.06-.5.11-1,.17-1.48a3.21,3.21,0,0,1,.07-.53c.16-1.12.34-2.23.54-3.34.38-2.09.83-4.17,1.35-6.22a89.72,89.72,0,0,1,3.93-12,6.11,6.11,0,0,0,.27-.66c0,.13-.44,1-.08.2.19-.44.38-.88.58-1.31.44-1,.9-1.94,1.37-2.9q1.33-2.68,2.85-5.28c1-1.7,2-3.37,3.17-5,.51-.76,1.05-1.51,1.59-2.25.27-.38.55-.74.82-1.11.05-.07.76-.95.24-.31s.14-.18.24-.31a83.48,83.48,0,0,1,7.79-8.49c1.37-1.3,2.8-2.56,4.26-3.76l1.17-.94c1-.77-.69.51.3-.23.8-.59,1.6-1.18,2.41-1.75a74.49,74.49,0,0,1,9.59-5.66c.83-.41,1.66-.8,2.51-1.17l.59-.27c.7-.31-.29.06-.3.13a7.68,7.68,0,0,1,1.51-.61c1.71-.67,3.44-1.28,5.2-1.81s3.53-1,5.33-1.38c.84-.19,1.69-.35,2.54-.5l1.28-.22.64-.09c1.15-.18-1.2.14,0,0a67.35,67.35,0,0,1,11.09-.45c.88,0,1.77.09,2.65.17a18.73,18.73,0,0,0,3,.32c-.06.09-1.11-.16-.34,0l.67.1,1.49.25c.94.17,1.87.36,2.8.57,1.84.42,3.65.91,5.45,1.48.89.29,1.77.59,2.64.91l1.23.46.76.31.31.12c-.76-.31.6.26.75.33l1.18.55c.89.41,1.76.85,2.62,1.31,1.62.85,3.21,1.78,4.76,2.77s3,2.07,4.51,3.15c.59.42-1-.78-.11-.09l.51.4,1,.82c.75.62,1.48,1.26,2.2,1.91a72.48,72.48,0,0,1,7.62,8l.82,1c.55.7-.11-.19-.18-.23a3.07,3.07,0,0,1,.39.52c.6.8,1.17,1.6,1.74,2.41q1.59,2.33,3,4.76t2.7,5c.4.8.78,1.61,1.15,2.43.21.46.42.93.62,1.39.07.17.33.87.08.18s.07.19.13.35a83.28,83.28,0,0,1,3.65,11.24q.72,2.88,1.23,5.8c.17.92.31,1.85.45,2.78.05.38.32,1.06,0-.11a4.31,4.31,0,0,1,.09.71c.07.52.12,1.05.18,1.58A88.84,88.84,0,0,1,791,772.8q-.12,3-.42,5.88c-.05.5-.11,1-.17,1.48a6,6,0,0,1-.09.74c.25-1.14.07-.5,0-.22-.16,1.12-.34,2.24-.53,3.35-.45,2.56.69,5.51,3.49,6.15,2.44.55,5.67-.74,6.15-3.49,3-17.2,1.71-35.22-5-51.44-6.31-15.31-16.69-28.73-30.75-37.66a70.33,70.33,0,0,0-46.28-10.4,78.33,78.33,0,0,0-43.61,21,91.47,91.47,0,0,0-25.51,44.12,94.13,94.13,0,0,0,1.57,52.08,82.34,82.34,0,0,0,28.18,40,70.47,70.47,0,0,0,45.41,14.12c16.49-.77,32-7.31,44.73-17.67,13.22-10.74,22.84-25.64,28.12-41.77a93.24,93.24,0,0,0,3.12-12.42c.46-2.57-.7-5.52-3.49-6.15C793.56,780,790.34,781.28,789.85,784Z" transform="translate(-466.33 -366.16)"/><path class="j" d="M770,780.48a68.09,68.09,0,0,1-2.26,9c-.45,1.37-1,2.74-1.5,4.08-.1.26-.44,1.39-.05.13a8.7,8.7,0,0,1-.43,1c-.29.65-.6,1.29-.91,1.93a62.21,62.21,0,0,1-4.41,7.57c-.39.57-.79,1.13-1.19,1.69-.21.28-.42.55-.62.83-.72.95.69-.86-.06.07s-1.73,2.1-2.65,3.11a57.25,57.25,0,0,1-6.09,5.77l-.77.63c-.91.73.9-.66,0,0-.54.39-1.07.79-1.61,1.17-1.08.75-2.18,1.46-3.31,2.14s-2.27,1.29-3.44,1.87q-.87.43-1.77.84c-.06,0-.87.42-.89.4l.3-.13-.6.24a49.62,49.62,0,0,1-7.42,2.27c-1.25.27-2.61.33-3.83.69,1.3-.39.46-.07,0,0s-.64.07-1,.09c-.75.07-1.51.12-2.27.15-1.31.06-2.63.06-3.94,0-.37,0-3.89-.47-4-.34l.66.09-.66-.1-1-.16c-.66-.12-1.32-.25-2-.4-1.41-.31-2.8-.69-4.17-1.13-.63-.2-1.25-.41-1.86-.64-.31-.11-1.71-.44-1.83-.71l.59.24-.6-.26-.59-.27c-.69-.32-1.37-.65-2-1-1.14-.6-2.27-1.25-3.36-1.94-.55-.35-1.09-.7-1.62-1.07-.32-.22-1.76-1-1.84-1.33l.5.39-.5-.4-.76-.62c-.49-.41-1-.84-1.46-1.27-1-.87-1.9-1.78-2.8-2.72s-1.76-1.93-2.59-2.94l-.62-.76c-.73-.9.66.9,0,0-.46-.62-.91-1.24-1.35-1.87a55.07,55.07,0,0,1-4-6.88c-.3-.6-.59-1.21-.87-1.82l-.41-.92c-.49-1.09.41,1.05,0-.06-.54-1.37-1.06-2.75-1.51-4.16a60.51,60.51,0,0,1-2-8.06c-.12-.69-.23-1.39-.34-2.08-.19-1.22.13,1.16,0-.07,0-.35-.08-.71-.12-1.06-.16-1.54-.26-3.09-.31-4.63a65.67,65.67,0,0,1,.31-8.76c0-.37.09-.74.13-1.11.14-1.28-.18,1.12,0-.15.11-.74.22-1.49.35-2.23.29-1.6.63-3.18,1-4.75a65.4,65.4,0,0,1,2.73-8.33c.11-.26.44-1.39,0-.13a8.56,8.56,0,0,1,.43-1c.3-.65.6-1.3.92-1.94.67-1.37,1.4-2.71,2.17-4,.65-1.1,1.33-2.19,2-3.25.39-.57.78-1.14,1.19-1.7l.61-.83.42-.55c-.44.56-.49.63-.15.2a64.87,64.87,0,0,1,5.72-6.23c.89-.84,1.81-1.66,2.76-2.44l.77-.63c.36-.28.73-.93,0,0a8.83,8.83,0,0,1,1.87-1.37,54.8,54.8,0,0,1,7.05-4.16c.58-.28,1.17-.56,1.77-.82l.59-.26s-1.09.44,0,0c1.3-.52,2.62-1,4-1.4s2.49-.71,3.75-1c.63-.14,1.27-.26,1.9-.38l1-.16.64-.1-.36,0a6.36,6.36,0,0,0,1.77-.19l1.79-.12c1.42-.06,2.84-.07,4.26,0a34.51,34.51,0,0,0,4,.34l-.67-.09.67.1,1,.17c.77.13,1.54.29,2.31.47,1.18.27,2.36.59,3.52.95.63.2,1.25.41,1.87.63.36.13,2,.5,2.14.83l-.6-.25.6.26.89.41q.88.42,1.74.87c1.25.65,2.46,1.36,3.64,2.12,1,.64,2,1.33,2.92,2s-.87-.72,0,0l.75.61c.58.48,1.16,1,1.72,1.48a52.13,52.13,0,0,1,5.6,5.91c.17.21.33.43.51.64.46.56-.74-1-.08-.1.39.53.78,1.06,1.16,1.6.82,1.18,1.59,2.39,2.32,3.63s1.31,2.32,1.91,3.52c.3.6.59,1.21.87,1.82l.41.93c.21.5.18.41-.11-.26.09.21.17.42.26.62a61.59,61.59,0,0,1,2.53,7.83q.51,2,.87,4.08c.13.69.23,1.39.34,2.08.19,1.22-.12-1.16,0,.07,0,.42.1.83.14,1.24a64.75,64.75,0,0,1,.29,8.81c-.06,1.47-.16,2.94-.31,4.4l-.12,1.11c-.14,1.28.17-1.12,0,.15-.11.75-.23,1.49-.36,2.23-.45,2.57.69,5.51,3.49,6.15,2.44.56,5.67-.74,6.15-3.49,2.22-12.63,1.34-25.85-3.56-37.78-4.69-11.41-12.33-21.36-22.8-28a52,52,0,0,0-34.13-7.72,58.06,58.06,0,0,0-32.45,15.58,67.34,67.34,0,0,0-18.75,32.36A69.41,69.41,0,0,0,669,795.9a61.07,61.07,0,0,0,21,29.72A52.17,52.17,0,0,0,723.36,836a57,57,0,0,0,33.24-13.08,67.73,67.73,0,0,0,23-39.79c.47-2.57-.69-5.52-3.49-6.15C773.66,776.43,770.45,777.73,770,780.48Z" transform="translate(-466.33 -366.16)"/><ellipse class="j" cx="723.26" cy="772.63" rx="22.94" ry="20.49" transform="translate(-630.64 982.9) rotate(-79.89)"/><polyline class="l" points="362.41 342.76 351.04 345.06 362.22 441.62 404.04 436.01"/><path class="j" d="M826.09,699.27l-11.37,2.3-2.39,1a7.59,7.59,0,0,0-2.81,2.58c-1.23,1.59-2.39,4-2.15,6.06q.55,4.8,1.12,9.6,1.34,11.52,2.66,23.06,1.62,13.95,3.23,27.9,1.41,12.06,2.8,24.12c.45,3.9.89,7.81,1.35,11.72a.78.78,0,0,1,0,.16c.31,2.62.88,5.19,2.93,7.07,1.8,1.65,4.52,3.27,7.07,2.93l36.62-4.92,5.2-.7a7.39,7.39,0,0,0,3.85-.86,7.47,7.47,0,0,0,3.22-2.06,10,10,0,0,0,0-14.15c-1.8-1.65-4.52-3.27-7.07-2.93l-36.62,4.92-5.2.7,10,10-1.11-9.6-2.67-23.06q-1.62-13.95-3.23-27.9l-2.79-24.12c-.45-3.9-.81-7.83-1.36-11.72a.78.78,0,0,0,0-.16L820,720.86l11.37-2.3a10.13,10.13,0,0,0,6-4.6,10,10,0,0,0-3.59-13.68,11,11,0,0,0-7.7-1Z" transform="translate(-466.33 -366.16)"/><path class="j" d="M669.72,830.55c-3.16,3.58-6.18,7.21-8,11.66a17.56,17.56,0,0,0-.59,12.16c1.53,4.41,5,8.18,9.69,9.12a17.15,17.15,0,0,0,14-3.69c3.91-3.07,6.39-7.57,8.64-11.91,1.21-2.32.68-5.53-1.79-6.84-2.3-1.21-5.55-.68-6.84,1.8-.81,1.56-1.63,3.12-2.54,4.62-.44.72-.91,1.42-1.39,2.11s.46-.51-.16.21c-.29.35-.58.69-.88,1a24.82,24.82,0,0,1-1.84,1.7s.8-.54.31-.26c-.2.12-.39.27-.58.39l-1.08.6c-.83.44.78-.25-.11,0-.39.13-.78.26-1.17.36s-.69.15-1,.22c-.55.12.45-.07.47-.07a4.32,4.32,0,0,0-.86,0c-.21,0-1.29-.12-.52,0s-.5-.12-.66-.17-.32-.12-.48-.16c-.52-.12.38.14.41.19a4.13,4.13,0,0,0-1-.59c-.56-.31.67.68.27.21-.1-.12-.24-.21-.34-.32s-.49-.66-.62-.68c.1,0,.5.84.33.39a3.11,3.11,0,0,0-.25-.38c-.1-.18-.19-.37-.3-.54-.37-.63.19.18.12.34.06-.12-.26-.73-.3-.88a10.58,10.58,0,0,1-.26-1.08,3.89,3.89,0,0,0-.09-.47s.09,1.09.09.54-.06-.86-.05-1.29,0-.64.05-1c0-.16,0-.32,0-.48,0,0-.2,1.07,0,.54.21-.78.36-1.55.64-2.31a2.52,2.52,0,0,1,.21-.54c-.59.76-.12.31,0,0s.41-.8.63-1.19c.49-.84,1-1.64,1.59-2.43a2.4,2.4,0,0,1,.35-.47l-.31.39.37-.46.86-1c.67-.8,1.36-1.58,2-2.36,1.73-2,2.08-5.17,0-7.07-1.89-1.74-5.22-2.1-7.07,0Z" transform="translate(-466.33 -366.16)"/><path class="j" d="M667.3,718.8c-.89-.57-1.78-1.13-2.64-1.72l-1.3-.91-.63-.47c.5.38.53.4.09,0a26.85,26.85,0,0,1-2.26-2.14c-.18-.19-1-1.08-.22-.19a9.52,9.52,0,0,1-.8-1.19,4.31,4.31,0,0,1-.67-1.27c.27.64.3.71.1.19-.08-.22-.16-.45-.22-.68s-.44-1.13-.32-1.39c.09.75.11.84.06.28,0-.23,0-.47,0-.7s0-.46,0-.7l-.09.64a4.34,4.34,0,0,1,.35-1.35c-.28.63-.32.72-.1.26a4.68,4.68,0,0,1,.3-.54c.11-.18.22-.35.34-.51-.48.6-.54.7-.2.3.13-.12.87-.7.88-.84-.61.46-.7.54-.27.23l.52-.33c.32-.18.65-.33,1-.5l-.47.21.6-.21a12.29,12.29,0,0,1,1.23-.31c.2,0,.41-.08.62-.12-.8.1-.93.13-.38.07s.85,0,1.27,0l.63,0c.52,0,.42,0-.31-.06a8.27,8.27,0,0,1,2.69.65c.22.07,1.87.66.66.2a15.83,15.83,0,0,1,1.44.69,47,47,0,0,1,5.44,3.38c2.15,1.51,5.65.47,6.84-1.79a5.13,5.13,0,0,0-1.79-6.84,34.65,34.65,0,0,0-11.07-5.61,18.43,18.43,0,0,0-12.16,1,13.31,13.31,0,0,0-7.56,8.87,16.12,16.12,0,0,0,2.41,12.46c2.78,4.12,6.83,6.91,11,9.54a5,5,0,0,0,6.84-1.79,5.11,5.11,0,0,0-1.79-6.84Z" transform="translate(-466.33 -366.16)"/><path class="j" d="M767.84,702.26a7.16,7.16,0,0,0,.23-.75c.09-.43-.28.65-.27.65a2.67,2.67,0,0,0,.22-.45c.3-.55.77-1,1-1.58,0,0-.7.81-.34.44.14-.13.26-.3.39-.44s.4-.45.61-.67a21.45,21.45,0,0,1,1.71-1.59l.36-.3c.41-.36-.4.3-.39.3.31-.19.6-.44.89-.64a19.44,19.44,0,0,1,2-1.18l.78-.39c.77-.4-1.06.36,0,0,.29-.1.57-.2.86-.27s1.25-.23.28-.1.1,0,.33,0,1.5.09.65,0,.25.08.46.13,1.51.53.8.24.41.23.59.33c.33.19.64.42,1,.63s-.36-.26-.37-.27.3.26.38.33c.32.3.6.63.91,1s-.27-.33-.28-.36a3.26,3.26,0,0,0,.37.54c.17.28.32.57.48.86.4.74-.28-.91.05.18,0,.13.07.28.11.41.3.77,0-.88,0-.44s0,.63,0,1c0,.13,0,.28,0,.42,0,.49.07-.6.08-.62-.16.22-.15.74-.23,1s-.24.8-.38,1.19c-.39,1.06.32-.62-.06.14-.2.39-.39.78-.6,1.16s-1.15,2.21-1.44,2.2c0,0,.65-.79.28-.38-.17.2-.33.41-.51.6s-.48.53-.74.78-.59.51-.86.78.48-.36.47-.36a5.21,5.21,0,0,0-.65.43,5,5,0,0,0,5,8.64,21.23,21.23,0,0,0,7.9-9.4c2-4.47,2.46-9.11-.17-13.46a16,16,0,0,0-12.21-7.58c-3.88-.39-7.76,1.4-10.82,3.64-3.58,2.63-7.26,6.1-8.4,10.56a5,5,0,1,0,9.64,2.66Z" transform="translate(-466.33 -366.16)"/><path class="j" d="M779.77,824.79s-.86-.38-.35-.14l.51.22,1,.46c.77.37,1.54.77,2.29,1.2s1.26.76,1.87,1.17l.44.32c.48.32-.3-.2-.28-.23s.88.75,1,.82a18.54,18.54,0,0,1,1.51,1.56,3,3,0,0,0,.34.42c-.06,0-.52-.77-.24-.29s.44.66.64,1c.08.16.61,1.3.31.55s.09.28.15.46.18.62.26.93c0,.16.06.32.1.47.16.67,0-.13,0-.37,0,.63.1,1.27.07,1.9,0,.16,0,.32,0,.48,0,.54.08-.56.08-.55a8.64,8.64,0,0,0-.25,1.06c0,.19-.13.39-.19.58-.14.5.2-.47.21-.48a5.19,5.19,0,0,0-.43.81c-.08.13-.18.25-.26.39-.26.44.29-.4.31-.4a4.11,4.11,0,0,0-.78.78c-.37.38.29-.26.34-.26a2,2,0,0,0-.42.28c-.18.1-1.14.54-.45.28s-.33.1-.51.15a6,6,0,0,0-1.16.26s1-.08.48-.07c-.23,0-.46,0-.69,0s-.69,0-1,0c-.19,0-1.33-.11-.54,0s.13,0,0,0l-.68-.15c-.41-.11-.81-.23-1.21-.37-.09,0-.51-.13-.55-.21.1.18.78.37.12.05q-1.23-.58-2.4-1.29c-1.68-1-3.25-2.21-4.82-3.39-2.1-1.58-5.68-.4-6.84,1.79-1.39,2.63-.45,5.16,1.79,6.84,3.39,2.56,6.93,5.06,11.09,6.18s9.22.84,12.9-1.68a13.84,13.84,0,0,0,6-11.68A17.86,17.86,0,0,0,794.69,823c-3.25-3.73-7.78-5.94-12.26-7.81a5,5,0,0,0-3.85.5,5.1,5.1,0,0,0-2.3,3c-.66,2.92.9,5.07,3.49,6.15Z" transform="translate(-466.33 -366.16)"/><circle class="m" cx="973.04" cy="1087.96" r="40.5" transform="translate(-734.85 1489.26) rotate(-79.91)"/><path class="j" d="M1008.52,1089.3c0,1-.11,2.1-.23,3.14,0,.23-.07.46-.08.69.07-1.23.08-.61,0-.3-.09.56-.18,1.13-.29,1.69a41.05,41.05,0,0,1-1.63,5.86c-.17.47-.36.94-.53,1.41-.24.63.4-.88.11-.27-.12.24-.22.5-.33.76-.42.9-.87,1.79-1.34,2.66s-1,1.72-1.53,2.55c-.24.36-.48.73-.73,1.09s-.61,1.14-1,1.32c.44-.23.55-.68.18-.23l-.42.51c-.31.38-.63.75-1,1.12-.68.77-1.4,1.52-2.15,2.24s-1.35,1.27-2.06,1.87c-.28.23-.79.82-1.15.93.07,0,1-.72.23-.19l-.79.58a40.68,40.68,0,0,1-5.06,3l-1.19.58-.6.28c-.14.06-1.1.34-.32.14s-.2.07-.32.12l-.63.23c-.52.2-1,.38-1.57.55a40.78,40.78,0,0,1-5.89,1.43c-.22,0-.46.05-.67.1,1.14-.28.65-.08.31,0l-1.54.16c-1.09.09-2.19.13-3.29.13q-1.41,0-2.82-.09c-.58,0-1.16-.09-1.73-.15-.23,0-.47-.08-.69-.09.75,0,.67.1,0,0a39.54,39.54,0,0,1-5.78-1.39c-.91-.29-1.79-.62-2.68-1-1.06-.39.78.37.11.06l-.61-.27c-.5-.23-1-.47-1.49-.72a40.24,40.24,0,0,1-5.09-3c-.26-.18-1.06-.58-1.2-.88,0,.06.94.76.24.18l-.51-.41c-.8-.66-1.58-1.35-2.32-2.07s-1.32-1.31-1.94-2c-.33-.36-.65-.73-1-1.11l-.42-.5c-.11-.13-.76-1.07-.32-.39s0,0-.1-.15l-.48-.67c-.25-.35-.5-.71-.74-1.08q-.85-1.31-1.62-2.67c-.45-.82-.88-1.65-1.27-2.5a4.76,4.76,0,0,1-.54-1.2c.1,1,.24.59.06.12l-.3-.78a40.26,40.26,0,0,1-1.66-5.79c-.1-.5-.2-1-.28-1.5,0-.14-.21-.76-.14-.84s.15,1.28.05.31-.21-2.06-.26-3.09a41.43,41.43,0,0,1,.21-6.3,3.4,3.4,0,0,1,.08-.69c-.41.94-.09.65,0,.14s.17-1,.26-1.53c.2-1,.44-2,.71-3s.58-1.94.92-2.89c.15-.42.31-.83.47-1.25.33-.84-.1.18-.12.27a4.11,4.11,0,0,1,.41-.91,39.29,39.29,0,0,1,2.86-5.21c.24-.37.49-.73.74-1.09s.65-1.17,1-1.33c-.05,0-.75.93-.17.23l.41-.51c.35-.42.7-.83,1.07-1.24a40.86,40.86,0,0,1,4.23-4.09c.28-.23.68-.71,1-.82-.84.28-.55.41-.1.08l.53-.38c.85-.6,1.72-1.18,2.61-1.71s1.61-.94,2.44-1.36c.44-.23.88-.45,1.33-.66l.61-.27.45-.2-.43.18c.15-.24,1-.38,1.24-.48.47-.18.94-.34,1.41-.5q1.51-.49,3.06-.87c.94-.23,1.88-.42,2.82-.58l.67-.1c.75-.13-1.29.14-.14,0l1.71-.17a41.27,41.27,0,0,1,6.29,0c.46,0,.92.08,1.39.13a2.68,2.68,0,0,1,.68.08c-.75-.33-.77-.12-.3,0,1.13.2,2.25.4,3.36.67a48,48,0,0,1,5.6,1.79c.69.26-1.14-.52-.12,0l.61.27,1.2.57c.94.47,1.85,1,2.75,1.51s1.59,1,2.35,1.52c.4.28.79.59,1.2.87s-.74-.62-.24-.18l.77.62a40.87,40.87,0,0,1,4.24,4.08,8.56,8.56,0,0,1,1.79,2.13c-.21-.63-.48-.64-.18-.23.15.22.32.44.48.67.32.44.62.89.92,1.35a39.64,39.64,0,0,1,2.87,5.18c.1.2.19.4.28.6.33.75.35.13,0-.13.21.13.39,1,.48,1.24.35.94.66,1.89.94,2.86s.52,2,.72,2.94c.1.44.18.88.26,1.33,0,.28.08.56.13.84.11.64-.12-1.1,0-.15a45,45,0,0,1,.28,6.25,5,5,0,0,0,5,5,5.11,5.11,0,0,0,5-5,45.51,45.51,0,0,0-7.52-26.42,46.5,46.5,0,0,0-21.33-17.25c-17.34-7-38.24-2-50.58,12a46.29,46.29,0,0,0-11.31,25.8,45.43,45.43,0,0,0,25,45.22,46.63,46.63,0,0,0,28.19,4c18.13-3,33.29-17.88,36.69-35.91a51.51,51.51,0,0,0,.87-7.54,5,5,0,0,0-5-5A5.09,5.09,0,0,0,1008.52,1089.3Z" transform="translate(-466.33 -366.16)"/><polygon class="n" points="396.94 726.08 433.05 742.21 442.25 708.55 406.57 693.63 396.94 726.08"/><path class="j" d="M860.75,1096.56l31.68,14.15,4.42,2a5.19,5.19,0,0,0,4.45.26,4.92,4.92,0,0,0,2.9-3.24l8.07-29.53c.37-1.38.75-2.76,1.13-4.14.78-2.85-1-5.1-3.49-6.15l-31.3-13.09-4.38-1.83a5,5,0,0,0-3.85.51,5.27,5.27,0,0,0-2.3,3l-8.43,28.42-1.2,4a5,5,0,1,0,9.64,2.66q4.21-14.21,8.44-28.42l1.2-4-6.16,3.49,31.3,13.09,4.38,1.84-3.5-6.15q-4,14.76-8.06,29.52l-1.14,4.14,7.35-3-31.69-14.16-4.41-2c-2.39-1.06-5.49-.77-6.85,1.8C857.8,1091.89,858.2,1095.42,860.75,1096.56Z" transform="translate(-466.33 -366.16)"/><polygon class="o" points="412.67 674.2 448.77 690.33 457.97 656.66 422.3 641.74 412.67 674.2"/><path class="j" d="M876.48,1044.67l31.68,14.16,4.42,2a5.16,5.16,0,0,0,4.45.25,4.89,4.89,0,0,0,2.9-3.24l8.07-29.52c.37-1.38.75-2.76,1.13-4.14.78-2.85-1-5.1-3.5-6.15l-31.29-13.09-4.38-1.83a5,5,0,0,0-3.85.5,5.33,5.33,0,0,0-2.3,3L875.38,1035l-1.2,4a5,5,0,1,0,9.64,2.65l8.43-28.41,1.2-4-6.15,3.49,31.3,13.09,4.38,1.83-3.5-6.15L911.41,1051c-.37,1.38-.75,2.76-1.13,4.13l7.35-3L885.94,1038l-4.42-2c-2.38-1.07-5.48-.77-6.84,1.79C873.53,1040,873.93,1043.53,876.48,1044.67Z" transform="translate(-466.33 -366.16)"/><path class="a" d="M848.17,538.49c-24.5.26-48.95,23.1-57.7,56-9.53,35.82,3.06,70.6,28.25,80.11Z" transform="translate(-466.33 -366.16)"/><circle class="a" cx="1098.8" cy="652.15" r="275.95" transform="translate(-605.64 601.82) rotate(-45)"/><path class="h" d="M888.08,473.9c104.7-64.72,269.75-38.3,367.2,56.92,29.5,28.82,48.82,64.15,58.47,104.25,12.46,51.81-4.51,106.89-31.74,152.69-23.21,39-114,134.53-286.1,79.07C901.23,836.32,851.81,776,851.81,776" transform="translate(-466.33 -366.16)"/><path class="b" d="M1306.16,794.72c73.47-133.53,24.78-301.33-108.74-374.8A274.91,274.91,0,0,0,1008,391.57a275.26,275.26,0,0,1,223.8,18.81c133.53,73.47,182.21,241.27,108.75,374.8a275.3,275.3,0,0,1-185.4,137.1A274.88,274.88,0,0,0,1306.16,794.72Z" transform="translate(-466.33 -366.16)"/><path class="p" d="M980.79,862.46c-44.13-14.23-112.9-44.71-136.06-89-30-57.34-28-135.13-8-194.93,11.4-34.22,30.64-79.55,64.79-95.31,94.49-43.61,234.08-21.08,322,64.82,27.6,27,45.67,60,54.7,97.54,11.67,48.48-4.21,100-29.69,142.86C1226.77,825,1141.81,914.35,980.79,862.46Z" transform="translate(-466.33 -366.16)"/><path class="q" d="M1013.87,865.47c-44.13-14.22-112.91-44.71-136.07-89-30-57.34-28-135.13-8-194.94,11.4-34.21,30.63-79.55,64.79-95.31,34.46-15.9,74.92-23,116.69-21.44-53.19-7.7-106.26-1.65-149.77,18.43-34.15,15.76-53.39,61.09-64.79,95.31-19.92,59.8-22,137.59,8,194.93,23.16,44.26,91.93,74.74,136.06,89,31.67,10.2,60.38,14.92,86.26,15.68A336.75,336.75,0,0,1,1013.87,865.47Z" transform="translate(-466.33 -366.16)"/><path class="j" d="M982.79,855.22q-14.6-4.71-28.82-10.44l-3.61-1.47-2-.82c-.79-.33.32.14.39.17l-1.4-.6c-2.56-1.09-5.1-2.21-7.64-3.36-5.36-2.43-10.68-5-15.92-7.67a283.4,283.4,0,0,1-30.24-17.75q-3.63-2.46-7.17-5.08l-1.74-1.3-1-.73-1.19-.94c-.64-.51-1.28-1-1.91-1.54a156.58,156.58,0,0,1-12.25-11.08c-1.9-1.93-3.76-3.92-5.54-6-.81-.94-1.61-1.89-2.39-2.85-.42-.51-.82-1-1.24-1.55s.28.36.31.41l-.68-.9a93.63,93.63,0,0,1-8.26-13.27c-1.47-2.85-2.84-5.74-4.14-8.66-.28-.63-.56-1.26-.83-1.89-.1-.23-.55-1.33-.05-.12-.13-.32-.27-.63-.4-1q-.92-2.25-1.77-4.51a194.86,194.86,0,0,1-6-18.56c-1.7-6.25-3.11-12.58-4.25-18.95-.59-3.27-1.11-6.56-1.56-9.85.17,1.27-.05-.42-.11-.84l-.3-2.49c-.2-1.78-.39-3.56-.56-5.34a279.24,279.24,0,0,1-.84-39.55q.48-10,1.65-20c.17-1.54.37-3.07.57-4.61.11-.88,0,.1,0,.23.07-.46.14-.93.2-1.4l.36-2.46c.5-3.26,1-6.52,1.64-9.76a284.8,284.8,0,0,1,9.37-36.95q2.52-7.71,5.36-15.32,1.5-4,3.1-8c.51-1.25,1-2.5,1.54-3.75l.11-.26c-.38.89.15-.34.23-.55.3-.68.59-1.35.88-2a200.87,200.87,0,0,1,16.7-31.1c.82-1.22,1.65-2.43,2.51-3.62.36-.51.73-1,1.1-1.52l.56-.75s1.14-1.53.54-.73c-.49.64.79-1,.94-1.2l1.17-1.43c1-1.19,2-2.35,3-3.49q2.75-3,5.71-5.85c1-1,2.06-1.89,3.12-2.8.45-.39.9-.77,1.36-1.14s2.07-1.6.81-.67A77.64,77.64,0,0,1,906,489.37c1.2-.54,2.39-1.08,3.6-1.6l.91-.39c-.95.41.17-.07.41-.17l1-.43q3.68-1.5,7.4-2.87A236.05,236.05,0,0,1,950.11,475q7.92-1.72,15.93-3c1.27-.2,2.54-.38,3.82-.56.36-.05,1.47-.2-.22,0l.88-.11,2.37-.3q4-.48,8.05-.84a290.24,290.24,0,0,1,33.75-1.07q8.5.22,17,.92,4.35.34,8.69.83c1.45.15,2.9.32,4.35.5l1.87.24.24,0,.87.12a323.61,323.61,0,0,1,68.1,17.24q4.23,1.57,8.41,3.27l3.88,1.6c-1.44-.6.54.24.89.39l2.37,1q8.16,3.6,16.1,7.65a307.36,307.36,0,0,1,31.16,18.28q7.49,5,14.65,10.47l1,.8c-.09-.07-.89-.7-.22-.17l1.81,1.42q1.8,1.43,3.59,2.88c2.37,1.94,4.72,3.93,7,5.94a227.23,227.23,0,0,1,26.7,27.21c.53.65,1,1.29,1.56,1.95.22.26,1.58,2,.8,1,1,1.31,2,2.64,3,4q2.92,4,5.63,8.15,5.29,8.13,9.79,16.74,2.28,4.4,4.34,8.88,1,2.1,1.87,4.21c.09.2.56,1.32.08.16l.41,1c.36.87.71,1.75,1.06,2.63q3.63,9.15,6.39,18.6a172.27,172.27,0,0,1,4.7,19.81q.23,1.3.42,2.61c0,.38.11.75.16,1.13.18,1.27-.12-1,0,.25.21,1.75.4,3.5.56,5.26.3,3.5.48,7,.54,10.53a163.08,163.08,0,0,1-1,20.73c-.09.88-.2,1.76-.31,2.64s0,0,0-.12c0,.38-.11.75-.16,1.13q-.4,2.82-.91,5.62-.92,5.26-2.15,10.46c-1.6,6.84-3.57,13.6-5.84,20.26q-1.74,5.1-3.72,10.12-.92,2.33-1.88,4.64c.38-.91-.34.8-.45,1.05-.41.95-.82,1.89-1.24,2.83a245.31,245.31,0,0,1-16.38,31.06q-1.73,2.73-3.59,5.37c-.69,1-1.39,2-2.11,2.92-.35.47-.69.93-1,1.39-.19.25-.39.5-.58.76.52-.7,1.17-1.49.33-.42-3.52,4.43-7.21,8.71-11.12,12.81a192.84,192.84,0,0,1-14.08,13.34q-2,1.73-4.07,3.41l-2,1.57-1.08.84c-1.28,1,1.31-1,0,0-3,2.24-6,4.43-9,6.52A203.28,203.28,0,0,1,1171.53,848q-5.62,2.93-11.42,5.5a24.91,24.91,0,0,0-3,1.32c.92-.58,1-.41,0,0l-1.78.72q-3.15,1.28-6.35,2.44a211,211,0,0,1-27,7.84q-7.45,1.63-15,2.75l-1.66.24c-1.38.2.1,0,.32,0l-.84.11c-1.41.18-2.82.35-4.23.5q-3.87.43-7.77.72a250.21,250.21,0,0,1-34.09.2q-9.12-.56-18.18-1.72l-.7-.09c.87.11-.26,0-.36-.05l-2.39-.34c-1.62-.24-3.22-.49-4.83-.75-3.29-.54-6.56-1.13-9.83-1.78a351.51,351.51,0,0,1-39.62-10.33,7.57,7.57,0,0,0-9.23,5.24,7.68,7.68,0,0,0,5.24,9.23c26.3,8.44,53.58,14.11,81.19,15.67a243.78,243.78,0,0,0,67-5.33,215,215,0,0,0,53.29-19.71,210.9,210.9,0,0,0,39.47-27.15,191.9,191.9,0,0,0,26.28-27.93c10.61-13.79,18.69-29.55,25.49-45.5,11.6-27.23,19.07-56.64,17.92-86.43-1.09-28.11-10.19-56.07-23.34-80.8-12.64-23.76-30.14-44.28-50.48-61.79a306.86,306.86,0,0,0-62.35-41.55,329.8,329.8,0,0,0-69.3-25.6,325.84,325.84,0,0,0-71.76-9.44,284.18,284.18,0,0,0-68.67,7,233.81,233.81,0,0,0-31.08,9.43c-5.44,2.08-10.87,4.3-16.1,6.86a80.27,80.27,0,0,0-14.84,9.7c-18.66,14.95-31,37-40.39,58.68a321.3,321.3,0,0,0-21.91,71.43c-4.76,27-6.23,54.68-3.35,82,2.86,27.09,9.65,53.89,22.36,78.1,10.73,20.41,29,36.18,47.78,49,20,13.57,41.87,24.14,64.23,33.13q14.09,5.65,28.54,10.33a7.57,7.57,0,0,0,9.23-5.24A7.68,7.68,0,0,0,982.79,855.22Z" transform="translate(-466.33 -366.16)"/><path class="j" d="M1331.93,780.13q-5.34,9.69-11.41,18.94-3,4.48-6.09,8.87c-1,1.36-2,2.71-3,4-.53.72-1.07,1.43-1.61,2.14-.26.35-.54.7-.8,1.06-1.12,1.46.9-1.16.13-.18a284.1,284.1,0,0,1-28.55,31.31q-7.58,7.11-15.66,13.63c-1.19,1-2.65,2.61-4,3.2.17-.07,1.88-1.43.49-.38l-1,.78-2.32,1.74q-4.14,3.06-8.39,6A277.19,277.19,0,0,1,1214,891.92q-4.59,2.22-9.27,4.26l-2.34,1c-.72.31-1.35.16.63-.27a8.72,8.72,0,0,0-1.17.49q-2.36,1-4.73,1.91-9.63,3.78-19.52,6.83a277.64,277.64,0,0,1-40,9.18l-2.2.33c-.34.05-3.3.47-1.51.21s-1.18.15-1.52.19l-2.85.34q-5.07.57-10.17,1-10.21.76-20.46.79-10.44,0-20.87-.77-5.14-.39-10.28-1c-1.6-.18-3.21-.38-4.81-.59-1.75-.22.53.07.73.1-.42-.07-.86-.12-1.28-.18l-2.89-.43a275.06,275.06,0,0,1-41.07-9.59q-10.16-3.22-20-7.21c-.83-.33-1.66-.68-2.48-1-1.62-.66.31.13.53.23l-1.24-.53q-2.62-1.12-5.24-2.31-4.93-2.25-9.79-4.68a280,280,0,0,1-37.45-22.63c-1.45-1-2.89-2.09-4.32-3.15L936.56,863l-1.06-.81c-1-.75,1.62,1.27.18.14-2.78-2.19-5.53-4.41-8.23-6.69q-8.16-6.9-15.76-14.42-7.41-7.32-14.25-15.2-3.51-4-6.85-8.2l-1.4-1.77c-.22-.28-1.88-2.62-1-1.28s-.54-.73-.78-1l-1.93-2.58a275.19,275.19,0,0,1-21.83-34.71q-4.85-9.16-9-18.67l-1-2.34c-.45-1,.39,1,.39.92a7.85,7.85,0,0,0-.49-1.17q-1-2.51-2-5-1.9-4.89-3.64-9.85A279.49,279.49,0,0,1,837.33,701c-.63-3.34-1.21-6.69-1.72-10-.13-.84-.25-1.68-.37-2.52l-.18-1.26c-.25-1.74.09.57.1.76-.09-1.78-.46-3.6-.66-5.38q-1.12-10.16-1.52-20.38a275.21,275.21,0,0,1,1.58-41.4c.19-1.71.42-3.42.63-5.14,0,.2-.34,2.48-.09.74,0-.32.09-.64.14-1,.13-1,.28-1.92.43-2.88q.8-5.14,1.78-10.25,2-10.44,4.86-20.7t6.41-20.17q1.88-5.17,3.95-10.29c.3-.72.6-1.44.89-2.17.52-1.25-.76,1.79-.22.54.18-.42.35-.83.53-1.24.75-1.75,1.53-3.5,2.32-5.24a280.56,280.56,0,0,1,21.25-38.35q3-4.49,6.11-8.85c1-1.36,2-2.71,3-4.05l1.61-2.13c.26-.34.52-.73.81-1.06-.69.78-1,1.29-.13.19q6.62-8.46,13.89-16.38A272.75,272.75,0,0,1,933.1,444l2-1.6,1-.8c.94-.74-.07-.47-.49.38.27-.55,1.55-1.18,2.06-1.56.68-.52,1.37-1,2.06-1.54q4.28-3.15,8.66-6.14,8.49-5.78,17.38-10.9t18.36-9.68q4.59-2.21,9.27-4.24a12.52,12.52,0,0,0,2.34-1c-.15.11-2.23.93-.62.27l1.17-.49c1.57-.64,3.15-1.28,4.73-1.89a278.12,278.12,0,0,1,39.2-12q10.1-2.29,20.34-3.84l2.2-.32,1.27-.18c1.34-.19-2.12.27-.77.11,1.8-.22,3.59-.45,5.39-.65q5.07-.57,10.17-.94a274.14,274.14,0,0,1,41.33.08q5.14.39,10.28,1c1.6.19,3.21.47,4.82.6-3-.24-.23,0,.55.09l2.88.44q10.47,1.62,20.78,4.07A273.45,273.45,0,0,1,1199.8,406a18.7,18.7,0,0,1,2.48,1c-2.3-1.35,0,0,.71.31,1.75.76,3.5,1.53,5.23,2.33q4.93,2.25,9.78,4.7,9.91,5,19.41,10.79,9.22,5.61,18,11.92,2,1.47,4,3l2.12,1.61c.29.22,1.45,1.14.31.23l.56.45q4.17,3.27,8.22,6.71a275.91,275.91,0,0,1,29.93,29.68q3.48,4,6.82,8.22l1.4,1.77.8,1c.82,1-1.18-1.55-.38-.49,1.1,1.45,2.2,2.91,3.28,4.38q6.09,8.28,11.54,17a274.91,274.91,0,0,1,19.17,36.43,12.41,12.41,0,0,0,.88,2c-1.11-1.6-.58-1.39-.27-.63.16.4.33.79.49,1.18q1,2.5,2,5,1.85,4.74,3.51,9.56,3.39,9.76,6.05,19.77,2.61,9.84,4.5,19.86.93,5,1.7,10c.12.84.25,1.69.36,2.53.06.41.1.85.18,1.26,0-.19-.32-2.5-.11-.76s.45,3.58.65,5.38a275.62,275.62,0,0,1,1.41,41.23q-.42,10.3-1.61,20.56c-.1.86-.2,1.71-.31,2.57s-.55,3.55-.07.55c-.27,1.71-.49,3.42-.76,5.13q-.81,5.15-1.81,10.25a274.3,274.3,0,0,1-11.37,40.85q-1.77,4.88-3.72,9.66a17.44,17.44,0,0,1-1,2.48c.11-.19.92-2.15.22-.53-.18.41-.35.83-.53,1.24q-1,2.31-2,4.62-4.44,9.76-9.61,19.16c-2.51,4.59-1.27,11.11,3.59,13.68,4.68,2.48,11,1.31,13.68-3.58a284.5,284.5,0,0,0,33.74-169.77,293.72,293.72,0,0,0-22.85-84.34A285.71,285.71,0,0,0,994,386.16a291.54,291.54,0,0,0-75.51,44.06,283.67,283.67,0,0,0-59,65.49,286.11,286.11,0,0,0,9.92,327.11,286.73,286.73,0,0,0,144.72,102.5,283.79,283.79,0,0,0,86.12,12.83,285.49,285.49,0,0,0,225.54-112.08,282.84,282.84,0,0,0,23.47-35.84c2.53-4.58,1.27-11.12-3.59-13.69C1340.92,774.06,1334.63,775.24,1331.93,780.13Z" transform="translate(-466.33 -366.16)"/><path class="j" d="M891.86,480.37a219.55,219.55,0,0,1,25.66-13.54l3-1.33c1.86-.81-1.45.59.43-.18l1.67-.69q3.65-1.49,7.33-2.84,6.85-2.54,13.84-4.63a262,262,0,0,1,28.72-6.91q3.38-.62,6.75-1.14c1.23-.2,2.47-.38,3.7-.56l1.86-.26c-2,.27.76-.09,1.11-.13q7.5-.95,15-1.49a318.8,318.8,0,0,1,61.46,1.56l3.55.44c1.29.16-1.82-.26.27,0l1.93.27q4.2.6,8.39,1.31,7.76,1.32,15.44,3,15.45,3.35,30.56,8.08c10.11,3.17,20,6.83,29.84,10.86,2,.84-1.37-.59.65.28l1.83.78,3,1.33q3.93,1.75,7.83,3.6,7.18,3.41,14.21,7.15,14,7.48,27.31,16.3,6.62,4.39,13,9.12l3.17,2.39,1.58,1.2c-1.3-1,.43.34.57.45q3.12,2.45,6.18,5a271,271,0,0,1,24,22.29q6.2,6.55,11.83,13.62c.46.58.93,1.17,1.38,1.76-.85-1.1.64.84.65.84.89,1.19,1.78,2.39,2.65,3.59q2.61,3.61,5.06,7.33a210.87,210.87,0,0,1,17,31.19c.3.68.59,1.36.89,2.05-.57-1.33.38.92.39.95.57,1.38,1.12,2.76,1.66,4.15,1.08,2.79,2.11,5.61,3.08,8.44q2.94,8.58,5.19,17.37c.78,3,1.51,6.08,2.13,9.15.31,1.56.6,3.12.86,4.69.08.52.17,1,.25,1.56,0,.27.45,3.1.29,1.93a153.22,153.22,0,0,1,1.28,18.91,171.47,171.47,0,0,1-.89,18.95,166.56,166.56,0,0,1-2.77,17.65,230.46,230.46,0,0,1-11,36.92c-2.27,5.83-4.37,10.68-7.27,16.74q-4.15,8.73-8.9,17.17c-2.76,4.93-5.63,9.8-8.85,14.44-1.26,1.82-2.56,3.6-3.9,5.36l-.43.56c-.75,1,1.25-1.59.47-.61-.36.46-.72.93-1.09,1.39-.78,1-1.57,2-2.38,2.93a200.89,200.89,0,0,1-23.75,24.09q-3.64,3.13-7.42,6.09l-.81.63c-.78.63,1.56-1.18.38-.29-.66.5-1.32,1-2,1.5q-2.21,1.65-4.44,3.23a212.45,212.45,0,0,1-17.93,11.44A216.49,216.49,0,0,1,1187,858.07l-1.36.59c-.14.06-1.64.74-.48.21s-.34.14-.48.2l-1.39.57c-2,.83-4.07,1.62-6.13,2.39q-5.85,2.18-11.81,4a231.23,231.23,0,0,1-25.55,6.31q-3.11.57-6.22,1.07c-1.14.19-2.29.36-3.44.53l-1.74.24c2.08-.29-.55.07-.93.12q-7.18.88-14.42,1.36a266.3,266.3,0,0,1-30.82.2q-8.21-.4-16.4-1.3l-4.2-.48-2.12-.26c-2.27-.28.88.13-.49-.06-3-.42-6-.87-9-1.37a360.93,360.93,0,0,1-73.11-20.32,335.93,335.93,0,0,1-31.06-14.18q-14-7.26-27.34-15.77Q907,814.76,896,806.48c-.43-.33-3.07-2.37-1.35-1-.79-.62-1.59-1.23-2.38-1.86q-2.28-1.8-4.53-3.64-4.12-3.37-8.13-6.89a241.82,241.82,0,0,1-20-19.55c-.83-.92-1.67-1.85-2.45-2.81-2.5-3-8-2.78-10.61,0-3,3.24-2.66,7.36,0,10.61a147.09,147.09,0,0,0,10.61,11.3,317.33,317.33,0,0,0,32.59,27.78c36.83,27.63,79.16,47.55,123.61,59.39,43.16,11.5,88.65,15.29,132.69,6.61a226.2,226.2,0,0,0,89-38.56c18.92-13.75,36-30.27,49.24-49.61,11.34-16.58,20.09-35.36,27.1-54.12,9.24-24.68,14.77-51.21,14-77.65-.72-25.74-7.92-50.86-18.32-74.29a216,216,0,0,0-41.1-61.23c-30.64-32.14-69.25-56.5-110.11-73.43a349,349,0,0,0-125.55-26.57c-41.45-.9-83.24,6.23-121.14,23.32a218.41,218.41,0,0,0-24.84,13.17c-3.34,2.06-4.92,6.81-2.69,10.26s6.69,4.9,10.26,2.69Z" transform="translate(-466.33 -366.16)"/><ellipse class="p" cx="1314.44" cy="755.96" rx="79.93" ry="58.86" transform="translate(-359.45 1306.89) rotate(-67.12)"/><ellipse class="a" cx="1314.44" cy="755.96" rx="79.93" ry="58.86" transform="translate(-359.45 1306.89) rotate(-67.12)"/><path class="b" d="M1345.52,682.32a46,46,0,0,0-24.74-2.94c13.15,19.57,15,50.11,2.7,79.34-12.67,30-36.77,50.22-60.57,53.69a46.38,46.38,0,0,0,20.45,17.2c30,12.64,68.15-10.09,85.31-50.76S1375.47,695,1345.52,682.32Z" transform="translate(-466.33 -366.16)"/><path class="j" d="M1360,773.8a107.32,107.32,0,0,1-13.69,23.57l1.56-2a92.65,92.65,0,0,1-16.44,16.55l2-1.56a74.78,74.78,0,0,1-16.29,9.6l2.38-1a59.34,59.34,0,0,1-14.67,4.08l2.65-.36a49.15,49.15,0,0,1-12.88.05l2.65.36A45.38,45.38,0,0,1,1286,820l2.39,1a45.3,45.3,0,0,1-9.94-5.83l2,1.57a49.12,49.12,0,0,1-8.54-8.63l1.57,2a58,58,0,0,1-7.25-12.56c.33.8.67,1.6,1,2.39a72.92,72.92,0,0,1-5-18.58c.12.88.24,1.77.35,2.65a91.86,91.86,0,0,1,.11-23.89l-.36,2.66a107,107,0,0,1,7.44-27c-.33.79-.67,1.59-1,2.38a107.48,107.48,0,0,1,13.69-23.56l-1.56,2A92.31,92.31,0,0,1,1297.42,700l-2,1.56a74.61,74.61,0,0,1,16.3-9.6l-2.39,1a58.87,58.87,0,0,1,14.68-4.08l-2.66.35a49.58,49.58,0,0,1,12.88,0l-2.65-.36a45.38,45.38,0,0,1,11.31,3.09l-2.39-1a45.3,45.3,0,0,1,9.94,5.83l-2-1.57a49.41,49.41,0,0,1,8.54,8.62l-1.57-2a58.58,58.58,0,0,1,7.26,12.55c-.34-.79-.68-1.59-1-2.39a73.1,73.1,0,0,1,5,18.59c-.12-.88-.23-1.77-.35-2.66a91.93,91.93,0,0,1-.11,23.9l.36-2.66a107,107,0,0,1-7.44,27c-.93,2.22-.14,5.74,1,7.71a10,10,0,0,0,13.68,3.59l2-1.57a10.07,10.07,0,0,0,2.58-4.41,106.75,106.75,0,0,0,7.16-25.13,102.07,102.07,0,0,0,1-26.18,82.74,82.74,0,0,0-5.6-23.53,67.52,67.52,0,0,0-13.2-20.92,55.07,55.07,0,0,0-40.32-16.92c-14.81.2-29.37,6-41.14,14.79A107.47,107.47,0,0,0,1254,722.68c-8,16.44-12.67,34.76-12,53.13a88.08,88.08,0,0,0,4.15,24.53,80.87,80.87,0,0,0,4.92,11.68,67.1,67.1,0,0,0,6.86,10.33,53.68,53.68,0,0,0,16.54,14,56.57,56.57,0,0,0,22.49,6.56c14.42,1.21,29.25-3.79,41.26-11.54a104,104,0,0,0,33.73-36.52,112.63,112.63,0,0,0,5.38-11,7.46,7.46,0,0,0,1.18-3.72,7.63,7.63,0,0,0-.17-4,10.2,10.2,0,0,0-4.6-6,10.1,10.1,0,0,0-7.71-1C1363.72,770,1361,771.48,1360,773.8Z" transform="translate(-466.33 -366.16)"/><path class="j" d="M821.38,664.91l-1.42-.57,2.39,1a41.26,41.26,0,0,1-8.93-5.24l2,1.56a46.8,46.8,0,0,1-8.11-8.17l1.56,2a58,58,0,0,1-7.39-12.82c.34.8.68,1.59,1,2.39a73.18,73.18,0,0,1-4.85-18.23c.12.89.24,1.77.35,2.66a88.59,88.59,0,0,1,.09-23.29c-.12.89-.24,1.77-.35,2.66a97.16,97.16,0,0,1,6.68-24.43c-.33.8-.67,1.59-1,2.39a87.84,87.84,0,0,1,11.25-19.35l-1.56,2a73.37,73.37,0,0,1,12.77-12.87l-2,1.56a58,58,0,0,1,12.51-7.41l-2.39,1a47.12,47.12,0,0,1,11.75-3.29l-2.66.36a43.23,43.23,0,0,1,5.08-.37,10.38,10.38,0,0,0,7.07-2.93,10.2,10.2,0,0,0,2.93-7.07c-.24-5.36-4.4-10.09-10-10a58.18,58.18,0,0,0-33.72,11.93A80.64,80.64,0,0,0,800.11,554a95.55,95.55,0,0,0-11.65,17.8,106.24,106.24,0,0,0-11.13,43.83,86.36,86.36,0,0,0,8.31,40.3c5.22,10.77,13.93,20.64,24.8,25.91,1.83.89,3.72,1.67,5.62,2.4,2.29.87,5.68.18,7.71-1a10,10,0,0,0,3.59-13.68,11.37,11.37,0,0,0-6-4.59Z" transform="translate(-466.33 -366.16)"/><path class="h" d="M695.49,1439.14c-41.14-2.92-72.55-31.47-72.55-31.47l-8.84,68.63s-34.07-3.85-68.91,14c-57.74,29.5-27.19,87.24,8.92,104.53,42.94,20.56,112,24.69,184.46-9.58,19.74-9.34,31.78-20,35.11-37.53,7.34-38.53,11.83-70.67,16-116.47C789.64,1431.2,740.47,1442.34,695.49,1439.14Z" transform="translate(-466.33 -366.16)"/><path class="i" d="M721.8,1517.61c-17.47,21-44.22,32.73-71.28,36.2a146.87,146.87,0,0,1-64.39-6.14c-23.34-7.68-46.37-21.46-70.66-17.76-7.2,13,.33,30.27,12.67,38.54s27.93,9.72,42.78,10.21a475.51,475.51,0,0,0,178.24-28.46c8.33-3,16.94-6.57,22.62-13.37,7.11-8.51,8.24-20.36,9.06-31.42l5.37-72.26c-13.28,2-28,2.52-40.93,6.19-10.72,3.05-7.2,8.75-5.92,18.17C742.34,1479.35,735.35,1500.5,721.8,1517.61Z" transform="translate(-466.33 -366.16)"/><path class="p" d="M774.44,1543.67a9,9,0,0,0-4,.85,385.88,385.88,0,0,1-242.74,26.42c-.21.52-.37,1-.55,1.58a77.18,77.18,0,0,0,27,22.26c42.94,20.56,112,24.69,184.46-9.58,19.74-9.34,31.78-20,35.11-37.53C773.94,1546.33,774.19,1545,774.44,1543.67Z" transform="translate(-466.33 -366.16)"/><path class="b" d="M676.06,1504.35c1.94-2.8,2.2-6.39,2.39-9.79q1.6-28.3,3.2-56.61l-1.33-1.06c-33.45-7.47-57.38-29.22-57.38-29.22l-8.84,68.63s-34.07-3.85-68.91,14a74.07,74.07,0,0,0-17.52,12.11c9.76-5.08,30.71,1.25,39.9,7.3s18,13.74,28.91,15.26c7,1,14.17-.8,21.08-2.56l47.1-12C668.92,1509.28,673.54,1508,676.06,1504.35Z" transform="translate(-466.33 -366.16)"/><path class="a" d="M622.94,1407.67l-8.84,68.63s-34.07-3.85-68.91,14l-.35.19c.36.22.72.44,1.06.67,9.19,6,18,13.74,28.91,15.25,7.05,1,14.17-.79,21.08-2.55l47.1-12c4.26-1.09,8.88-2.42,11.4-6,1.94-2.79,2.2-6.39,2.39-9.79q1.31-22.95,2.6-45.91A141.59,141.59,0,0,1,622.94,1407.67Z" transform="translate(-466.33 -366.16)"/><path class="j" d="M615.87,1414.74a123.69,123.69,0,0,0,15.2,11.46,149.41,149.41,0,0,0,36.51,17.59c16.54,5.31,33.91,6.23,51.17,5.86a398.31,398.31,0,0,0,49.48-4.5c7.92-1.17,15.91-2.41,23.71-4.23l.36-.08-12.66-9.64c-1.39,15.33-2.94,30.66-4.82,45.94q-.74,6-1.55,12l.36-2.66c-2.45,18.21-5.43,36.34-8.81,54.39a62.6,62.6,0,0,1-3.47,13.06c.34-.8.68-1.59,1-2.39a41.68,41.68,0,0,1-5.31,9l1.56-2a52.31,52.31,0,0,1-9.16,9l2-1.57c-8.79,6.75-19.06,11.36-29.21,15.64l2.39-1a265.47,265.47,0,0,1-52.06,16q-7,1.37-14.14,2.33l2.66-.36a225.54,225.54,0,0,1-46,1.52q-6.06-.45-12.08-1.25l2.65.36a174.93,174.93,0,0,1-34.53-8.12c-2.9-1-5.76-2.12-8.59-3.31l2.39,1a82.18,82.18,0,0,1-18.23-10.32l2,1.56a81.52,81.52,0,0,1-14.56-14.55l1.56,2a73.77,73.77,0,0,1-9.64-16.36c.34.8.67,1.6,1,2.39a57.94,57.94,0,0,1-4-14.55l.36,2.66a47.48,47.48,0,0,1,0-12.32c-.11.89-.23,1.78-.35,2.66a43.14,43.14,0,0,1,3-10.87c-.34.79-.68,1.59-1,2.39a45.78,45.78,0,0,1,6-10.16l-1.57,2a58,58,0,0,1,10.19-10l-2,1.56a94,94,0,0,1,20.67-11.68l-2.39,1a135.57,135.57,0,0,1,34.59-9.35l-2.66.36a123.17,123.17,0,0,1,24.8-1c.51,0,1,.07,1.54.13,2.38.27,5.45-1.31,7.07-2.93a10,10,0,0,0,0-14.14l-2-1.56a10,10,0,0,0-5-1.37,82.6,82.6,0,0,0-10.9-.32,152,152,0,0,0-29.22,3.5,135.57,135.57,0,0,0-36.25,13.42c-8.44,4.62-16.52,10.66-22.48,18.28-5.4,6.91-9.62,14.73-11.2,23.45a60,60,0,0,0,.76,25.12c3.7,15.21,12.95,29.27,24.37,39.81A83,83,0,0,0,548,1602.87a152.48,152.48,0,0,0,25.56,9.93,203.91,203.91,0,0,0,60.38,7.78,253.35,253.35,0,0,0,70.25-11.31,293.63,293.63,0,0,0,38.11-14.8c9.57-4.46,19-9.85,26.53-17.33a51.91,51.91,0,0,0,14.34-25.82c2.26-10.67,4-21.49,5.74-32.25,3.73-23,6.65-46,9-69.18q.95-9.35,1.78-18.69c.28-3.07-1.64-6.08-3.94-7.86a10,10,0,0,0-8.72-1.78c-6.25,1.41-12.59,2.5-18.92,3.51q-5.37.86-10.75,1.58l2.65-.35a341.79,341.79,0,0,1-54.62,3.32,156.67,156.67,0,0,1-15.92-1.1l2.65.36a117.85,117.85,0,0,1-29.94-8.38l2.39,1a146.63,146.63,0,0,1-27.11-15.14q-2.4-1.69-4.73-3.49l2,1.57c-1.59-1.24-3.19-2.49-4.69-3.85a10.49,10.49,0,0,0-7.07-2.93,10.18,10.18,0,0,0-7.07,2.93,10,10,0,0,0,0,14.14Z" transform="translate(-466.33 -366.16)"/><path class="j" d="M628.34,1477l1.56-23.5q1.25-18.63,2.47-37.28l.57-8.55a10,10,0,0,0-17.07-7.07,11.06,11.06,0,0,0-2.93,7.07l-1.56,23.5q-1.23,18.64-2.47,37.28l-.57,8.55a10,10,0,0,0,17.07,7.07,10.91,10.91,0,0,0,2.93-7.07Z" transform="translate(-466.33 -366.16)"/><path class="h" d="M1063.68,1612c-2-32.37-15.47-80.1-29.8-127.21,0,0-33.37,19.19-74.15,22.9-48,4.37-83.7-10.9-83.7-10.9l16.76,71s-51.44,14.91-72.23,36.28c-36.73,37.75-10.86,83.77,27.12,96.4,45.17,15,110.36,2.69,177.92-40.36C1044,1648.38,1064.8,1629.79,1063.68,1612Z" transform="translate(-466.33 -366.16)"/><path class="i" d="M1013.28,1579c-4,26.27-21.65,49.61-44.8,62.66s-51.25,16.2-77.28,10.87c-14.61-3-28.58-8.49-43-12.19s-29.89-5.56-44.14-1.19c-4.13,9.67,1.16,21.34,9.61,27.59s19.26,8.22,29.7,9.41A277.94,277.94,0,0,0,1027,1632c13.42-8.9,26.85-20.16,30.72-35.79,2.78-11.17.22-22.9-2.55-34.07q-9.57-38.57-22.51-76.19c.33,1-43.11,19.87-46.81,22.36C1003.47,1530,1017.92,1548.66,1013.28,1579Z" transform="translate(-466.33 -366.16)"/><path class="p" d="M1063.68,1612c-.19-3-.47-6.12-.85-9.36l-1.15-.55a254.68,254.68,0,0,1-247.21,67.58,38.87,38.87,0,0,0-1.85,4.56,69.21,69.21,0,0,0,35.06,26.26c45.17,15,110.36,2.69,177.92-40.36C1044,1648.38,1064.8,1629.79,1063.68,1612Z" transform="translate(-466.33 -366.16)"/><path class="b" d="M954.58,1508.07a195.43,195.43,0,0,1-71.8-8.83,59.71,59.71,0,0,0-5.8,1.57l15.81,67s-51.44,14.91-72.23,36.28c-.18.18-.35.37-.52.56-1,3.77-2,7.5-3.09,11.18a110.47,110.47,0,0,1,65.9,8.3,14.14,14.14,0,0,0,14.45-1.71,170.85,170.85,0,0,1,56.08-28.13c7.86-2.25,17-4.9,20-12.51,2-5.17.41-11-1.22-16.28Z" transform="translate(-466.33 -366.16)"/><path class="a" d="M932.46,1508.21a192.82,192.82,0,0,1-49.68-9,59.71,59.71,0,0,0-5.8,1.57l15.81,67s-51.44,14.91-72.23,36.28c-.18.18-.35.37-.52.56-1,3.77-2,7.5-3.09,11.18a109.6,109.6,0,0,1,40.69.23c6.05-5.84,10.77-10.45,12.05-11.43a170.82,170.82,0,0,1,56.08-28.12c7.86-2.26,17-4.9,20-12.52,2-5.17.41-11-1.22-16.27Z" transform="translate(-466.33 -366.16)"/><path class="j" d="M871,1505.42a130.55,130.55,0,0,0,15.83,5.5,208.47,208.47,0,0,0,38.08,6.77,195.91,195.91,0,0,0,51.8-2.31,202.9,202.9,0,0,0,40.81-12,171.29,171.29,0,0,0,21.16-9.82l.27-.15-14.69-6c4.79,15.75,9.48,31.53,13.83,47.41,4,14.53,7.71,29.15,10.73,43.92,1.51,7.34,2.83,14.72,3.84,22.15l-.36-2.66c.43,3.14.79,6.28,1.07,9.44a40.65,40.65,0,0,1,.17,8.75l.36-2.66a30.8,30.8,0,0,1-2.16,7.65c.33-.79.67-1.59,1-2.39a50,50,0,0,1-6.39,10.61l1.56-2a100.6,100.6,0,0,1-18.09,17.5l2-1.56a220.39,220.39,0,0,1-22.62,14.87q-12.41,7.3-25.38,13.6-7.1,3.42-14.34,6.49l2.39-1a259.25,259.25,0,0,1-49.49,15.57q-6.64,1.34-13.36,2.24l2.66-.35a162,162,0,0,1-42.43.38l2.66.36a105.36,105.36,0,0,1-26.57-6.78l2.39,1a71.45,71.45,0,0,1-15.73-9.2l2,1.56a68.83,68.83,0,0,1-12-12l1.56,2a61.72,61.72,0,0,1-8-13.5l1,2.38a53.79,53.79,0,0,1-3.7-13.42c.12.89.24,1.78.35,2.66a50.21,50.21,0,0,1,0-13.19l-.36,2.66a52.1,52.1,0,0,1,3.62-13.14c-.34.8-.68,1.59-1,2.39a62.8,62.8,0,0,1,8.12-13.71l-1.56,2a70.59,70.59,0,0,1,12.29-12.32l-2,1.56c8.33-6.43,17.72-11.44,27.24-15.86q4-1.86,8.13-3.59l-2.39,1c9.23-3.89,18.65-7.36,28.22-10.31.63-.2,1.27-.4,1.91-.58a10.43,10.43,0,0,0,6-4.6,10.2,10.2,0,0,0,1-7.7c-1.65-5.1-6.92-8.55-12.3-7a273.67,273.67,0,0,0-26.94,9.57c-16.71,6.81-33.76,14.66-47.25,26.92a75,75,0,0,0-19.37,28.51,60.16,60.16,0,0,0-3.47,15.46,59.06,59.06,0,0,0,.67,15.48,62.6,62.6,0,0,0,10.62,25.77,80.37,80.37,0,0,0,22.1,21.43c15.74,10.31,35.26,14.13,53.78,15.11,20.4,1.07,41.08-1.91,60.78-7.12,23.46-6.2,46.08-15.83,67.37-27.41,10.83-5.88,21.63-12.15,31.52-19.52s19.19-15.63,26.09-26a45.34,45.34,0,0,0,6.73-15,35.06,35.06,0,0,0,1-8.72c-.07-2.2-.3-4.42-.52-6.62a318.39,318.39,0,0,0-5.18-33c-5-24.41-11.83-48.44-18.9-72.33q-2.76-9.3-5.59-18.6a10.13,10.13,0,0,0-14.69-6,151.78,151.78,0,0,1-16.57,7.95l2.39-1a209.08,209.08,0,0,1-37.58,11.9c-4.4.94-8.84,1.7-13.3,2.31l2.66-.36a192.57,192.57,0,0,1-50.48-.23l2.65.36a175.39,175.39,0,0,1-37.32-8.91c-.86-.32-1.72-.64-2.56-1l2.39,1h0a11.19,11.19,0,0,0-7.71-1,10,10,0,0,0-7,12.3c.74,2.3,2.27,5,4.59,6Z" transform="translate(-466.33 -366.16)"/><path class="j" d="M902.43,1565.14l-5.67-24-9-38.26-2.07-8.74c-1.2-5.09-7.29-8.6-12.3-7a10.21,10.21,0,0,0-7,12.3l5.67,24,9,38.26q1,4.37,2.06,8.73c1.2,5.1,7.29,8.61,12.3,7a10.21,10.21,0,0,0,7-12.3Z" transform="translate(-466.33 -366.16)"/><path class="j" d="M632.58,1410.33a76.81,76.81,0,0,0,.61-9.09c.17-5.15.34-10.29.54-15.43.61-15.45,1.44-30.88,2.71-46.29.78-9.44,1.72-18.87,3-28.26l-.36,2.66c1.43-10.58,3.08-21.31,6.32-31.52,1-3,2.15-6,3.38-8.87-.33.8-.67,1.6-1,2.39a174.48,174.48,0,0,1,22.1-38.42l-1.56,2a155.81,155.81,0,0,1,21.87-23q3.36-2.88,6.87-5.59l-2,1.56a231.79,231.79,0,0,1,33.26-21c12.52-6.62,25.44-12.46,38.43-18.1,7.93-3.45,15.9-6.82,23.85-10.2,2.14-.91,4-3.86,4.6-6a10.23,10.23,0,0,0-1-7.71,10.07,10.07,0,0,0-6-4.59l-2.66-.36a10,10,0,0,0-5,1.37c-12.78,5.44-25.58,10.82-38.22,16.57-11.56,5.27-23,10.85-34,17.22a217.59,217.59,0,0,0-31.17,21.78,166.4,166.4,0,0,0-26.17,28.11,173.18,173.18,0,0,0-19.83,34.81,124,124,0,0,0-5.91,15.75c-1.23,4.41-2.19,8.88-3,13.37-2.14,11.5-3.55,23.15-4.7,34.79-1.12,11.3-1.94,22.62-2.59,34q-.83,14.27-1.32,28.56c-.19,5.24-.3,10.49-.53,15.73,0,.35,0,.71-.07,1.06l.36-2.65h0c-.41,2.77-.46,5.19,1,7.71A10,10,0,0,0,628,1416.3c2-1.31,4.23-3.46,4.59-6Z" transform="translate(-466.33 -366.16)"/><path class="j" d="M885.67,1494.12c-2-6.78-3.86-13.61-5.7-20.44-3.83-14.2-7.44-28.47-10.55-42.85-1.7-7.82-3.3-15.7-4.38-23.63l.36,2.66a106.29,106.29,0,0,1-.06-28.06c-.11.89-.23,1.77-.35,2.66a106.41,106.41,0,0,1,7.31-26.66l-1,2.39a125,125,0,0,1,16.17-27.44l-1.56,2a159.37,159.37,0,0,1,12.23-14c3.53-3.61,4.18-10.62,0-14.14a246.5,246.5,0,0,1-21.9-20.85c-2.94-3.16-5.77-6.41-8.41-9.82l1.57,2a71,71,0,0,1-5.13-7.5,10.34,10.34,0,0,0-6-4.59A10,10,0,0,0,847,1280.58c4.7,8.05,11.1,15.23,17.54,21.92,5.15,5.36,10.56,10.47,16.13,15.39,1.1,1,2.2,1.94,3.33,2.88v-14.14a164.26,164.26,0,0,0-18.87,23.06A130.9,130.9,0,0,0,852.8,1353a111.64,111.64,0,0,0-8.37,43.88c.18,13.91,3.17,27.77,6.15,41.3,2.92,13.27,6.25,26.44,9.77,39.56,1.91,7.14,3.81,14.3,5.95,21.37l.09.32a10.42,10.42,0,0,0,4.59,6,10.28,10.28,0,0,0,7.71,1c5.09-1.65,8.56-6.93,7-12.31Z" transform="translate(-466.33 -366.16)"/><path class="j" d="M877.84,1311c-11.94,7.62-24.86,13.71-37.78,19.46q-5.84,2.61-11.74,5.09l2.39-1q-22.14,9.33-44.79,17.43l-3.07,1.09a10.64,10.64,0,0,0-6,4.59,10.28,10.28,0,0,0-1,7.71,10.14,10.14,0,0,0,4.6,6,10,10,0,0,0,7.71,1c8.15-2.84,16.23-5.89,24.28-9,17.17-6.65,34.25-13.69,50.85-21.68a238.39,238.39,0,0,0,24.64-13.39,10.47,10.47,0,0,0,4.59-6,10.22,10.22,0,0,0-1-7.71c-2.84-4.41-9-6.6-13.68-3.59Z" transform="translate(-466.33 -366.16)"/><path class="j" d="M787.06,1361.08l-2.52,23.83-4,37.65q-.45,4.32-.91,8.64c-.25,2.39,1.3,5.44,2.93,7.07a10,10,0,0,0,14.14,0,11.43,11.43,0,0,0,2.93-7.07l2.52-23.83q2-18.82,4-37.65c.31-2.88.61-5.76.92-8.64.25-2.39-1.3-5.44-2.93-7.07a10.15,10.15,0,0,0-7.07-2.93A10,10,0,0,0,790,1354a11.4,11.4,0,0,0-2.93,7.07Z" transform="translate(-466.33 -366.16)"/><path class="j" d="M1017.44,1408.32a18.7,18.7,0,0,0-.59,2.43,81.87,81.87,0,0,0-1.29,10.24c-.81,11.89.54,23.88,2.3,35.62a311,311,0,0,0,6.38,30.83c1.29,5.07,7.22,8.62,12.3,7a10.19,10.19,0,0,0,7-12.3,304.19,304.19,0,0,1-6.89-34.47l.36,2.65a146,146,0,0,1-1.42-29.39c.1-1.56.25-3.11.46-4.65l-.36,2.65a28.6,28.6,0,0,1,1-5.27,10,10,0,0,0-19.28-5.32Z" transform="translate(-466.33 -366.16)"/><path class="j" d="M1007.12,1421.09a244,244,0,0,0,85.91-45.61,233.07,233.07,0,0,0,19.44-17.73c3.66-3.74,4-10.46,0-14.14s-10.23-4-14.14,0a235.11,235.11,0,0,1-24,21.36l2-1.56a237.25,237.25,0,0,1-40.18,25q-6.09,3-12.35,5.63l2.39-1a236.4,236.4,0,0,1-24.38,8.71,10.39,10.39,0,0,0-6,4.6,10.21,10.21,0,0,0-1,7.7c1.64,5.08,6.93,8.58,12.3,7Z" transform="translate(-466.33 -366.16)"/><path class="j" d="M813.14,1674.48a261.09,261.09,0,0,0,113,4.59,251.73,251.73,0,0,0,50.11-14.38,261.08,261.08,0,0,0,84.51-54.68c1.49-1.44,3-2.91,4.43-4.39a5,5,0,0,0-7.07-7.07q-8.61,8.73-18,16.62c-1.6,1.33-3.21,2.65-4.83,3.94l-2.29,1.8c-.16.12-.75.57,0,0l-.5.38-1.49,1.13q-4.89,3.69-10,7.15a257.94,257.94,0,0,1-42.91,23.6l-1.34.58c-.87.37-.12,0,0,0l-.58.24-3.08,1.25c-1.86.75-3.74,1.48-5.62,2.18q-5.75,2.14-11.58,4a252.1,252.1,0,0,1-25.63,6.72q-6.75,1.4-13.58,2.42l-3.24.46c-.6.09.08,0,.17,0l-.93.12-1.86.23c-2.32.29-4.65.54-7,.75a259,259,0,0,1-27.57,1.1,256.09,256.09,0,0,1-27.53-1.87l-1.85-.23-.53-.07-3.7-.53q-3.46-.54-6.92-1.15-6.79-1.23-13.51-2.82-3.3-.8-6.58-1.66a5,5,0,0,0-2.66,9.64Z" transform="translate(-466.33 -366.16)"/><path class="j" d="M818.28,1620.64c1-.19,2-.36,3.06-.52l1.32-.2c.2,0,1-.13,0,0l.88-.11c2.05-.25,4.12-.44,6.18-.57a109.67,109.67,0,0,1,12.43-.08q3.11.15,6.19.48l1.33.15.88.11c.07,0,.81.1.21,0s.14,0,.22,0l.88.12,1.75.28a115.7,115.7,0,0,1,11.91,2.67,110.68,110.68,0,0,1,11.74,4l.62.26c-.86-.36-.14-.06,0,0l1.22.54c1.22.54,2.43,1.13,3.7,1.57a17.83,17.83,0,0,0,6.32.9,20.9,20.9,0,0,0,11.91-4.55q4.83-3.61,9.9-6.86a172.48,172.48,0,0,1,21.54-11.72l2.8-1.24,1.21-.52c-.92.39.55-.22.83-.34q2.83-1.16,5.72-2.22,5.76-2.12,11.66-3.8c6.65-1.92,13.69-4,18.83-8.85a18.25,18.25,0,0,0,5.56-10.82c.63-4.67-.31-9.29-1.63-13.76-5.23-17.71-10.83-35.32-16.24-53-.68-2.23-1.37-4.45-2.05-6.67a5,5,0,1,0-9.64,2.66l16,52.17a119.91,119.91,0,0,1,3.52,12.35c.06.31.25,1.68.14.69,0,.44.09.89.12,1.33s0,1,0,1.56c0,.22,0,.44,0,.66s-.18,1.32-.05.65,0,.12-.06.2l-.15.64a4.91,4.91,0,0,1-.48,1.49s.44-.92.17-.42c-.08.14-.15.3-.22.45a11.5,11.5,0,0,1-.66,1.13c-.09.14-.2.27-.28.41-.27.5.28-.43.3-.36s-.65.75-.74.85c-.52.56-1.11,1-1.67,1.55s.36-.31.36-.27a3.82,3.82,0,0,1-.54.38l-.84.55a23.47,23.47,0,0,1-2.08,1.16c-.36.19-.72.36-1.09.53l-.47.21c-.82.37.11-.07.23-.09a13.18,13.18,0,0,0-2.31.87c-1.5.53-3,1-4.54,1.45A188.06,188.06,0,0,0,910,1607.77q-5.07,3.06-9.92,6.45c-1.67,1.17-3.32,2.38-5,3.61a17.55,17.55,0,0,1-2.18,1.45c-.16.09-1.21.62-.64.35s-.16,0-.31.11l-.75.24c-.43.12-.87.22-1.32.32-.95.21.77,0-.2,0-.34,0-2.52.28-2.71,0,0,0,1.26.26.17,0l-.57-.13c-.38-.1-.76-.21-1.13-.34-.15,0-.94-.36-.33-.1s-.09,0-.18-.09c-.53-.25-1.08-.49-1.62-.73a122.06,122.06,0,0,0-12-4.55,114.37,114.37,0,0,0-48.93-4.39c-2.28.3-4.55.63-6.81,1-2.58.47-4.28,3.73-3.49,6.15a5.13,5.13,0,0,0,6.15,3.49Z" transform="translate(-466.33 -366.16)"/><path class="j" d="M526.34,1575.76a387.72,387.72,0,0,0,97.68,8.68,400.37,400.37,0,0,0,49.34-5,383.41,383.41,0,0,0,94.12-28.12c1.83-.8,3.64-1.63,5.45-2.46,2.38-1.1,3.16-4.73,1.8-6.84a5.15,5.15,0,0,0-6.85-1.8q-5.43,2.5-10.93,4.85l-.64.27-1.43.59-2.87,1.17q-2.78,1.13-5.57,2.19-11.25,4.34-22.78,8a387.15,387.15,0,0,1-46.85,11.51q-5.88,1.05-11.8,1.94l-2.85.41-1.54.21-.21,0-.43.06q-3,.39-5.94.74-12,1.39-24,2a386.31,386.31,0,0,1-48.24-.41q-6.07-.43-12.13-1.06-3-.32-5.94-.67l-2.86-.35-1.32-.17-.87-.11c.47.06.51.07,0,0q-12-1.65-23.79-4c-2-.39-3.91-.81-5.86-1.23-2.54-.56-5.52.76-6.15,3.49-.57,2.52.76,5.55,3.5,6.15Z" transform="translate(-466.33 -366.16)"/><path class="j" d="M676.65,1438q-1.44,25.58-2.89,51.14-.16,3-.34,6.08a9.57,9.57,0,0,1-.23,2.68s.16-.9,0-.31c0,.2-.06.41-.1.61-.09.47-.19.93-.32,1.39s-.25.77-.37,1.15c-.17.54.08-.21.11-.27-.1.18-.18.37-.28.54s-.3.46-.42.69c-.28.55.15-.29.23-.26s-.77.84-.85.92-1,.79-.45.42-.37.22-.53.32-.62.37-.94.53l-.49.25c-.14.07-1.11.46-.41.2s-.45.15-.62.21c-.35.13-.7.25-1.06.36-.77.24-1.55.46-2.33.67-2,.52-3.92,1-5.88,1.5l-12.25,3.12-24.75,6.31c-4.08,1-8.14,2.15-12.26,3-.93.2-1.87.38-2.81.53-.47.08-.94.16-1.41.22.09,0,.74-.08.15,0-.31,0-.63.07-.94.1a34.87,34.87,0,0,1-6.13.07l-.7-.06c-.08,0-.86-.11-.25,0s-.09,0-.17,0l-.6-.11c-.92-.17-1.83-.39-2.73-.65s-1.53-.47-2.29-.75c-.37-.13-.74-.29-1.12-.43s.22.1.27.12l-.73-.32a66.22,66.22,0,0,1-9.18-5.26c-5.14-3.42-10-7.36-15.58-10a74,74,0,0,0-17.61-5.9c-5.91-1.15-12.27-1.8-18.17-.22a21.74,21.74,0,0,0-4.12,1.61,5,5,0,0,0-1.79,6.85,5.12,5.12,0,0,0,6.84,1.79,7.13,7.13,0,0,0,.68-.33s-1.09.41-.6.26c.17,0,.33-.13.49-.18a14.75,14.75,0,0,1,1.69-.49c.27-.07.55-.12.82-.18s1.35-.2.48-.09.15,0,.36,0,.7-.06,1.06-.08a35.74,35.74,0,0,1,4.14,0c.72,0,1.45.11,2.17.19.19,0,1.31.11.52,0s.48.07.7.11a67.34,67.34,0,0,1,9.11,2.14c1.44.44,2.86.93,4.27,1.46.63.23,1.26.48,1.88.73,1.09.44-.63-.28.16.07l1,.45c5.62,2.57,10.47,6.4,15.57,9.85,6,4.09,12.71,7.91,20,9,8.89,1.38,17.5-.8,26.07-3l25-6.37,12.74-3.24c3.73-.95,7.54-1.76,11.2-3s7.15-2.86,9.53-5.81c2.9-3.61,3.77-7.8,4.09-12.33,1.22-17.17,1.95-34.4,2.92-51.59q.19-3.23.37-6.45a5,5,0,0,0-5-5,5.11,5.11,0,0,0-5,5Z" transform="translate(-466.33 -366.16)"/><path class="h" d="M1382.46,1023c96.61,9.55,190.76-76.39,154.43-184.1-37-109.7-204.2-117-204.2-117S1301,752,1319.93,788.6c0,0,110.87-.23,145.69,54.33,39.56,62-11.08,118.24-67.9,118.24" transform="translate(-466.33 -366.16)"/><path class="i" d="M1481.42,814.48c-34.14-37.58-85.47-50.15-136.22-54.57-7.74-.67-20.24-3.26-30.68-3a50.89,50.89,0,0,0,5.41,31.71s110.87-.23,145.69,54.33c39.56,62-11.08,118.24-67.9,118.24l-7.78,31.53s20,2.61,34.38-1.67c19.3-5.74,71.12-23.08,82.89-86.83C1513.1,872.33,1503.21,838.46,1481.42,814.48Z" transform="translate(-466.33 -366.16)"/><path class="j" d="M1284.39,863.66q9.78,2.25,19.56,4.59c11.15,2.66,22.3,5.33,33.36,8.31a160.55,160.55,0,0,1,20.18,6.68l-2.38-1a81.48,81.48,0,0,1,18.18,10.33l-2-1.56a56.62,56.62,0,0,1,9.87,9.82l-1.57-2a54.82,54.82,0,0,1,6.87,11.83c-.33-.8-.67-1.59-1-2.39a69.52,69.52,0,0,1,4.69,17.69l-.36-2.66a106.94,106.94,0,0,1-.33,27.86l.36-2.66c-1.74,12.84-5.1,25.5-8.22,38.06q-4.12,16.54-8.54,33c-.61,2.27-1.21,4.54-1.83,6.81a10.37,10.37,0,0,0,1,7.71,10,10,0,0,0,18.27-2.39q4.68-17.18,9-34.44c2.23-8.83,4.41-17.67,6.39-26.56,2.36-10.57,4.27-21.29,4.59-32.15.34-11.34-.93-23.2-5-33.84a64.26,64.26,0,0,0-8.59-16,65.92,65.92,0,0,0-6.89-7.94,77.82,77.82,0,0,0-8.16-6.67c-9.73-7.07-21.32-11.58-32.77-15-6.62-2-13.35-3.65-20.06-5.33q-19.21-4.79-38.53-9.2l-.73-.17a10.49,10.49,0,0,0-7.7,1,10,10,0,0,0-3.59,13.68,10.05,10.05,0,0,0,6,4.59Z" transform="translate(-466.33 -366.16)"/><path class="j" d="M1382.46,1033a161.14,161.14,0,0,0,77.26-11.8c24.16-10.13,46.18-25.54,62.74-46a143.3,143.3,0,0,0,20.54-33.3,141.23,141.23,0,0,0,9.33-83.16,152.92,152.92,0,0,0-12.59-39.13c-9.29-19.42-23.56-36.44-40.25-49.94-17-13.75-35.93-24.19-56-32.61a321,321,0,0,0-52.7-16.59,400.9,400.9,0,0,0-43-7.25c-3.8-.43-7.62-.81-11.44-1.09-4.06-.3-7.21-.62-10.77,2.77a46.38,46.38,0,0,0-3.86,4.31,88,88,0,0,0-8.41,12c-6.43,11.33-10.31,24.66-9.16,37.76a66.36,66.36,0,0,0,7.19,24.66,9.93,9.93,0,0,0,8.63,5c8.08,0,16.19.6,24.22,1.36q6.64.63,13.25,1.52l-2.65-.36a267.34,267.34,0,0,1,48.09,10.7c4.68,1.55,9.31,3.28,13.85,5.19l-2.38-1a126,126,0,0,1,28,16l-2-1.57a83.14,83.14,0,0,1,14.64,14.46l-1.56-2a90.81,90.81,0,0,1,11.51,20.09l-1-2.38a80.66,80.66,0,0,1,5.54,20l-.36-2.66a69.84,69.84,0,0,1,0,18.44l.36-2.66a68.05,68.05,0,0,1-4.67,16.91c.34-.79.67-1.59,1-2.39a72.64,72.64,0,0,1-9.14,15.6l1.56-2A79.38,79.38,0,0,1,1443.93,936l2-1.56a87.23,87.23,0,0,1-19.08,11.14l2.39-1a89.87,89.87,0,0,1-22.53,6.18l2.66-.36a89.41,89.41,0,0,1-11.68.8c-5.23,0-10.24,4.59-10,10a10.18,10.18,0,0,0,10,10,99.89,99.89,0,0,0,43.53-10.29,92.2,92.2,0,0,0,33.22-27.76,78.08,78.08,0,0,0,15-40.1c1.41-16.34-3.08-32.77-10.58-47.18a89.41,89.41,0,0,0-23.93-29.18A140.7,140.7,0,0,0,1422,797.73a208.74,208.74,0,0,0-32.54-10.47,321.45,321.45,0,0,0-33-5.91q-12-1.58-24-2.3c-4-.23-8-.46-12-.45h-.54l8.64,4.95c-.68-1.33-1.32-2.68-1.9-4.06.33.8.67,1.59,1,2.39a53.83,53.83,0,0,1-3.69-13.47l.36,2.66a51.16,51.16,0,0,1,0-13.2l-.36,2.66a58.31,58.31,0,0,1,4-14.54c-.34.79-.68,1.59-1,2.38a71.43,71.43,0,0,1,9.15-15.57c-.52.68-1,1.35-1.57,2a52.89,52.89,0,0,1,5.12-5.87l-7.07,2.93c4.63.2,9.25.68,13.85,1.19q4.05.45,8.1,1l-2.66-.36q14.82,2,29.45,5.15a346.8,346.8,0,0,1,36,9.75q10.93,3.63,21.56,8.08l-2.39-1a227.49,227.49,0,0,1,37.77,20.11q5.13,3.44,10,7.21l-2-1.56a152.21,152.21,0,0,1,27.39,27.12l-1.56-2a130,130,0,0,1,16.77,28.7c-.33-.8-.67-1.59-1-2.39a148.29,148.29,0,0,1,10,37.24l-.36-2.66a135.41,135.41,0,0,1,.1,35.58l.36-2.65a129.74,129.74,0,0,1-8.91,32.76c.34-.8.68-1.59,1-2.39a135.11,135.11,0,0,1-17.54,29.95l1.57-2a145.85,145.85,0,0,1-25.94,25.84l2-1.56a155.35,155.35,0,0,1-34.29,20l2.39-1a156.5,156.5,0,0,1-39.56,10.81l2.65-.36a153.14,153.14,0,0,1-35,.64c-2.4-.24-5.42,1.28-7.07,2.93a10,10,0,0,0,0,14.14,11.37,11.37,0,0,0,7.07,2.93Z" transform="translate(-466.33 -366.16)"/><path class="j" d="M1366.52,787.56c0-1,.08-2,.16-3,0-.5.08-1,.13-1.49,0-.25,0-.5.08-.75s0-.38.07-.56c0-.38,0-.25-.06.4a17,17,0,0,0,.49-3q.31-1.66.72-3.3c.49-2,1.07-4,1.75-6,.35-1,.72-2,1.12-3a3.2,3.2,0,0,1,.29-.7c-.07.07-.46,1-.07.16.23-.52.46-1,.7-1.54a67.16,67.16,0,0,1,6.36-10.87c.29-.41.59-.81.89-1.21.54-.74,0,0-.1.11a6.39,6.39,0,0,1,.47-.59c.7-.88,1.42-1.74,2.17-2.59,1.41-1.6,2.9-3.12,4.46-4.58.82-.76,1.67-1.51,2.53-2.24.48-.4,1-.79,1.46-1.18.19-.16.67-.62-.12.09.23-.2.5-.38.75-.56a62.17,62.17,0,0,1,6.15-4,5,5,0,0,0-5.05-8.63,71.43,71.43,0,0,0-33,43.14,69.16,69.16,0,0,0-2.32,15.8,5,5,0,0,0,5,5,5.11,5.11,0,0,0,5-5Z" transform="translate(-466.33 -366.16)"/><path class="j" d="M1409.37,800.27c-.2,1.45.06-.29.11-.62s.17-.94.27-1.41q.33-1.66.78-3.3a51.07,51.07,0,0,1,1.93-5.75c.09-.21.17-.45.27-.66-.53,1.1-.14.33,0,.05.19-.44.39-.87.6-1.3.48-1,1-2,1.55-3a56.19,56.19,0,0,1,3.23-5.15l1-1.3c.75-1-.47.57.31-.4s1.45-1.75,2.2-2.6a58.28,58.28,0,0,1,4.31-4.3c.8-.72,1.62-1.41,2.46-2.08a3.56,3.56,0,0,0,.56-.45c-.08.11-.89.67-.16.13l1.45-1.05a53.32,53.32,0,0,1,5.15-3.2c1-.57,2.11-1.11,3.19-1.61l.65-.3c.33-.15,1.25-.33.11-.06a14.63,14.63,0,0,0,1.66-.65,51.39,51.39,0,0,1,6.86-2,5,5,0,0,0,3.49-6.15,5.11,5.11,0,0,0-6.15-3.5c-18.09,4-33.91,17.51-41.27,34.46a60.39,60.39,0,0,0-4.5,16.25c-.35,2.6,2.55,5.11,5,5,3-.14,4.62-2.21,5-5Z" transform="translate(-466.33 -366.16)"/><path class="j" d="M1452.44,823c.16-.46.33-.91.5-1.37l.27-.67c0-.06.47-1.18.16-.42s.33-.74.4-.9c.23-.49.46-1,.7-1.48a61.64,61.64,0,0,1,3-5.39c.55-.87,1.12-1.73,1.71-2.57.28-.4.56-.79.85-1.18.14-.2.29-.39.44-.59.36-.49-.59.74,0,0,1.29-1.61,2.63-3.17,4.07-4.66s2.93-2.9,4.5-4.24l1.26-1,.57-.46c.54-.44-.71.53-.15.11.83-.61,1.65-1.23,2.5-1.81,1.75-1.2,3.56-2.32,5.42-3.34.85-.46,1.72-.91,2.59-1.33.43-.22.87-.42,1.31-.63l.66-.29c.14-.07,1.29-.54.57-.26s.08,0,.25-.09l.84-.33,1.71-.63c1.08-.38,2.18-.72,3.29-1a58.05,58.05,0,0,1,6.92-1.52c2.59-.4,4.26-3.78,3.49-6.15-.91-2.81-3.37-3.92-6.15-3.49-18,2.84-34.32,14-44.38,29.11a63.76,63.76,0,0,0-6.93,14,5,5,0,0,0,3.49,6.15,5.12,5.12,0,0,0,6.15-3.49Z" transform="translate(-466.33 -366.16)"/><path class="j" d="M1476.14,853.46a64.12,64.12,0,0,1,4.69-4.49,23.05,23.05,0,0,1,2.37-1.94c-.92.61.22-.16.51-.37.46-.34.93-.67,1.4-1a67.55,67.55,0,0,1,11.19-6.21c.22-.1.84-.43-.14.06.23-.11.48-.2.71-.29l1.43-.56c1-.38,2-.73,3.07-1.06q3-1,6.1-1.65c1-.22,2-.41,3-.59l1.51-.24c.11,0,.75-.08.76-.11-.08.17-1.06.13,0,0,2.09-.24,4.19-.39,6.29-.43a62.67,62.67,0,0,1,7.25.27c.58,0,1.14.13,1.71.18.73.08-.91-.13-.19,0l1,.14c1.26.2,2.51.44,3.76.71,2.55.56,5.53-.76,6.15-3.49.57-2.53-.76-5.55-3.49-6.15a71.27,71.27,0,0,0-53.84,9.94,68.55,68.55,0,0,0-12.26,10.21,5,5,0,0,0,7.07,7.07Z" transform="translate(-466.33 -366.16)"/><path class="j" d="M1483.3,889.68a58.68,58.68,0,0,1,6.12-1.63c.94-.2,1.88-.37,2.83-.52.25,0,.5-.08.76-.12,1.07-.17-.19,0-.19,0s1.55-.18,1.71-.19a63.26,63.26,0,0,1,12.46,0l1.52.17c.94.1,0,0-.18,0a6.63,6.63,0,0,1,.76.11c1.07.16,2.15.36,3.21.58q3,.61,6,1.52a35,35,0,0,1,6,2.14c-.14-.07-1-.43-.14,0l.7.32c.41.18.82.37,1.22.57,1,.47,2,1,2.9,1.48a62.29,62.29,0,0,1,5.87,3.64l1.55,1.13c.18.14.77.53-.1-.08.26.18.5.4.75.6,1,.76,1.86,1.56,2.76,2.38,1.93,1.76,5.19,2,7.07,0s2.07-5.19,0-7.07a68.61,68.61,0,0,0-50.74-17.56,66.3,66.3,0,0,0-15.42,2.94c-2.49.8-4.35,3.5-3.49,6.15.8,2.48,3.48,4.35,6.15,3.49Z" transform="translate(-466.33 -366.16)"/><path class="j" d="M1473.54,923.08c1.11,0,2.22.07,3.33.16.55,0,1.1.11,1.65.16.23,0,1,.1-.09,0,.35,0,.69.1,1,.15a49.31,49.31,0,0,1,6.7,1.55c1.06.32,2.11.68,3.15,1.07.52.19,1,.4,1.55.61-.17-.07-.9-.41,0,0l1,.43a48.73,48.73,0,0,1,6,3.31c.94.6,1.84,1.25,2.74,1.9.17.11.75.57,0,0l.65.52c.48.39,1,.79,1.43,1.2a52,52,0,0,1,4.63,4.64c.35.4.69.81,1,1.22.2.24,1.12,1.46.45.55.63.86,1.25,1.71,1.84,2.6a51.58,51.58,0,0,1,3.36,5.86c.23.48.46,1,.67,1.45.11.23.23.48.32.72-.42-1.15,0,.12.11.28.44,1.11.83,2.24,1.19,3.38a50,50,0,0,1,1.72,7.35c.41,2.59,3.78,4.26,6.15,3.49,2.82-.91,3.93-3.37,3.49-6.15a55.92,55.92,0,0,0-12.23-26.6A55,55,0,0,0,1490.6,916a55.62,55.62,0,0,0-17.06-2.93,5,5,0,0,0,0,10Z" transform="translate(-466.33 -366.16)"/><path class="j" d="M1447.25,949.36a51.28,51.28,0,0,1,5.19,3.32l.58.43c.8.6-.15-.07-.15-.12,0,.17,1.14.93,1.26,1,.79.66,1.55,1.34,2.3,2.05a54.13,54.13,0,0,1,4.22,4.48l.92,1.12c.76.92-.46-.62,0,0,.14.19.29.38.43.58.62.83,1.21,1.67,1.77,2.53a57.86,57.86,0,0,1,3.11,5.33c.47.91.92,1.84,1.34,2.78.1.22.19.44.29.67.29.64-.34-.85-.08-.19l.6,1.52a57.48,57.48,0,0,1,1.89,6.06c.24.93.45,1.88.63,2.83.1.47.19.94.27,1.42,0,.24.07.48.11.72s.17,1.41.09.59,0,0,0,.23.07.6.1.9c.06.6.1,1.2.14,1.81.07,1.14.11,2.29.1,3.43s-.05,2.3-.13,3.44c0,.61-.1,1.21-.16,1.81a4.57,4.57,0,0,0-.09.72l.09-.61c0,.24-.07.48-.11.72-.39,2.58.65,5.5,3.49,6.15,2.38.54,5.74-.73,6.15-3.49a60.71,60.71,0,0,0-16.83-51.35,56.65,56.65,0,0,0-12.5-9.54,5,5,0,1,0-5,8.64Z" transform="translate(-466.33 -366.16)"/><path class="j" d="M1413.73,964.43l.48.59c.27.34.51.32-.08-.1a4.94,4.94,0,0,1,.79,1.07c.55.78,1.09,1.57,1.6,2.37a52.75,52.75,0,0,1,2.88,5.14,10,10,0,0,1,1.2,2.59s-.35-.85-.14-.32l.29.71.54,1.43a58.21,58.21,0,0,1,1.72,5.64c.47,1.85.81,3.73,1.12,5.61.12.77-.15-.09,0-.2a2.34,2.34,0,0,0,.07.57c0,.44.1.89.14,1.33.09,1,.16,2,.21,3a58.26,58.26,0,0,1-.06,5.91c0,.89-.12,1.77-.22,2.66,0,.25-.06.5-.08.75-.06.59,0-.36,0-.38a6.22,6.22,0,0,0-.26,1.69,54.27,54.27,0,0,1-1.46,6.3c-.3,1-.64,2.06-1,3.07-.17.48-.35,1-.54,1.43-.09.23-.18.48-.29.7.37-.75.11-.26-.1.21-1.06,2.38-.77,5.49,1.79,6.84,2.18,1.15,5.71.76,6.84-1.79a62.42,62.42,0,0,0-.5-51.46,58.76,58.76,0,0,0-7.89-12.47c-1.65-2-5.37-1.85-7.07,0-2,2.17-1.76,4.89,0,7.07Z" transform="translate(-466.33 -366.16)"/><path class="j" d="M912.36,960.8a12.17,12.17,0,0,0-5-1.19,21.67,21.67,0,0,0-2.42.12c-3,.27-6.06.73-9.07,1.2-5.85.92-11.67,2-17.48,3.17q-3,.58-6,1.2c-.47.09-.93.17-1.39.29a7.79,7.79,0,0,0-5.44,5.29c-.59,1.61-1.14,3.23-1.7,4.85q-5.22,15-10,30.13c-4.79,15.1-9.3,30.28-13.36,45.59a458,458,0,0,0-10.37,47.31c-.36,2.34-.68,4.69-1,7-.33,2.51,1.67,5.28,3.72,6.47,3.71,2.16,7.51,4.17,11.31,6.16,10.16,5.33,20.5,10.32,31,15.07q23.82,10.82,48.39,19.89c19.13,7,38.57,13.23,58.29,18.38q16.14,4.21,32.51,7.44l4,.77c2.11.39,4.52,1.14,6.6.47.28-.09.56-.21.84-.31l5.19-2q9.87-3.84,19.61-8a154.88,154.88,0,0,0,17.09-8.06c2.28-1.32,4.34-2.86,5.16-5.54,0-.12.06-.25.09-.37.2-.73.36-1.47.54-2.2q1.17-4.87,2.36-9.74,4.17-17.13,8.4-34.23,5.22-21.11,10.56-42.17c3.05-12,6.13-24,9.43-35.95.58-2.07,1.16-4.15,1.76-6.21a7.6,7.6,0,0,0-5.24-9.23c-5-1.25-10.09-2.54-15.14-3.83q-18.89-4.83-37.74-9.86-24.5-6.54-48.88-13.44c-16.24-4.63-32.45-9.4-48.52-14.57-6.88-2.21-13.74-4.5-20.54-6.94-2.92-1.05-5.83-2.12-8.72-3.25-1.27-.49-2.53-1-3.8-1.52-.75-.31-3.33-1.41-.23-.08l-1.76-.76c-1-.46-2.07-.92-3.1-1.41a8.07,8.07,0,0,0-5.78-.75,7.65,7.65,0,0,0-4.48,3.44c-1.76,3.33-1.1,8.48,2.69,10.27,11.64,5.48,23.93,9.63,36.13,13.65,15.78,5.19,31.7,9.93,47.65,14.53q24.67,7.09,49.48,13.72,19.92,5.36,39.9,10.48c6.19,1.59,12.36,3.34,18.6,4.72l.25.07-5.24-9.23c-2.4,8.27-4.58,16.61-6.75,24.94q-4.3,16.5-8.44,33-4.2,16.75-8.32,33.52-3.3,13.38-6.57,26.79c-1,4.13-2.15,8.26-3,12.42,0,.06,0,.11,0,.17l3.44-4.48c-5.6,3.7-12.09,6.24-18.24,8.87l-1.27.53c2.57-1.09.71-.3.11,0l-2.94,1.22q-2.7,1.11-5.4,2.19-4.47,1.79-9,3.52c-1.39.54-2.78,1.08-4.18,1.6h4a550.08,550.08,0,0,1-57.46-13.79c-16.92-5-33.62-10.74-50.07-17.1q-5.52-2.13-11-4.37c-1.78-.72-3.57-1.45-5.34-2.19l-2.45-1c-1.52-.64,1.45.62.34.15l-1.59-.68q-9.28-4-18.46-8.19c-9.11-4.21-18.14-8.61-27-13.27-3.78-2-7.47-4.12-11.24-6.11l-.15-.09,3.71,6.48,0-.31c-.08.66-.17,1.33-.26,2,3.08-22.79,9-45.22,15.26-67.3,5.24-18.39,11-36.63,17.18-54.72,1.21-3.55,2.42-7.09,3.69-10.61l-5.24,5.24q10.41-2.19,20.9-4c2.61-.45,5.23-.87,7.85-1.22l-2,.26a26.61,26.61,0,0,1,6.42-.45l-2-.27c.75.1,1.59.61-1.29-.63a8.23,8.23,0,0,0,5.78.75,7.5,7.5,0,0,0,5.24-9.22C915.25,963.56,914.11,961.56,912.36,960.8Z" transform="translate(-466.33 -366.16)"/><path class="j" d="M871.57,977.68c-2.16-.74-1.19-.51-.61-.24l1.61.72c2,.9,4.06,1.79,6.1,2.66q12,5.17,24.27,9.93,18.19,7.1,36.68,13.47,23.89,8.26,48.15,15.44,28.8,8.52,58,15.52l7.8,1.83-3.49-6.15c-2,10.55-4.1,21.07-6.26,31.58-4.71,23-9.7,45.89-15.17,68.69-3.27,13.64-6.71,27.25-10.51,40.77a5,5,0,1,0,9.65,2.65c6.79-24.2,12.54-48.7,18-73.24q6.27-28.43,11.87-57,1.06-5.4,2.09-10.81c.49-2.57-.68-5.5-3.49-6.15q-29.76-6.9-59.13-15.39-24.92-7.22-49.48-15.56-19.23-6.54-38.21-13.83-7.14-2.75-14.22-5.61c-1.93-.79-3.85-1.57-5.77-2.37l-2.63-1.1-.59-.25c-.91-.38,1,.43.49.21l-1.16-.5c-3.36-1.42-6.68-2.89-10-4.38-.44-.19-.86-.4-1.32-.55a5,5,0,0,0-6.15,3.49,5.12,5.12,0,0,0,3.49,6.15Z" transform="translate(-466.33 -366.16)"/><path class="j" d="M1097.47,1018.87l-14.84,2.88-23.62,4.57-5.41,1a5,5,0,0,0-3.49,6.15,5.12,5.12,0,0,0,6.15,3.49l14.83-2.87,23.63-4.58,5.4-1c2.58-.49,4.28-3.71,3.5-6.15a5.14,5.14,0,0,0-6.15-3.49Z" transform="translate(-466.33 -366.16)"/><path class="j" d="M1105.27,1027.48a158.25,158.25,0,0,1,14.3-24.16c.66-.9,1.32-1.81,2-2.7.31-.43.63-.85,1-1.27s1.2-1.52-.31.39l.66-.83q2.19-2.79,4.49-5.49,4.62-5.43,9.65-10.5t10.45-9.82c1.76-1.54,3.54-3.06,5.35-4.54l2.67-2.15,1.42-1.12.57-.44c-1.94,1.53-.68.52-.23.18a234.52,234.52,0,0,1,23.86-16A248.33,248.33,0,0,1,1210,934.6l-1.79.76a234.51,234.51,0,0,1,45-14q6.21-1.23,12.48-2.09l-2,.27q5.86-.78,11.76-1.21a8,8,0,0,0,5.3-2.19,7.66,7.66,0,0,0,2.2-5.31c-.17-3.82-3.31-7.79-7.5-7.5a214.13,214.13,0,0,0-41.37,7.15,253.24,253.24,0,0,0-41.76,15.65,241.39,241.39,0,0,0-37.84,22.34,217,217,0,0,0-34.06,30.15,174.25,174.25,0,0,0-25.72,36.53c-.81,1.55-1.59,3.13-2.34,4.71a8.07,8.07,0,0,0-.76,5.78,7.67,7.67,0,0,0,3.45,4.48c3.34,1.76,8.46,1.09,10.26-2.69Z" transform="translate(-466.33 -366.16)"/><path class="j" d="M1050.54,1011.3q.92-2.37,1.9-4.71l-.75,1.79a161.29,161.29,0,0,1,19-33.26l1.48-2c.77-1-1,1.32-.24.32l.94-1.2c1-1.3,2.09-2.58,3.17-3.85,2.21-2.61,4.51-5.16,6.9-7.62a153.91,153.91,0,0,1,15.8-14.29l.48-.37c.73-.58-1.29,1-.55.43l1.3-1c.82-.61,1.64-1.22,2.47-1.81q2.43-1.74,4.92-3.39,5.34-3.52,11-6.57a7.58,7.58,0,0,0,2.69-10.27,7.66,7.66,0,0,0-10.26-2.69,159.87,159.87,0,0,0-38.16,29.06,169.32,169.32,0,0,0-26.44,35.6,171.66,171.66,0,0,0-10.12,21.8,7.54,7.54,0,0,0,.75,5.78,7.5,7.5,0,0,0,10.27,2.69,8.64,8.64,0,0,0,3.44-4.48Z" transform="translate(-466.33 -366.16)"/><path class="j" d="M915.05,971.07a192.49,192.49,0,0,0,16.14-30.42,249.32,249.32,0,0,0,12-34.6c1.63-6.19,3-12.45,4.06-18.76a8.17,8.17,0,0,0-.76-5.78,7.63,7.63,0,0,0-4.48-3.45c-3.63-.82-8.54,1.1-9.23,5.24a227.88,227.88,0,0,1-15,50.78c.25-.6.51-1.2.76-1.79a194.07,194.07,0,0,1-16.48,31.2c-2.17,3.29-.76,8.44,2.69,10.27a7.68,7.68,0,0,0,10.26-2.69Z" transform="translate(-466.33 -366.16)"/><path class="j" d="M966.23,986.63c10-17.48,20.54-35.27,25.21-55.07a84.72,84.72,0,0,0,2.38-19c0-3.92-3.46-7.68-7.5-7.5a7.63,7.63,0,0,0-7.5,7.5,71.43,71.43,0,0,1-.64,9.12l.27-2a106.23,106.23,0,0,1-7.68,26.39l.76-1.8c-5.12,12.08-11.74,23.38-18.25,34.74-1.95,3.4-.91,8.36,2.69,10.26a7.64,7.64,0,0,0,10.26-2.69Z" transform="translate(-466.33 -366.16)"/><path class="j" d="M1308.35,936.58a181.86,181.86,0,0,1,16.41-8.78c1.33-.63,2.68-1.24,4-1.84l2-.88c1.31-.56-.57.23.24-.1l1.43-.59c2.87-1.17,5.78-2.27,8.7-3.29a188.33,188.33,0,0,1,35.71-8.61c-1,.14-.21,0,0,0l1.76-.22,2.42-.27c1.69-.18,3.38-.34,5.08-.47,3.53-.28,7.07-.44,10.62-.51a5,5,0,0,0,0-10,190.25,190.25,0,0,0-74.65,17,183.31,183.31,0,0,0-18.82,9.9,5,5,0,0,0,5,8.63Z" transform="translate(-466.33 -366.16)"/><path class="j" d="M1241.77,1076c.69-1,1.38-1.89,2.09-2.82.31-.42.62-.83.94-1.24-.1.13-.63.81-.06.09l.72-.92c1.41-1.78,2.86-3.54,4.34-5.26q4.5-5.23,9.42-10.11t10-9.22q2.68-2.27,5.44-4.43l.61-.48c-.13.11-.81.63-.08.07l1.24-.94c.93-.7,1.88-1.4,2.82-2.08a180.51,180.51,0,0,1,23.59-14.41c2-1,4.07-2,6.14-3,1-.47,2-.92,3-1.37l1.42-.62s1.21-.52.48-.2l.48-.2q6.39-2.66,13-4.8a173,173,0,0,1,30.14-6.92c2.61-.35,4.25-3.82,3.5-6.15-.93-2.86-3.37-3.87-6.15-3.49a179.08,179.08,0,0,0-54.25,16.7,183.76,183.76,0,0,0-46.25,32.27,179.83,179.83,0,0,0-21.24,24.46c-1.54,2.13-.44,5.67,1.79,6.84a5.13,5.13,0,0,0,6.84-1.79Z" transform="translate(-466.33 -366.16)"/><path class="j" d="M1268.72,1109.67a179.61,179.61,0,0,1,19-17.52l1.27-1,.47-.38c.58-.45-.64.49-.05,0,.91-.7,1.82-1.39,2.74-2.07,1.74-1.28,3.49-2.52,5.27-3.74q5.25-3.6,10.74-6.82t11.36-6.15q2.89-1.44,5.84-2.78l2.77-1.23,1.48-.63.86-.36a184.2,184.2,0,0,1,24.32-8q7.05-1.79,14.22-3c1.19-.2,2.39-.39,3.59-.57l1.59-.23c.95-.14,0,0-.12,0,.33-.06.66-.09,1-.13q3.71-.48,7.43-.79c2.6-.22,5.13-2.14,5-5-.11-2.52-2.21-5.24-5-5a185.81,185.81,0,0,0-51.88,12,189.72,189.72,0,0,0-46.42,26,186.83,186.83,0,0,0-22.51,20.3,5,5,0,1,0,7.07,7.07Z" transform="translate(-466.33 -366.16)"/><path class="j" d="M742.07,950.8c.77-2.2,1.59-4.38,2.48-6.54.12-.29.73-1.72.29-.7.22-.5.43-1,.65-1.51.47-1.06,1-2.12,1.46-3.18a135.76,135.76,0,0,1,6.5-12.13,137.48,137.48,0,0,1,7.69-11.43l1-1.31c.45-.59-.49.62,0,0l.5-.65c.73-.91,1.46-1.82,2.21-2.71,1.49-1.79,3-3.55,4.61-5.26a137,137,0,0,1,11.24-10.84,5,5,0,0,0,0-7.07,5.14,5.14,0,0,0-7.07,0,141.1,141.1,0,0,0-34.67,45,146.75,146.75,0,0,0-6.5,15.61,5,5,0,0,0,3.49,6.15,5.13,5.13,0,0,0,6.15-3.49Z" transform="translate(-466.33 -366.16)"/><path class="j" d="M782.87,978.25q1.74-5,3.68-10,.94-2.37,1.92-4.72c.55-1.31-.4.93.16-.37.17-.39.33-.79.5-1.18.39-.91.79-1.81,1.2-2.72q4.33-9.69,9.48-19,5-9.1,10.82-17.77,3-4.41,6.08-8.71,1.5-2.05,3-4.08l.77-1c-.69.9.18-.22.26-.33l1.85-2.34q7.44-9.28,15.74-17.82a5,5,0,1,0-7.08-7.07A257.94,257.94,0,0,0,803.66,915a249.41,249.41,0,0,0-21.09,37.3q-5.22,11.4-9.34,23.27a5,5,0,0,0,3.49,6.15,5.12,5.12,0,0,0,6.15-3.49Z" transform="translate(-466.33 -366.16)"/><path class="j" d="M677.67,1227.63a95.75,95.75,0,0,1,11.56,3.78c.3.13,1.74.64.62.25.43.15.85.37,1.26.55,1,.43,1.91.87,2.85,1.33q2.74,1.32,5.39,2.84t5.17,3.2c.82.54,1.62,1.1,2.42,1.67l1.11.81.62.47c.19.14.94.74.08,0a88.66,88.66,0,0,1,9,8.14q2,2.12,3.87,4.4c.33.4.66.81,1,1.22-.68-.86.21.28.4.55.64.86,1.26,1.73,1.86,2.62a72.89,72.89,0,0,1,6.08,11c.11.25.21.5.33.75.31.68-.3-.75,0-.06.17.45.36.89.53,1.34.4,1,.78,2,1.13,3.09q1,3,1.78,6.12t1.24,6.25c0,.26.09.54.11.81,0-.17-.12-1.07,0-.11.06.48.11.95.16,1.43.11,1.08.19,2.17.25,3.26q.17,3.18,0,6.34-.07,1.54-.21,3.06c0,.48-.09,1-.15,1.43,0,.26-.05.55-.09.81.12-.68.06-.46,0,.09a59.28,59.28,0,0,1-3,11.65c-.14.4-.29.79-.45,1.19l-.27.68c-.16.41-.41.43.09-.19a14.83,14.83,0,0,0-1.21,2.65q-1.24,2.55-2.71,5c-1,1.61-2,3.18-3.14,4.69-.11.14-.23.29-.33.44-.41.56.55-.7.11-.15-.26.33-.52.67-.79,1-.62.75-1.25,1.48-1.9,2.2q-1.95,2.16-4.09,4.13c-.63.57-1.27,1.13-1.92,1.67-.37.31-.74.62-1.12.92s-.34,0,.16-.11c-.17,0-.44.33-.58.44a55.26,55.26,0,0,1-9.6,5.76c-.43.21-.87.4-1.31.6-.83.36.87-.35-.31.12-.9.36-1.81.69-2.72,1a60,60,0,0,1-6,1.64c-1.08.23-2.17.44-3.27.62l-1.51.23c1-.14.25,0,0,0l-1.07.12a65.12,65.12,0,0,1-6.55.31,62.47,62.47,0,0,1-6.42-.36c-.48,0-1-.07-1.44-.16,1.24.24-.46-.07-.71-.11-1.08-.17-2.16-.37-3.24-.59a87.39,87.39,0,0,1-12.38-3.54l-2.76-1.05c-.53-.2-1-.42-1.58-.63l-.79-.33c.44.18.46.2,0,0q-3.18-1.38-6.29-2.88c-4.07-2-8.07-4.08-12-6.26q-3.09-1.71-6.17-3.45a5,5,0,1,0-5.05,8.63c16.54,9.36,33.81,18.59,53,20.43a65.59,65.59,0,0,0,27.39-3.16,61.27,61.27,0,0,0,21.56-13,66,66,0,0,0,20.79-45.26c.87-18.54-5.77-36.85-17.26-51.25-10.9-13.66-26.3-23.47-42.81-28.91-2-.66-4-1.24-6-1.76a5,5,0,1,0-2.65,9.64Z" transform="translate(-466.33 -366.16)"/><path class="j" d="M879.35,1346.55a90.5,90.5,0,0,1,11.63-.77,64.11,64.11,0,0,1,11.67.73c-1-.19-.08,0,.41.06l1.34.21q1.54.26,3.06.57,2.85.59,5.66,1.36c1.87.51,3.71,1.1,5.53,1.75.85.3,1.69.62,2.53,1l.71.29c.1,0,.71.29.12,0s.13.06.29.13l.87.39a70.75,70.75,0,0,1,9.91,5.46c.8.53,1.59,1.08,2.37,1.64l1.07.8c.46.34-.22-.18-.25-.19a7,7,0,0,1,.76.59q2.25,1.82,4.33,3.83c1.31,1.28,2.57,2.61,3.75,4,.28.32.55.65.81,1,.15.18.9,1.15.51.63l.48.66c.32.44.64.88,1,1.33a59.54,59.54,0,0,1,5.32,9.52c.07.16.14.33.22.5.39.88-.09-.1-.08-.19,0,.27.38.94.47,1.18.33.85.64,1.7.93,2.56.59,1.72,1.09,3.47,1.51,5.23.21.88.4,1.77.57,2.66a23.61,23.61,0,0,0,.45,2.67c-.31-1-.08-.64,0-.26s0,.48.08.72c.05.42.09.84.13,1.25.08.9.14,1.8.17,2.69a53.41,53.41,0,0,1-.05,5.37c0,.83-.12,1.66-.2,2.49-.05.4-.43,1.73-.05.44a12.94,12.94,0,0,0-.22,1.41,46.43,46.43,0,0,1-1.2,5.19q-.35,1.2-.75,2.37c-.16.45-.32.9-.49,1.34-.07.17-.13.34-.2.5-.24.61-.15.51,0,0a25.8,25.8,0,0,1-2.42,4.81c-.44.77-.91,1.52-1.4,2.25a9.64,9.64,0,0,1-1.75,2.48s.56-.7.2-.26l-.48.59c-.27.34-.56.68-.85,1-.65.76-1.33,1.51-2,2.23a52.49,52.49,0,0,1-4.17,3.86c-.34.29-.68.57-1,.84a3.55,3.55,0,0,1-.44.35c.87-.53.32-.24.1-.08-.77.56-1.53,1.12-2.32,1.65-1.59,1.08-3.22,2.07-4.9,3s-3.4,1.79-5.16,2.57c-.4.18-.81.39-1.23.54,1.19-.43-.35.14-.59.23-.9.35-1.8.69-2.71,1a79.8,79.8,0,0,1-11.28,3c-1.1.21-2.21.4-3.32.57l-.82.12c-.71.1-1.43.18-2.15.26-2.38.26-4.78.43-7.18.54a184.71,184.71,0,0,1-28.69-1.39c-2.4-.27-4.8-.57-7.2-.87-2.6-.34-5.11,2.53-5,5,.14,3,2.21,4.64,5,5,19.47,2.49,39.73,4.23,58.89-1.2,16-4.53,31.24-14.15,39.5-28.9,7.78-13.89,8.37-31,3.33-45.91a66.17,66.17,0,0,0-30.66-36.53c-14.58-8.15-31.77-11.49-48.37-10.43q-3,.19-6,.59c-2.58.33-5.13,2.06-5,5,.11,2.42,2.22,5.36,5,5Z" transform="translate(-466.33 -366.16)"/><path class="j" d="M844.6,1598a88.34,88.34,0,0,1,12.28-.42c2,.06,4,.2,5.92.4.56,0,1.13.11,1.69.18.4,0,1.25.17.35,0,1,.15,2.1.31,3.14.49a90.89,90.89,0,0,1,11.95,2.91c2,.61,3.89,1.29,5.8,2l1.38.55.58.24c-.17-.07-.89-.39,0,0s1.81.8,2.7,1.23a88.86,88.86,0,0,1,12.13,6.95,5,5,0,0,0,6.84-1.8,5.13,5.13,0,0,0-1.79-6.84,96.69,96.69,0,0,0-48.77-16.31,90.73,90.73,0,0,0-14.18.34c-2.6.26-5.13,2.11-5,5,.11,2.48,2.21,5.28,5,5Z" transform="translate(-466.33 -366.16)"/><path class="j" d="M881.7,1578.83a91.28,91.28,0,0,1,12.15.69c.1,0,.8.11.17,0l.37,0,1.45.23c1,.16,1.94.34,2.9.53q3,.59,5.93,1.38t5.82,1.77c.93.32,1.85.65,2.77,1l1.37.53.59.23.56.23c-.55-.23.1,0,.18.08l.77.33,1.34.61c.95.44,1.9.9,2.83,1.37,1.75.88,3.48,1.82,5.16,2.81,2,1.18,3.94,2.42,5.83,3.75.92.64,1.83,1.3,2.72,2l.5.38c-.81-.62,0,0,.15.13l1.46,1.19c2,1.67,5.13,2.12,7.07,0,1.69-1.84,2.15-5.29,0-7.07a95.63,95.63,0,0,0-46.95-21.12,97.09,97.09,0,0,0-15.14-1.09,5,5,0,1,0,0,10Z" transform="translate(-466.33 -366.16)"/><path class="j" d="M890.53,1561.26c4.11,0,8.21.28,12.3.66,2.44.23,4.88.49,7.32.8l2,.25c1.2.16-1.17-.16,0,0l.69.09c1.4.2,2.8.4,4.19.62a262.46,262.46,0,0,1,34.09,7.43q4.53,1.32,9,2.88,2.21.78,4.38,1.64c.68.26,1.35.54,2,.81,1.09.45-1-.45,0,0l1.19.53c2.39,1,5.49.77,6.85-1.8,1.14-2.17.75-5.71-1.8-6.84a179.64,179.64,0,0,0-33.61-10.64,291.52,291.52,0,0,0-34.51-5.61c-4.69-.48-9.42-.83-14.14-.84a5,5,0,0,0,0,10Z" transform="translate(-466.33 -366.16)"/><path class="j" d="M883.59,1536.58a504.67,504.67,0,0,0,63.53,5.92c5.6.18,11.2.27,16.8.22a5,5,0,0,0,0-10,494.83,494.83,0,0,1-62.16-3.63l-4.08-.5-2.2-.29c-.3,0-1.23-.15-.06,0l-1.19-.17c-2.66-.37-5.32-.76-8-1.19s-5.51.66-6.15,3.49c-.55,2.4.73,5.71,3.49,6.15Z" transform="translate(-466.33 -366.16)"/><path class="j" d="M567.84,1488.65a52.41,52.41,0,0,1,5,1.74c.82.33-.13,0-.24-.1a6.18,6.18,0,0,0,.64.28l1.29.59c.92.44,1.84.9,2.74,1.38a88.5,88.5,0,0,1,10.51,6.58c.8.57,1.59,1.17,2.38,1.76.59.44-.64-.5-.07-.05l.63.49c.47.37.94.74,1.4,1.12,1.65,1.34,3.26,2.73,4.84,4.15a121.48,121.48,0,0,1,8.92,9c1.47,1.63,2.89,3.31,4.24,5l.15.19.24.32c.31.41.62.82.92,1.24.61.84,1.2,1.7,1.78,2.57,1.45,2.17,4.48,3.31,6.84,1.79,2.17-1.4,3.34-4.51,1.8-6.84a108.33,108.33,0,0,0-16.65-19.24,111.44,111.44,0,0,0-21.74-16.09,63.42,63.42,0,0,0-13-5.5,5,5,0,0,0-2.66,9.64Z" transform="translate(-466.33 -366.16)"/><path class="j" d="M598.22,1481.19a92.62,92.62,0,0,1,18.33,10.58l1,.72.13.1.28.22q1,.81,2,1.65c1.38,1.15,2.73,2.35,4,3.58a94.66,94.66,0,0,1,7.29,7.7c.65.76,1.28,1.54,1.9,2.32l.37.47c-.26-.33-.37-.48,0-.06l.84,1.13c1.22,1.66,2.39,3.37,3.5,5.11a5,5,0,1,0,8.63-5,98.89,98.89,0,0,0-32.16-31.44,93.24,93.24,0,0,0-11-5.68c-2.39-1-5.48-.78-6.84,1.8-1.14,2.16-.77,5.73,1.79,6.84Z" transform="translate(-466.33 -366.16)"/><path class="j" d="M620.94,1469.62A286.23,286.23,0,0,0,673,1496c2.44.94,5.59-1,6.15-3.49a5.14,5.14,0,0,0-3.49-6.15q-3.45-1.34-6.85-2.75l-.85-.36c.49.21.46.2-.08,0l-1.27-.55c-1.13-.49-2.25-1-3.37-1.49q-6.42-2.87-12.68-6.07A277.9,277.9,0,0,1,626,1461a5,5,0,0,0-6.85,1.8,5.12,5.12,0,0,0,1.8,6.84Z" transform="translate(-466.33 -366.16)"/><path class="j" d="M619.63,1447.84a422.26,422.26,0,0,0,44.84,20.2q6.49,2.49,13.09,4.76a5,5,0,0,0,6.15-3.49,5.12,5.12,0,0,0-3.5-6.15q-11.26-3.89-22.3-8.41l-2.61-1.09-.66-.27c.09,0,.64.27.11,0l-1.52-.65q-2.82-1.2-5.62-2.46-5.39-2.4-10.7-5-6.17-3-12.23-6.14c-2.32-1.21-5.54-.67-6.84,1.79-1.22,2.3-.68,5.55,1.79,6.84Z" transform="translate(-466.33 -366.16)"/></svg>