<svg xmlns="http://www.w3.org/2000/svg" viewBox="0 0 1920 1080"><defs><style>.a{isolation:isolate;}.b{fill:#1f0044;}.c,.d{fill:#0c0018;}.ai,.c,.o{opacity:0.2;}.ad,.ae,.am,.ar,.c,.d,.h,.l,.r,.u,.x{mix-blend-mode:multiply;}.aa,.ak,.d,.l,.v{opacity:0.3;}.e,.m,.n,.o{fill:#edffa1;}.e,.s{opacity:0.1;}.f{fill:#feea5f;}.g{fill:#ffae2b;}.h{fill:#ffc425;}.i{fill:#e9ff9b;}.af,.i,.q,.r,.u{opacity:0.5;}.aa,.ak,.i,.v{mix-blend-mode:screen;}.j{fill:#fb06ff;}.k{fill:#fff469;}.l,.r{fill:#ff5c54;}.m{opacity:0.05;}.n{opacity:0.15;}.p{fill:#d3fdff;}.ah,.q,.s{fill:#fff;}.t,.v{fill:#ff3ea5;}.w{fill:#9d00f2;}.am,.x{opacity:0.65;}.y{fill:#f8af00;}.z{fill:#e60067;}.aa{fill:#ffa1de;}.ab{fill:#ff5da6;}.ac,.ad,.ae{fill:#633800;}.ad,.ar{opacity:0.45;}.ae{opacity:0.6;}.af{fill:#f8ffc0;}.ag{fill:#ffea2b;}.ai{fill:#63ff70;}.aj,.ak{fill:#6fffb0;}.al{fill:#58498b;}.am,.aq{fill:#002149;}.an,.ar{fill:#40b2e7;}.ao{fill:#8feaff;}.ap{fill:#393160;}</style></defs><g class="a"><rect class="b" width="1920" height="1080"/><path class="c" d="M1920,615.32v119.5l-13.31-7.74c-140.86-81.6-401.47-222.77-382.49-138.4,7,31.08,57.17,77,126.71,127.6,37.56,27.3,80.78,55.94,125.89,84.3l8.85,5.54c44.37,27.71,90.32,55,134.35,80.49V988.28c-44.33-26.55-93.21-55.48-144.49-85.26q-25.37-14.73-51.44-29.68c-37.48-21.49-75.82-43.16-114.23-64.44-25.32-14-50.67-27.89-75.82-41.43-28.11-15.12-56-29.83-83.25-43.92l-7.08-3.63c-27.74-14.25-54.87-27.83-81-40.48-163-78.81-289.48-122.27-299.24-73.48-28.8,144-627.84-123.84-820.8-195.84C177,385.63,88.37,333.17,0,274.58V0H332.33c47.51,53.16,271.79,292.05,446,269,195.84-25.92,195.84-230.4,501.12-28.8C1460.27,359.64,1730.11,511.44,1920,615.32Z"/><path class="d" d="M1472.36,1066.76,1456.91,1080H436.14q-14.58-9.88-29.75-20.08-12.27-8.25-24.85-16.65c-98.1-65.51-208.78-137-299.28-194.93C52.21,829.12,24.4,811.41,0,795.92v-236q18.84,10,39,20.37c140.31,72.14,322.21,154,422.45,152.39,61.73-1,201.55,38.61,358.13,90.87l9.18,3.07c37.75,12.67,76.39,26,115.08,39.71,36.18,12.79,72.41,25.85,108,38.88q25.79,9.42,51,18.79l20.13,7.48c65.63,24.47,127.15,48,179.73,68.37C1404.21,1039.17,1472.36,1066.76,1472.36,1066.76Z"/><circle class="e" cx="1088.69" cy="313.65" r="72.9"/><path class="f" d="M1146.28,313.65a57.56,57.56,0,0,1-57.59,57.58h-.79a57.58,57.58,0,1,1,58.38-57.57Z"/><path class="g" d="M1146.28,313.65a57.36,57.36,0,0,1-11,33.92c-11.9-10.51-22.47-22.6-22.7-32.17-.34-14.49,12.67-29.21,21.36-37.42A57.37,57.37,0,0,1,1146.28,313.65Z"/><path class="g" d="M1087.9,371.22A57.59,57.59,0,0,1,1033.76,331c13-2.29,39.91-2.2,52,33.26Q1087,367.91,1087.9,371.22Z"/><path class="g" d="M1086.69,321.08s14-2.06,18.61,10.34-1.55,17.58-5.68,17.58S1081,338.66,1081,338.66s-1.55-4.65,0-7.75S1086.69,321.08,1086.69,321.08Z"/><path class="h" d="M1146.28,313.65a57.59,57.59,0,0,1-106.83,29.86,57.6,57.6,0,0,0,76.39-80.65A57.57,57.57,0,0,1,1146.28,313.65Z"/><path class="g" d="M1107.31,259.15a55.82,55.82,0,0,1-24.24,6.62,83.88,83.88,0,0,1-21.88-2.72,57.73,57.73,0,0,1,46.12-3.9Z"/><path class="g" d="M1053.6,280.76s19.65-2.07,24.3,3.62.52,20.68-3.62,25.33-19.64,6.2-23.26,2.07-7.24-11.38-5.69-17.06S1053.6,280.76,1053.6,280.76Z"/><path class="g" d="M1093.41,282.31s0,10.34,5.17,11.89,18.1-7.24,18.61-9.82-2.06-10.86-7.23-11.38-12.93-1.55-15,0S1093.41,282.31,1093.41,282.31Z"/><ellipse class="i" cx="1065.18" cy="292.8" rx="23.14" ry="18.47" transform="translate(87.15 806.41) rotate(-43.08)"/><path class="i" d="M1103.11,296.11c2.15,2.3,1.56,6.35-1.32,9s-7,3-9.11.72-1.56-6.35,1.32-9.05S1101,293.81,1103.11,296.11Z"/><path class="j" d="M314.69,359.58a4.08,4.08,0,1,1,5.54,2.56l1.44,4.79-1.14.35-1.45-4.83A4.06,4.06,0,0,1,314.69,359.58Z"/><path class="k" d="M342.64,393.27a18.59,18.59,0,0,1-12.43,10.6,20.92,20.92,0,0,1-13.73-1A20.46,20.46,0,0,1,304,386.4a18.06,18.06,0,0,1,1.35-9.09c.14-.32.28-.63.44-.94,4.48-9,15.76-12.9,25.73-8.64a21.1,21.1,0,0,1,9.58,8.13A18.72,18.72,0,0,1,342.64,393.27Z"/><path class="l" d="M342.64,393.27a18.59,18.59,0,0,1-12.43,10.6L304,386.4a18.06,18.06,0,0,1,1.35-9.09c.14-.32.28-.63.44-.94,2.2.44,4.73,1,7.63,1.8,17.3,4.56,24.76.5,27.68-2.31A18.72,18.72,0,0,1,342.64,393.27Z"/><path class="m" d="M310,391.15l-44.82,65.06s9.93,14.17,24.55,19.36a41.6,41.6,0,0,0,26.82.45l13-75.81Z"/><path class="n" d="M309.08,398.39l-32,54.67s5.7,8.93,12.81,11.54,19.95,2.91,19.95,2.91l15.26-64Z"/><path class="o" d="M313.78,399.53l-27.7,52.63s3.35,5.33,8.26,7A35,35,0,0,0,305,460.67l15.84-57.27Z"/><path class="j" d="M367.84,418.33c-3.37,7.88-26.17.49-53.24-11.09-18.66-8-34.48-15.87-41.41-22.58-3.12-3-4.43-5.81-3.39-8.26,3.37-7.88,28.05-4.88,55.13,6.7,14.7,6.29,27.09,13.81,34.8,20.64C366.21,409.48,369.38,414.72,367.84,418.33Z"/><path class="p" d="M359,415.26a2.13,2.13,0,1,1-1.12-2.79A2.13,2.13,0,0,1,359,415.26Z"/><path class="p" d="M278,380.63a2.12,2.12,0,1,1-1.12-2.78A2.13,2.13,0,0,1,278,380.63Z"/><path class="p" d="M318.43,403.68a2.12,2.12,0,1,1-1.12-2.78A2.13,2.13,0,0,1,318.43,403.68Z"/><path class="q" d="M335.31,376.86c-.87,2-5.12,2.14-9.49.27s-7.23-5-6.36-7.05,5.11-2.14,9.49-.27S336.17,374.84,335.31,376.86Z"/><path class="r" d="M367.84,418.33c-3.37,7.88-26.17.49-53.24-11.09-18.66-8-34.48-15.87-41.41-22.58,14.43,7.45,39,18.92,62.11,23.93,17,3.69,22.91,0,24.43-4.85C366.21,409.48,369.38,414.72,367.84,418.33Z"/><path class="q" d="M318.83,373.57c-.23.54-1.45.53-2.73,0s-2.13-1.43-1.9-2,1.45-.54,2.73,0S319.06,373,318.83,373.57Z"/><path class="j" d="M346.89,373.35a4.08,4.08,0,1,0-5.68-2.24l-4.47,2.27.55,1.06,4.49-2.28A4.08,4.08,0,0,0,346.89,373.35Z"/><path class="s" d="M1920,0V592.44q-16.34,3.12-32.72,4.93h0A439.8,439.8,0,0,1,1684.8,572.3q-20.17-7.51-39.55-17h0a441.82,441.82,0,0,1-76-47.16c-3.6-2.79-7.16-5.62-10.68-8.53a433,433,0,0,1-33.64-30.72q-6.56-6.65-12.83-13.58A439.41,439.41,0,0,1,1436.42,339c-.24-.52-.47-1.05-.7-1.57A438.73,438.73,0,0,1,1428.34,0Z"/><path class="t" d="M1920,0V516.2l-1.56.35-1.19.27c-1.53.34-3,.68-4.58,1a359.55,359.55,0,0,1-47.75,6.74c-2.46.18-4.93.34-7.39.46s-4.93.23-7.39.31q-13.52.43-27-.15c-1.71-.08-3.43-.16-5.14-.26q-3.58-.2-7.15-.48l-.7-.05c-1.57-.13-3.15-.26-4.72-.41h0c-1.57-.14-3.14-.3-4.72-.46s-3.13-.35-4.69-.54h0q-4.69-.56-9.36-1.25L1782,521q-4.67-.75-9.31-1.61h0q-4.25-.79-8.48-1.69l-.8-.16q-10.66-2.28-21.2-5.2-3-.83-6-1.72-5.4-1.59-10.75-3.36h0c-1.57-.52-3.14-1-4.7-1.59q-5.22-1.8-10.38-3.76l-2.81-1.08q-4.21-1.65-8.39-3.39t-8.3-3.6l-.66-.29q-4.12-1.86-8.21-3.81-2.72-1.31-5.42-2.66t-5.37-2.75q-2.68-1.41-5.34-2.85l-1.37-.75-.47-.27-.8-.44-2.39-1.34-.26-.14q-1.92-1.1-3.81-2.2l-1.33-.79c-2.16-1.27-4.3-2.56-6.44-3.89-.48-.28-1-.58-1.43-.87l-.32-.2-.32-.2-3.32-2.1-2.77-1.79q-9.65-6.31-18.91-13.3l-.95-.71q-2.07-1.56-4.12-3.17-3-2.31-5.91-4.71-1.59-1.28-3.18-2.61c-.83-.68-1.66-1.38-2.48-2.09h0q-2.12-1.79-4.2-3.62h0c-1-.89-2-1.78-3-2.68q-4.52-4-8.89-8.27-2.14-2.07-4.27-4.17c-1.16-1.16-2.33-2.33-3.47-3.51s-2.25-2.3-3.35-3.47l-1.51-1.59c-.89-.94-1.77-1.88-2.64-2.83l-1.35-1.47-.41-.46q-1.69-1.86-3.37-3.75c-.48-.54-1-1.08-1.42-1.63-.88-1-1.75-2-2.6-3q-1.7-2-3.34-4-1.47-1.77-2.91-3.57l-.32-.39-.14-.18h0c-.42-.51-.82-1-1.23-1.53q-11.15-14-21.11-29.46a359.85,359.85,0,0,1-46.07-105.22c-.82-3.13-1.58-6.27-2.31-9.42q-2.87-12.53-4.79-25.13-2.19-14-3.22-28-.77-10.19-.94-20.36a360.09,360.09,0,0,1,3.26-55.25q1.61-11.86,4-23.61c1.32-6.54,2.84-13,4.52-19.44A360.78,360.78,0,0,1,1518.39,0Z"/><g class="u"><path class="t" d="M1893.29,362.42q13.9-9,26.71-18.95V516.19l-1.56.36-1.19.27c-1.53.34-3,.68-4.58,1a359.55,359.55,0,0,1-47.75,6.74q-7.39.54-14.77.78a359.63,359.63,0,0,1-39.28-.9l-.7-.05q-4.73-.37-9.44-.88L1796,523h0c-3.13-.38-6.25-.79-9.36-1.25L1782,521q-4.67-.75-9.31-1.61h0q-4.25-.79-8.48-1.69l-.8-.16a362.88,362.88,0,0,1-38-10.29c-1.57-.52-3.14-1-4.7-1.59q-15.18-5.22-29.88-11.82l-.66-.29q-4.12-1.86-8.21-3.82-2.72-1.31-5.42-2.66t-5.37-2.75q-2.68-1.41-5.34-2.85l-1.36-.76c-.43-.22-.86-.46-1.28-.7l-2.39-1.34-.26-.14q-1.92-1.1-3.81-2.2v0c-3.09-1.79-6.14-3.64-9.18-5.54l-.33-.19-.32-.2-3.32-2.1q-11.07-7.12-21.66-15.1l-.95-.71c-1.39-1-2.77-2.1-4.14-3.16q-3-2.31-5.91-4.71-1.59-1.28-3.18-2.61c-.83-.68-1.66-1.38-2.48-2.09h0q-2.12-1.79-4.2-3.62-6.07-5.32-11.92-11-2.14-2.07-4.27-4.17c-1.16-1.16-2.33-2.33-3.47-3.51s-2.25-2.3-3.35-3.47l-1.51-1.59c-.89-.94-1.77-1.88-2.64-2.83l-1.35-1.47-.41-.46q-1.69-1.86-3.37-3.75c-.48-.54-1-1.08-1.42-1.63-.88-1-1.75-2-2.6-3q-1.7-2-3.34-4-1.47-1.77-2.91-3.57l-.47-.57h0a365.78,365.78,0,0,0,65.34,20.52,368.73,368.73,0,0,0,37.35,5.95q14.07,1.5,28.21,1.88,10.59.29,21.21-.05a358.55,358.55,0,0,0,76.51-10.76h0a357.26,357.26,0,0,0,55.91-19.2A363,363,0,0,0,1893.29,362.42Z"/></g><path class="v" d="M1920,63.21V273.5c-41.58,11.85-85.76.44-111.37-32.71-34.75-45-22.18-112.91,28.08-151.75C1862,69.51,1892,61.06,1920,63.21Z"/><path class="v" d="M1920,0V36.87a29.33,29.33,0,0,1-20.9-11.1c-5.7-7.38-7.17-16.82-4.87-25.77Z"/><path class="w" d="M1688.86,419.69l-.14,0q-25.35,6.93-50,12.72h0q-10.5,2.48-20.85,4.75h0q-5.58,1.21-11.11,2.38l-1,.22-.47.1h0c-32.35,6.76-63.52,11.93-93.09,15.43q-7,.84-13.93,1.54c-112.26,11.46-189-4.18-205.13-41.84-12.46-29,9.27-75,59-128.09q5-5.38,10.47-10.87c.07-.08.13-.13.19-.21A515.88,515.88,0,0,1,1404.3,233q10-9.27,21-18.72,24.54-21,53-42l.66-.49a361.38,361.38,0,0,1,3.35-55.26l-.75.5c-29.66,19.67-57.52,39.73-83,59.92q-20.43,16.15-38.76,32.38a645.72,645.72,0,0,0-51,50.08c-49,54.18-75.45,106.73-68.57,152.61a93.36,93.36,0,0,0,6.33,22.49l.21.5a93.23,93.23,0,0,0,6.38,12.28c.88,1.43,1.79,2.82,2.74,4.19a98.46,98.46,0,0,0,8.18,10.2c25.92,28.16,70.06,43.36,126.33,48,48.41,4,105.8.17,168.25-10q5.67-.9,11.38-1.9c28.6-4.93,58.2-11.14,88.43-18.48l2.37-.58.43-.1q4.3-1.05,8.61-2.13l.83-.21q9.59-2.42,19.25-5,9.15-2.41,18.35-5h0A1937.76,1937.76,0,0,0,1920,393.78V339.17C1841.12,372.32,1762.84,399.5,1688.86,419.69Z"/><g class="x"><path class="w" d="M1688.86,419.69l-.14,0q-25.35,6.93-50,12.72h0q-10.5,2.48-20.85,4.75h0q-5.58,1.21-11.11,2.38l-1,.22-.47.1h0c-32.35,6.76-63.52,11.93-93.09,15.43q-7,.84-13.93,1.54c-112.26,11.46-189-4.18-205.13-41.84-12.46-29,9.27-75,59-128.09q5-5.38,10.47-10.87c.07-.08.13-.13.19-.21A515.88,515.88,0,0,1,1404.3,233q10-9.27,21-18.72,24.54-21,53-42l.66-.49a361.38,361.38,0,0,1,3.35-55.26l-.75.5c-29.66,19.67-57.52,39.73-83,59.92q-20.43,16.15-38.76,32.38a478.17,478.17,0,0,0-47.23,52.53c-38.41,50.4-53.87,98.45-36.3,139.42,18.51,43.12,67.87,65.11,136,70.73,33.5,2.77,71.54,1.58,112.66-3,19.79-2.2,40.3-5.18,61.36-8.89q17.54-3.09,35.55-6.83h0c2.06-.42,4.13-.86,6.21-1.3q20.16-4.29,40.81-9.34,3.75-.92,7.52-1.87l2.28-.57h0c35.35-8.9,71.53-19.4,107.9-31.24h0q27.92-9.09,55.91-19.2c26-9.37,51.89-19.37,77.5-29.89V339.17C1841.12,372.32,1762.84,399.5,1688.86,419.69Z"/></g><path class="y" d="M1716.28,482.46a75.19,75.19,0,0,1,4.27,20.94,76.2,76.2,0,0,1-2.21,23.18c-.55,2.16-1.2,4.29-1.93,6.39A75.66,75.66,0,0,1,1637,583.22a77.67,77.67,0,0,1-7.85-1.25,76.48,76.48,0,0,1-15.4-5.05,74.19,74.19,0,0,1-9-4.78l-.13-.09c-1.87-1.16-3.69-2.42-5.46-3.76a73.65,73.65,0,0,1-6.69-5.71,75.77,75.77,0,0,1-6.8-7.47q-2.34-3-4.44-6.2a75.58,75.58,0,0,1-9.68-22.12c-.18-.66-.33-1.32-.49-2-.4-1.75-.74-3.51-1-5.28-.31-2-.53-3.93-.68-5.89a75.89,75.89,0,0,1,1.33-20.86c.28-1.38.6-2.74,1-4.09a75.7,75.7,0,0,1,91-54.38c1.76.42,3.5.9,5.23,1.46a75.69,75.69,0,0,1,23.43,12.28c.34.26.66.52,1,.79a75.4,75.4,0,0,1,16.27,18.08c.76,1.18,1.48,2.36,2.16,3.56A75,75,0,0,1,1716.28,482.46Z"/><g class="u"><path class="z" d="M1718.34,526.58q-.83,3.24-1.93,6.4a75.78,75.78,0,0,1-69,50.63,76.57,76.57,0,0,1-10.39-.39,77.41,77.41,0,0,1-7.86-1.25,75.81,75.81,0,0,1-24.37-9.83l-.13-.09c-1.87-1.17-3.68-2.42-5.45-3.76a72.44,72.44,0,0,1-6.7-5.71,76.94,76.94,0,0,1-6.54-7.15,77.4,77.4,0,0,0,13.74,4.32c2.6.55,5.22,1,7.85,1.25a76.77,76.77,0,0,0,10.4.38,75.74,75.74,0,0,0,69-50.63c.73-2.1,1.38-4.24,1.93-6.4a76.2,76.2,0,0,0,2.21-23.18,75.35,75.35,0,0,0-9.78-32.91c-.68-1.21-1.4-2.39-2.16-3.57a78.39,78.39,0,0,0-4.69-6.5,75,75,0,0,1,16.88,9.86c.34.26.67.52,1,.79a75.63,75.63,0,0,1,16.28,18.08c.75,1.18,1.47,2.36,2.15,3.56a75.34,75.34,0,0,1,9.78,32.92A76.2,76.2,0,0,1,1718.34,526.58Z"/></g><ellipse class="aa" cx="1657.84" cy="508.99" rx="24.18" ry="21.64" transform="translate(34.8 1119.92) rotate(-37.69)"/><path class="aa" d="M1669.26,469.66c2.2,2.85,1.4,7.15-1.78,9.61s-7.55,2.15-9.75-.7-1.4-7.15,1.78-9.61S1667.06,466.81,1669.26,469.66Z"/><path class="ab" d="M1274.62,429.17a27.76,27.76,0,0,1,.75,16.23c-.2.79-.44,1.57-.71,2.35a27.83,27.83,0,0,1-25.36,18.61,27.06,27.06,0,0,1-3.82-.14,28.32,28.32,0,0,1-8.55-2.31,29.06,29.06,0,0,1-3.3-1.76l0,0c-.69-.43-1.36-.9-2-1.39a24.38,24.38,0,0,1-2.46-2.1,28.43,28.43,0,0,1-2.5-2.74c-.57-.73-1.12-1.49-1.63-2.28a27.66,27.66,0,0,1-3.56-8.14q-.11-.36-.18-.72c-.15-.65-.27-1.3-.37-1.95s-.2-1.44-.25-2.16a27.75,27.75,0,0,1,.49-7.67c.1-.51.22-1,.35-1.51a27.84,27.84,0,0,1,33.44-20c.65.16,1.29.33,1.92.54a27.58,27.58,0,0,1,8.62,4.51l.36.29a27.93,27.93,0,0,1,6,6.65c.27.43.54.87.79,1.31A28.56,28.56,0,0,1,1274.62,429.17Z"/><g class="u"><path class="z" d="M1275.37,445.4c-.2.79-.44,1.57-.71,2.35a27.83,27.83,0,0,1-25.36,18.61,27.06,27.06,0,0,1-3.82-.14,27.77,27.77,0,0,1-11.84-4.07l-.05,0c-.69-.43-1.36-.9-2-1.39a24.38,24.38,0,0,1-2.46-2.1,26.19,26.19,0,0,1-2.4-2.63,28,28,0,0,0,7.93,2.05,27.11,27.11,0,0,0,3.82.14,27.85,27.85,0,0,0,25.37-18.61c.27-.78.5-1.56.7-2.36a27.63,27.63,0,0,0-2.78-20.62c-.25-.44-.51-.88-.79-1.31a28,28,0,0,0-1.73-2.39,27.68,27.68,0,0,1,6.21,3.62l.36.29a27.93,27.93,0,0,1,6,6.65c.27.43.54.87.79,1.31a27.65,27.65,0,0,1,2,4.4,27.76,27.76,0,0,1,.75,16.23Z"/></g><path class="aa" d="M1260.16,433.49c2.69,3.48,1.72,8.73-2.17,11.73s-9.21,2.62-11.9-.85-1.71-8.73,2.17-11.74S1257.48,430,1260.16,433.49Z"/><path class="aa" d="M1257.33,424.47a2.69,2.69,0,1,1-3.59-.26A2.54,2.54,0,0,1,1257.33,424.47Z"/><path class="ac" d="M497.24,391.6c-.32,5.13-4.36,4.74-6.23,3.55-.37-.23-1.27,0-2.49.53-4.92,2.13-15.07,9.11-16.81,9.74a2.44,2.44,0,0,1-.61.12,19.74,19.74,0,0,1-7-1.29,21.81,21.81,0,0,1-7.93-4.36c-4.05-3.95-5-8.69-5.92-13.43s.32-21.33.32-21.33a11.41,11.41,0,0,1,3.42-4.74c2.49-2,8.72,0,17.44,1.19a44.1,44.1,0,0,1,12.4,3.64,38.82,38.82,0,0,1,8.77,5.44C497.24,374.61,497.55,386.46,497.24,391.6Z"/><path class="ad" d="M488.52,395.68c-4.92,2.13-15.07,9.11-16.81,9.74-1.16.42-4.31-.05-7.64-1.17,1.12-3.23,2.59-6.88,3.9-7.91,2.49-2,5.29-6.72,10.59-5.14A62.34,62.34,0,0,1,488.52,395.68Z"/><path class="ad" d="M456.45,374.61s7.16-7.11,8.41-4.34-.94,10.27-2.18,11.06-7.47,1.58-7.47.39S456.45,374.61,456.45,374.61Z"/><path class="ae" d="M497.24,391.6c-.32,5.13-4.36,4.74-6.23,3.55-.37-.23-1.27,0-2.49.53-4.92,2.13-15.07,9.11-16.81,9.74a2.44,2.44,0,0,1-.61.12,15.53,15.53,0,0,0,1.85-1.7c4.67-5.13,15.57-10.66,17.13-14.61s-.32-7.51-2.81-17a19.31,19.31,0,0,0-3.47-7,38.82,38.82,0,0,1,8.77,5.44C497.24,374.61,497.55,386.46,497.24,391.6Z"/><path class="ac" d="M1338.25,444.47c-.26,3.37-3.63,3.11-5.19,2.33a3.73,3.73,0,0,0-2.08.35c-4.1,1.4-12.55,6-14,6.4a2.27,2.27,0,0,1-.5.08,20.65,20.65,0,0,1-5.86-.85,20.06,20.06,0,0,1-6.62-2.86c-3.37-2.6-4.15-5.71-4.93-8.82s.26-14,.26-14a7.7,7.7,0,0,1,2.86-3.11c2.07-1.3,7.26,0,14.53.78a44.9,44.9,0,0,1,10.34,2.39,34.34,34.34,0,0,1,7.31,3.58C1338.25,433.31,1338.51,441.1,1338.25,444.47Z"/><path class="ad" d="M1331,447.15c-4.1,1.4-12.55,6-14,6.4-1,.28-3.59,0-6.36-.77.92-2.12,2.16-4.52,3.25-5.2,2.07-1.29,4.41-4.41,8.82-3.37A58.62,58.62,0,0,1,1331,447.15Z"/><path class="ad" d="M1304.25,433.31s6-4.67,7-2.85-.78,6.74-1.82,7.26-6.22,1-6.22.26A44.76,44.76,0,0,1,1304.25,433.31Z"/><path class="ae" d="M1338.25,444.47c-.26,3.37-3.63,3.11-5.19,2.33a3.73,3.73,0,0,0-2.08.35c-4.1,1.4-12.55,6-14,6.4a2.27,2.27,0,0,1-.5.08,13.91,13.91,0,0,0,1.54-1.12c3.89-3.37,13-7,14.27-9.6S1332,438,1330,431.75a12,12,0,0,0-2.9-4.61,34.34,34.34,0,0,1,7.31,3.58C1338.25,433.31,1338.51,441.1,1338.25,444.47Z"/><path class="ac" d="M819.3,356.83c2.15-1.84,4,.31,4.44,1.69.09.27.62.62,1.43,1,3.25,1.59,10.94,3.87,12,4.49a1.65,1.65,0,0,1,.35.25,17.18,17.18,0,0,1,3,4,16.58,16.58,0,0,1,2.21,5.59c.46,3.52-.91,5.82-2.29,8.12s-8.42,8.11-8.42,8.11a6.41,6.41,0,0,1-3.52.15c-2-.46-4.29-4.28-8.12-9a37.2,37.2,0,0,1-4.68-7.51,28.63,28.63,0,0,1-2.2-6.42C812.72,363.41,817.16,358.67,819.3,356.83Z"/><path class="ad" d="M825.17,359.54c3.25,1.59,10.94,3.87,12,4.49a13.9,13.9,0,0,1,3.3,4.2c-1.8.71-3.94,1.39-5,1.15-2-.46-5.21,0-7.2-3.21A51.13,51.13,0,0,1,825.17,359.54Z"/><path class="ad" d="M832.77,383.47S826.5,382.7,827,381s4.44-3.52,5.35-3.22,4.29,3.07,3.83,3.52A37.43,37.43,0,0,1,832.77,383.47Z"/><path class="ae" d="M819.3,356.83c2.15-1.84,4,.31,4.44,1.69.09.27.62.62,1.43,1,3.25,1.59,10.94,3.87,12,4.49a1.65,1.65,0,0,1,.35.25A9.93,9.93,0,0,0,836,364c-4.29-.31-11.79-3.52-14.09-2.76s-2.75,3.06-5.2,8a10,10,0,0,0-1,4.43,28.63,28.63,0,0,1-2.2-6.42C812.72,363.41,817.16,358.67,819.3,356.83Z"/><path class="ac" d="M1240,534.59c1.83,2.14-.31,4-1.69,4.44-.27.09-.62.62-1,1.43-1.59,3.25-3.87,10.94-4.49,12a2.11,2.11,0,0,1-.25.35,17.18,17.18,0,0,1-4,2.95A16.54,16.54,0,0,1,1223,558c-3.52.46-5.81-.92-8.11-2.29s-8.11-8.42-8.11-8.42a6.35,6.35,0,0,1-.16-3.52c.46-2,4.29-4.29,9-8.12a37.44,37.44,0,0,1,7.51-4.69,29.5,29.5,0,0,1,6.42-2.2C1233.41,528,1238.16,532.45,1240,534.59Z"/><path class="ad" d="M1237.29,540.46c-1.59,3.25-3.87,10.94-4.49,12a13.9,13.9,0,0,1-4.2,3.3c-.71-1.8-1.4-3.94-1.16-5,.46-2,0-5.21,3.22-7.2A49.27,49.27,0,0,1,1237.29,540.46Z"/><path class="ad" d="M1213.36,548.06s.77-6.27,2.45-5.81,3.52,4.43,3.21,5.35-3.06,4.29-3.52,3.83A37,37,0,0,1,1213.36,548.06Z"/><path class="ae" d="M1240,534.59c1.83,2.14-.31,4-1.69,4.44-.27.09-.62.62-1,1.43-1.59,3.25-3.87,10.94-4.49,12a2.11,2.11,0,0,1-.25.35,13,13,0,0,0,.25-1.57c.31-4.29,3.52-11.79,2.76-14.09s-3.06-2.75-8-5.2a10.13,10.13,0,0,0-4.43-1,29.5,29.5,0,0,1,6.42-2.2C1233.41,528,1238.16,532.45,1240,534.59Z"/><polygon class="af" points="473.93 150.01 478.18 154.74 558.01 83.8 473.93 150.01"/><circle class="ag" cx="476.98" cy="151.57" r="3.23"/><polygon class="af" points="579.47 52.88 581.77 55.44 625.03 17 579.47 52.88"/><path class="ag" d="M582.87,53.72A1.75,1.75,0,1,1,581.12,52,1.75,1.75,0,0,1,582.87,53.72Z"/><polygon class="af" points="390.93 146.5 392.72 148.48 426.19 118.74 390.93 146.5"/><circle class="ag" cx="392.22" cy="147.15" r="1.35"/><path class="ag" d="M120.52,503.61A29.31,29.31,0,0,1,147,529.72a29.31,29.31,0,0,1,26.48-26.11c-21.82,0-25-12.25-26.48-26.12C145.55,491.36,144.72,503.61,120.52,503.61Z"/><path class="ag" d="M130.68,203.17a51.56,51.56,0,0,1,46.57,45.92,51.56,51.56,0,0,1,46.57-45.92c-38.37,0-44-21.53-46.57-45.91C174.7,181.64,173.24,203.17,130.68,203.17Z"/><path class="ag" d="M1804.41,646.41a31.91,31.91,0,0,1,28.82,28.42,31.93,31.93,0,0,1,28.83-28.42c-23.75,0-27.25-13.33-28.83-28.42C1831.66,633.08,1830.76,646.41,1804.41,646.41Z"/><path class="ag" d="M1114.55,629.42A44.45,44.45,0,0,1,1154.69,669a44.43,44.43,0,0,1,40.13-39.57c-33.07,0-37.94-18.56-40.13-39.57C1152.49,610.86,1151.23,629.42,1114.55,629.42Z"/><path class="ag" d="M1172.47,204.14a53.92,53.92,0,0,1,48.69,48,53.9,53.9,0,0,1,48.68-48c-40.12,0-46-22.51-48.68-48C1218.49,181.63,1217,204.14,1172.47,204.14Z"/><path class="ag" d="M399.82,480a32.06,32.06,0,0,1,28.94,28.55A32.07,32.07,0,0,1,457.71,480c-23.85,0-27.36-13.38-28.95-28.54C427.18,466.64,426.27,480,399.82,480Z"/><path class="ag" d="M697.83,108.63a32.06,32.06,0,0,1,28.95,28.55,32.06,32.06,0,0,1,29-28.55c-23.86,0-27.37-13.38-29-28.54C725.2,95.25,724.29,108.63,697.83,108.63Z"/><path class="ah" d="M1455.5,531.54h5.34V526.2a3.58,3.58,0,0,1,3.58-3.59h0a3.59,3.59,0,0,1,3.59,3.59v5.34h5.33a3.58,3.58,0,1,1,0,7.16H1468V544a3.58,3.58,0,0,1-3.59,3.58h0a3.58,3.58,0,0,1-3.58-3.58V538.7h-5.34a3.58,3.58,0,1,1,0-7.16Z"/><path class="ah" d="M200.54,83.27h5.34V77.94a3.58,3.58,0,0,1,3.58-3.59h0a3.59,3.59,0,0,1,3.59,3.59v5.33h5.33a3.59,3.59,0,1,1,0,7.17h-5.33v5.34a3.58,3.58,0,0,1-3.59,3.58h0a3.58,3.58,0,0,1-3.58-3.58V90.44h-5.34a3.59,3.59,0,0,1,0-7.17Z"/><path class="ah" d="M461.22,118.77h5.33v-5.34a3.58,3.58,0,0,1,3.59-3.58h0a3.58,3.58,0,0,1,3.58,3.58v5.34h5.34a3.59,3.59,0,0,1,0,7.17h-5.34v5.34a3.58,3.58,0,0,1-3.58,3.58h0a3.58,3.58,0,0,1-3.59-3.58v-5.34h-5.33a3.59,3.59,0,1,1,0-7.17Z"/><path class="ah" d="M775.22,346.77h5.33v-5.34a3.58,3.58,0,0,1,3.59-3.58h0a3.58,3.58,0,0,1,3.58,3.58v5.34h5.34a3.59,3.59,0,0,1,0,7.17h-5.34v5.34a3.58,3.58,0,0,1-3.58,3.58h0a3.58,3.58,0,0,1-3.59-3.58v-5.34h-5.33a3.59,3.59,0,1,1,0-7.17Z"/><path class="ah" d="M868.44,143.75h5.34v-5.33a3.58,3.58,0,0,1,3.58-3.59h0a3.58,3.58,0,0,1,3.58,3.59v5.33h5.34a3.59,3.59,0,0,1,0,7.17h-5.34v5.34a3.58,3.58,0,0,1-3.58,3.58h0a3.58,3.58,0,0,1-3.58-3.58v-5.34h-5.34a3.59,3.59,0,1,1,0-7.17Z"/><path class="ah" d="M1305.78,113.51h5.33v-5.33a3.59,3.59,0,0,1,3.59-3.59h0a3.58,3.58,0,0,1,3.58,3.59v5.33h5.34a3.59,3.59,0,0,1,0,7.17h-5.34V126a3.58,3.58,0,0,1-3.58,3.58h0a3.58,3.58,0,0,1-3.59-3.58v-5.34h-5.33a3.59,3.59,0,1,1,0-7.17Z"/><circle class="ai" cx="417.52" cy="81.16" r="52.49"/><path class="aj" d="M450.54,66.21a36.2,36.2,0,0,1,2.72,21c-.18,1-.4,2.09-.67,3.12a36.23,36.23,0,0,1-35.88,27.1,36.72,36.72,0,0,1-11.34-2.09,34.5,34.5,0,0,1-4.46-1.93l-.07,0c-.94-.48-1.86-1-2.75-1.58a33.53,33.53,0,0,1-3.42-2.46,36.5,36.5,0,0,1-3.54-3.29c-.82-.88-1.61-1.81-2.36-2.78a36.47,36.47,0,0,1-5.49-10.17c-.11-.31-.21-.62-.31-.93-.26-.82-.49-1.65-.69-2.48s-.4-1.85-.55-2.78a36.43,36.43,0,0,1-.19-10c.08-.67.18-1.33.3-2a36.23,36.23,0,0,1,41.24-29.52c.85.13,1.71.29,2.55.49a36,36,0,0,1,11.66,4.94l.5.33a36.35,36.35,0,0,1,8.48,8c.4.54.79,1.07,1.17,1.62A36.1,36.1,0,0,1,450.54,66.21Z"/><g class="u"><path class="aj" d="M453.26,87.17c-.18,1-.4,2.09-.67,3.13a36.24,36.24,0,0,1-35.88,27.09,37,37,0,0,1-3.79-.29,36.41,36.41,0,0,1-7.55-1.8,34.5,34.5,0,0,1-4.46-1.93l-.07,0c-.94-.48-1.85-1-2.75-1.58a33.53,33.53,0,0,1-3.42-2.46,34.66,34.66,0,0,1-3.4-3.15,36.92,36.92,0,0,0,6.72,1.52c1.26.16,2.53.25,3.8.29a37.59,37.59,0,0,0,5-.23,36.29,36.29,0,0,0,30.91-26.86c.26-1,.49-2.08.66-3.13a36.09,36.09,0,0,0-2.71-21,35.63,35.63,0,0,0-3.1-5.5c-.38-.55-.77-1.08-1.17-1.62a36.79,36.79,0,0,0-2.5-2.91,35.59,35.59,0,0,1,8.44,4l.5.33a36.35,36.35,0,0,1,8.48,8c.41.54.79,1.07,1.17,1.62a36.1,36.1,0,0,1,6,15.31A36.87,36.87,0,0,1,453.26,87.17Z"/></g><ellipse class="ak" cx="423.71" cy="81.16" rx="11.57" ry="10.35" transform="translate(56.14 307.02) rotate(-42.41)"/><path class="ak" d="M427.6,62a3.51,3.51,0,1,1-4.67,0A3.31,3.31,0,0,1,427.6,62Z"/><polygon class="al" points="1588.32 549.96 1563.67 620.99 1553.6 650.08 1514.09 651.62 1485.61 628.33 1459.56 628.28 1427.14 574.4 1462.87 568.98 1505.71 562.49 1552.78 555.36 1588.32 549.96"/><path class="am" d="M1505.71,562.49l8.38,89.13-28.48-23.29-11.76-37s-8.45-15.37-11-22.31Z"/><polygon class="am" points="1588.32 549.96 1563.67 620.99 1552.78 555.36 1588.32 549.96"/><path class="an" d="M1588.38,550h-.06c-.28-.08-1,.31-2.2,1.06-8.82,5.73-40.3,32.62-51.15,35.85-12.27,3.65-26.48,1.57-33.83,3.07s-70-14.45-74-15.54c0,0,0-.4,0-1.09-.11-3.75-.3-16,1.8-18.42,2.5-2.8,12.71-5.27,17.91-11.69s48.72-16.44,64.17-15.76c14.9.66,75.18,21.58,77.35,22.5Z"/><path class="ao" d="M1523.48,579.68c4.78-1,51.85-23.48,62.64-28.66-8.82,5.73-40.3,32.62-51.15,35.85-12.27,3.65-26.48,1.57-33.83,3.07s-70-14.45-74-15.54c0,0,0-.4,0-1.09l40.22,6.37S1518.08,580.76,1523.48,579.68Z"/><path class="an" d="M1588.38,550h-.06v0Z"/><polygon class="al" points="289.15 551.66 272.63 592.06 255.18 604 246.91 635.22 216.61 649.91 155.09 547.07 172.02 547.64 289.15 551.66"/><path class="am" d="M289.15,551.66l-16.52,40.4-24.8-32.14-19.28-4.59s16.53,75.3,18.36,79.89l-30.3,14.69-39.48-72.54L172,547.64Z"/><polygon class="an" points="289.15 551.66 262.52 569.1 177.13 577.37 155.09 547.07 279.97 539.72 285.78 547.28 289.15 551.66"/><polygon class="ao" points="289.15 551.66 262.52 569.1 177.13 577.37 155.09 547.07 181.04 567.8 254.48 563.48 285.78 547.28 289.15 551.66"/><polygon class="al" points="1017.32 123.64 1005.82 151.74 993.68 160.05 987.93 181.77 966.85 191.99 924.05 120.44 935.83 120.84 1017.32 123.64"/><path class="am" d="M1017.32,123.63l-11.5,28.11-17.25-22.36-13.41-3.19s11.5,52.39,12.77,55.58L966.85,192l-27.47-50.47-3.55-20.68Z"/><polygon class="an" points="1017.32 123.63 998.79 135.77 939.38 141.52 924.05 120.44 1010.93 115.33 1016.54 122.62 1017.32 123.63"/><polygon class="ao" points="1017.32 123.63 998.79 135.77 939.38 141.52 924.05 120.44 942.44 135.8 996.44 130.4 1016.54 122.62 1017.32 123.63"/><polygon class="al" points="958.45 508.05 957.62 542.31 957.61 542.98 944.29 549.48 928.81 540.71 918.78 541.75 911.24 542.53 896 525.98 904.63 523.04 920.95 517.45 924.74 516.16 935.47 513.58 958.45 508.05"/><polygon class="am" points="928.81 540.71 918.78 541.75 904.63 523.04 920.95 517.45 928.81 540.71"/><polygon class="am" points="958.45 508.05 957.62 542.31 939.99 515.65 935.47 513.58 958.45 508.05"/><path class="an" d="M958.44,508.05l-9.88,12-21.65,11.38L896,526l-.61-.77-2.18-2.73,10-11.5s10.7-9.5,20.52-14.87,32.11,2.3,32.11,2.3l.55,2.06Z"/><polygon class="ao" points="958.44 508.05 948.56 520.04 926.91 531.42 896 525.98 895.39 525.21 934.88 519.2 953.24 509.48 956.44 500.47 958.44 508.05"/><polygon class="al" points="838.76 543.39 743.14 769.4 682.8 759.27 622.41 749.12 544.08 684.94 542.24 683.44 497.81 680.54 403.16 551.12 447.59 536.63 535.37 538.15 652.8 540.18 710.01 541.16 780.05 542.38 838.76 543.39"/><polygon class="am" points="788.54 580.09 743.14 769.4 682.8 759.27 717.06 566.57 749.9 544.36 710.01 541.16 653.32 536.63 652.8 540.18 622.41 749.12 544.08 684.94 529.69 552.08 535.37 538.15 540.31 526 550.94 519.24 726.72 524.07 779.84 541.46 780.05 542.38 788.54 580.09"/><path class="an" d="M838.76,543.39l-45.4,37.67L720,568.5s-67.78,13.38-77.36,16.14l-.22.06-.65.22c-4.83,1.93-112-2.9-112-2.9l-126.53-30.9s44.43-29.94,49.26-31.88,82.1-28,82.1-28l119.76,15.46,77.27,1.93Z"/><path class="ao" d="M535.28,575.36l106.45,9.56c-4.83,1.93-112-2.9-112-2.9l-126.53-30.9Z"/><path class="ao" d="M794.48,571l44.28-27.65-45.4,37.67L720,568.5s-67.78,13.38-77.36,16.14l74.12-24.4Z"/><path class="ao" d="M1027.76,560.24l-.43,0C1027.75,559.88,1027.9,559.89,1027.76,560.24Z"/><polygon class="ap" points="1337 908.36 1302.73 999.85 1272.7 1080 0 1080 0 863.45 82.26 848.34 104.36 844.28 601.43 898.35 620.6 900.44 740.93 901.77 742.29 901.78 785.63 902.26 847.57 902.95 947.9 904.06 1051.85 905.21 1155.97 906.36 1337 908.36"/><path class="aq" d="M776.15,967.86c0,27.43.12,68.19.31,112.14H634l-13.61-76-.16-.89L511.63,972.43,149.72,870.2l324,47.52,131.38,1.12-3.67-20.49,19.17,2.09,120.33,1.33,2.79-3.49-1.43,3.5,43.34.48-9.51,30.58v6C776.12,944.81,776.13,954.83,776.15,967.86Z"/><path class="an" d="M1337,908.36l-214,23.12L970.52,948l-17.74,1.82-91.39,9.35-85.24,8.73-8.42.86,1.91-1.32-108-8.64-60.48-2.16-95-4.32-15.66-5.22L447.8,932.84l45.36,28.08,1.95.08,52,2.08,74.48,40.43-1.29.48-47.27,17.41-166.69,38.52L319.48,1080H0V776.75c64-17.46,154.6-41.07,167-38.31,7.77,1.73,104.88,15.18,218.69,30.72,38.32,5.23,78.53,10.7,117.86,16,136.16,18.46,261.77,35.33,261.77,35.33l54.29,3,8.54.48,134.18,7.49,228.51,12.76,65.21,28.59Z"/><polygon class="ao" points="621.64 1003.51 620.35 1003.99 573.08 1021.4 406.39 1059.92 319.48 1080 205.26 1080 381.54 1043.27 448.52 1029.32 533.48 987.56 511.63 972.43 495.11 961 547.16 963.08 621.64 1003.51"/><path class="ao" d="M1337,908.36,970.52,948,767.73,968.72l1.91-1.32-108-8.64-60.48-2.16-95-4.32-15.66-5.22L594,934.28,821.48,940l280.8-15.84s82-27.16,153.77-51.33Z"/><polygon class="al" points="1920 906.5 1920 1080 891.12 1080 861.39 959.13 856.21 938.08 847.57 902.95 828.79 826.62 828.15 824.03 819.32 788.12 923 818.36 973.84 819.14 1063.4 820.52 1083.14 820.95 1348.86 826.69 1463 829.16 1490.57 833.82 1599.97 852.34 1599.99 852.34 1724.07 873.34 1797.86 885.83 1920 906.5"/><path class="aq" d="M1350,819.08l-1.1,7.61L1337,908.36l-177.74.89s9.32,83.69,17.66,170.75h-57.76l-25.3-190.06s-7.29-39.35-10.72-69c-1.67-14.36-2.43-26.44-1-30.67,4.32-13,8.64,0,8.64,0Z"/><polygon class="aq" points="952.78 949.78 966.68 1080 891.12 1080 861.39 959.13 856.21 938.08 847.57 902.95 828.79 826.62 828.15 824.03 819.32 788.12 923 818.36 973.84 819.14 962.33 831.52 942.44 852.92 943.87 866.33 947.9 904.06 950.96 932.74 952.78 949.78"/><path class="aq" d="M1655.24,873.8s-30.24,99.36-34.56,106.56-203,13-203,13V1080h-29.23L1376.6,969.56l103-126c2.13-1.07,6.43-5.09,11-9.74,7.78-7.91,16.35-17.62,16.35-17.62l93,36.14h0Z"/><polygon class="aq" points="1920 906.5 1920 1080 1698.31 1080 1688.62 1034.36 1683.99 1012.59 1676.84 978.92 1775.51 903.02 1797.86 885.83 1920 906.5"/><polygon class="al" points="1305.32 708.2 1200.6 704.03 1229.72 779.48 1536.44 824.84 1724.36 865.88 1862.6 796.76 1845.32 764.36 1478.12 703.88 1305.32 708.2"/><polygon class="aq" points="1535.72 757.88 1551.56 860.84 1659.56 909.8 1694.84 771.56 1635.8 733.4 1535.72 757.88"/><polygon class="aq" points="1376.05 729.08 1390.64 851.84 1417.64 848.6 1419.79 739.71 1473.8 736.28 1470.56 704.96 1410.08 710.36 1393.88 710.36 1376.05 729.08"/><path class="an" d="M1920,726.21v283l-76.84,27.35-64.8-2.16H1571l-62.64-19.44-90.72-21.6,8.6-3.68,112.36-48.16-162,28.08L1329.08,948s-126.55-26.89-169.82-38.71l36.62-31.13,76.32,8.64L1300.34,863l9.3-7.87-38.88,15.84-37.44-1.44-31.68-4.32-107.78,24.78c-60.29-15.52-151.42-37-151.42-37l-123.12-64.8S1018,770.84,1041.8,762.2c9.32-3.39,31.6-12.43,55.24-22.16l74.36,13.52,185.76-4.32,252.68,59.66,58.36,13.78,117.45-16.56,51-7.2L1783,800.41l-6.21.17-95.64,2.66L1534,767.47l-114.23-27.76,19.45-2.71,11.53-13.45,5.75-6.71-12.83,3.08-23.17,5.56-44.47,3.6-5.93-1.44-159.84-6.48L1200.6,704c38.75-6,111-17,162-24.59,31.29-4.64,54.56-8,57.16-8,8.64,0,110.16,32.4,146.88,38.88,12.24,2.16,45.35,4.08,84.23,5.92,34.71,1.64,74,3.22,107.14,4.85,41.1,2,72.72,4.12,74.31,6.51,2.08,3.13,37.86,1.73,74.33-.56C1911.14,726.8,1915.59,726.51,1920,726.21Z"/><polygon class="aq" points="1557.2 1080 1546.43 1080 1550.12 1039.4 1557.2 1080"/><polygon class="aq" points="1276.81 1080 1262.15 1080 1253.48 994.76 1276.81 1080"/><polygon class="aq" points="859.04 1080 827.71 1080 834.44 984.68 859.04 1080"/><path class="ar" d="M1920,726.21v283l-76.84,27.35-64.8-2.16H1571l-62.64-19.44-90.72-21.6,8.6-3.68c56.52.59,110.44-2.42,149.8-12.16,133.92-33.12,295.2-128.16,292.32-171.36s-82.08-21.6-118.08-31.68,85-1.44,90.72-24.48c3.25-13-42.45-22.77-83-28.83,41.1,2,72.72,4.12,74.31,6.51,2.08,3.13,37.86,1.73,74.33-.56C1911.14,726.8,1915.59,726.51,1920,726.21Z"/><path class="ao" d="M1201.64,865.16l-107.78,24.78c-60.29-15.52-151.42-37-151.42-37l-123.12-64.8L991.4,852.2,1144,872.36Z"/><path class="ao" d="M1367.24,958.76l171.36-17.28-162,28.08L1329.08,948s-126.55-26.89-169.82-38.71l36.62-31.13,76.32,8.64L1300.34,863l7.86-3.55-20.16,36-61.92,2.88,7.2,15.84,100.8,24.48Z"/><polygon class="ao" points="1920 997.34 1920 1009.17 1843.16 1036.52 1778.36 1034.36 1571 1034.36 1508.36 1014.92 1417.64 993.32 1538.6 941.48 1463.72 990.44 1584.68 1012.04 1683.99 1012.59 1842.44 1013.48 1920 997.34"/><polygon class="ao" points="1391.72 721.16 1456.52 716.84 1420.52 725.48 1376.05 729.08 1370.12 727.64 1210.28 721.16 1200.6 704.03 1223.24 710.36 1391.72 721.16"/><polygon class="ao" points="1828.04 796.76 1783.01 800.41 1681.16 803.24 1419.79 739.71 1439.24 737 1456.52 716.84 1447.88 731.96 1687.64 798.92 1828.04 796.76"/><path class="an" d="M477.16,868.62l7.09.83C483.47,869.37,481,869.11,477.16,868.62Z"/><path class="ar" d="M576.68,875.24S111.56,832,77,991.88c-7.68,35.54-10.17,64.53-9.39,88.12H0V776.75c64-17.46,154.6-41.07,167-38.31,7.77,1.73,104.88,15.18,218.69,30.72-62.58,7.05-114.67,18-81.17,34.08C373.64,836.36,576.68,875.24,576.68,875.24Z"/><path class="ar" d="M1751.72,862.28s-17.28,50.4-100.8,49-201.6-28.8-172.8-37.44S1751.72,862.28,1751.72,862.28Z"/><path class="ar" d="M1780.52,735.56c-1.44,27.36-70.56,21.6-73.44,14.4S1780.52,735.56,1780.52,735.56Z"/><path class="ar" d="M1639.4,830.6s-145.44,2.88-103.68,10.08S1639.4,830.6,1639.4,830.6Z"/><path class="ar" d="M200.84,940s-82.08,20.16-25.92,56.16,221.76,38.88,190.08,8.64S200.84,940,200.84,940Z"/><path class="ar" d="M318.92,915.56s37.44-14.4,56.16-4.32S393.8,930,388,930,318.92,915.56,318.92,915.56Z"/><path class="ar" d="M405.32,794.6S543.56,845,558,846.44s-23-33.12-50.4-40.32S405.32,794.6,405.32,794.6Z"/></g></svg>